<svg width="48" height="48" viewBox="0 0 48 48" fill="none" xmlns="http://www.w3.org/2000/svg">
<g clip-path="url(#clip0_53_11)">
<path d="M48 23.2421C48 36.0784 37.2548 48 24 48C10.7452 48 0 36.0784 0 23.2421C0 10.4058 10.7452 0 24 0C37.2548 0 48 10.4058 48 23.2421Z" fill="#0C3B7C"/>
<path d="M21.8149 31.6009L17.9489 31.597V26.9743C17.9489 25.9866 18.332 25.4726 19.1772 25.3551H21.8149C23.696 25.3551 24.9128 26.5411 24.9128 28.4607C24.9128 30.4322 23.7267 31.599 21.8149 31.6009ZM17.9489 19.1325V17.9156C17.9489 16.8509 18.3994 16.3446 19.3871 16.2791H21.3663C23.0625 16.2791 24.0791 17.2938 24.0791 18.9938C24.0791 20.2876 23.3821 21.799 21.4279 21.799H17.9489V19.1325ZM26.7514 23.7455L26.0526 23.3528L26.6629 22.831C27.3733 22.2207 28.5632 20.8479 28.5632 18.4798C28.5632 14.8524 25.7503 12.5132 21.3971 12.5132H16.4298V12.5112H15.8637C14.5737 12.5594 13.5398 13.6087 13.5264 14.9064V35.4881H21.4953C26.3337 35.4881 29.4565 32.8543 29.4565 28.7745C29.4565 26.5777 28.4477 24.7005 26.7514 23.7455Z" fill="white"/>
<path d="M31.5317 32.6451C31.5317 31.0728 32.7998 29.8008 34.3622 29.8008C35.9285 29.8008 37.2025 31.0728 37.2025 32.6451C37.2025 34.2153 35.9285 35.4893 34.3622 35.4893C32.7998 35.4893 31.5317 34.2153 31.5317 32.6451Z" fill="#00BAFC"/>
</g>
<defs>
<clipPath id="clip0_53_11">
<rect width="48" height="48" fill="white"/>
</clipPath>
</defs>
</svg>
