<svg width="24" height="24" viewBox="0 0 24 24" fill="none" xmlns="http://www.w3.org/2000/svg"><path d="M13.8947 19.4286L8.8421 14.8571V18.2857H2.52632V14.8571H0V24H2.52632V20.5714H8.8421V24L13.8947 19.4286ZM21.4737 2.28571H20.2105V0H17.6842V2.28571H7.57895V0H5.05263V2.28571H3.78947C2.4 2.28571 1.26316 3.31429 1.26316 4.57143V12.5714H3.78947V9.14286H21.4737V20.5714H16.1684L13.6421 22.8571H21.4737C22.8632 22.8571 24 21.8286 24 20.5714V4.57143C24 3.31429 22.8632 2.28571 21.4737 2.28571ZM3.78947 6.85714V4.57143H21.4737V6.85714H3.78947Z" fill="white"/></svg>