<svg width="24" height="24" viewBox="0 0 24 24" fill="none" xmlns="http://www.w3.org/2000/svg"><path d="M2.52632 9.14286H20.2105V12.5714H22.7368V4.57143C22.7368 3.31429 21.6 2.28571 20.2105 2.28571H18.9474V0H16.4211V2.28571H6.31579V0H3.78947V2.28571H2.52632C1.13684 2.28571 0 3.31429 0 4.57143V20.5714C0 21.8286 1.13684 22.8571 2.52632 22.8571H7.57895V20.5714H2.52632V9.14286ZM20.2105 4.57143V6.85714H2.52632V4.57143H20.2105ZM16.4211 18.2857H10.1053V20.5714H16.4211V24L21.4737 19.4286L16.4211 14.8571V18.2857ZM21.4737 14.8571V24H24V14.8571H21.4737Z" fill="white"/></svg>