<svg xmlns="http://www.w3.org/2000/svg" viewBox="0 0 288.07 288.04" width="100%" height="100%" preserveAspectRatio="xMidYMid">
  <defs>
    <style>
      .cls-1{fill:#e2e2e2;fill-rule:evenodd;}
    </style>
  </defs>
  <title>
    12 wzorek
  </title>
  <g id="Warstwa_2" data-name="Warstwa 2">
    <g id="Warstwa_1-2" data-name="Warstwa 1">
      <g id="Layer_1" data-name="Layer 1">
        <path class="cls-1" d="M288,14.81c-.67-1.06-1.36-2.12-2-3.2a1,1,0,0,0-.9-.53q-8.24-.2-16.45-.43a2.76,2.76,0,0,0-.4.06,4.35,4.35,0,0,0,.25.63c2.79,4.56,5.6,9.11,8.39,13.67a1.22,1.22,0,0,0,1.15.67c3.32.06,6.65.16,10,.24v.82c-.4,0-.81-.12-1.21-.13-3.05-.1-6.09-.19-9.14-.25a1.21,1.21,0,0,1-1.17-.62Q271.77,18,267,10.35c0-.09-.08-.19-.15-.36a3.35,3.35,0,0,1,.55-.11c6,.16,11.91.33,17.86.47a1.29,1.29,0,0,1,1.22.74c.46.78,1,1.52,1.49,2.28Z"/>
        <path class="cls-1" d="M288,150.38c-.44,0-.88.12-1.32.14-2.84.08-5.68.17-8.53.23a1.36,1.36,0,0,0-1.32.71c-2.74,4.51-5.52,9-8.28,13.49-.13.22-.24.47-.43.83h1c5.21-.14,10.41-.3,15.62-.42a1.41,1.41,0,0,0,1.39-.8c.58-1.05,1.24-2.05,1.86-3.07v1.44c-.51.8-1,1.59-1.51,2.42a1.25,1.25,0,0,1-1.23.69c-5.35.13-10.69.28-16,.42h-2.34c.08-.21.18-.43.28-.63,3.08-5,6.18-10,9.24-15.06a1.41,1.41,0,0,1,1.31-.77c3.43-.06,6.85-.16,10.28-.25Z"/>
        <path class="cls-1" d="M288,38.67c-.44,0-.88.13-1.32.14-2.84.09-5.68.18-8.53.23a1.39,1.39,0,0,0-1.32.72c-2.74,4.51-5.52,9-8.28,13.49-.13.22-.24.46-.43.83h1c5.21-.15,10.41-.3,15.62-.42a1.41,1.41,0,0,0,1.39-.81c.58-1,1.24-2.05,1.86-3.07v1.44c-.51.81-1,1.6-1.51,2.43a1.26,1.26,0,0,1-1.23.69c-5.14.12-10.28.27-15.42.4h-2.95a4.94,4.94,0,0,1,.33-.7l9.14-14.89a1.54,1.54,0,0,1,1.47-.85c3.39-.06,6.78-.17,10.17-.25Z"/>
        <path class="cls-1" d="M288,238.22c-.67-1.07-1.36-2.12-2-3.2a1,1,0,0,0-.9-.53l-16.45-.43a2.63,2.63,0,0,0-.39.06,3.41,3.41,0,0,0,.24.63c2.79,4.56,5.6,9.11,8.39,13.67a1.23,1.23,0,0,0,1.15.67c3.32.06,6.65.15,10,.24v.82c-.4-.05-.81-.13-1.21-.14-3.05-.09-6.09-.18-9.14-.24a1.21,1.21,0,0,1-1.17-.62q-4.71-7.71-9.45-15.4a2.54,2.54,0,0,1-.16-.38,6.48,6.48,0,0,1,.77-.08c5.85.15,11.7.32,17.55.46a1.44,1.44,0,0,1,1.38.83c.43.76.95,1.47,1.43,2.2Z"/>
        <path class="cls-1" d="M288,262.08c-.44.05-.88.13-1.32.14-2.84.09-5.68.18-8.53.23a1.36,1.36,0,0,0-1.32.71c-2.74,4.51-5.52,9-8.27,13.49-.14.23-.25.47-.43.83h1.21c5.1-.14,10.2-.3,15.31-.41a1.59,1.59,0,0,0,1.55-.9c.55-1,1.19-2,1.8-3v1.44c-.51.81-1,1.6-1.51,2.43a1.24,1.24,0,0,1-1.23.68c-5.14.12-10.28.28-15.42.41H266.9a5.46,5.46,0,0,1,.27-.6c3.08-5,6.18-10,9.24-15.07a1.4,1.4,0,0,1,1.31-.76c3.43-.07,6.85-.17,10.28-.26Z"/>
        <path class="cls-1" d="M288,126.51c-.67-1.06-1.36-2.12-2-3.19a1,1,0,0,0-.9-.53l-16.45-.44a1.78,1.78,0,0,0-.39.07,3.41,3.41,0,0,0,.24.63c2.79,4.55,5.6,9.1,8.39,13.67a1.21,1.21,0,0,0,1.15.66l10,.24v.83c-.44,0-.88-.13-1.32-.15-3-.09-6-.16-9-.23a1.22,1.22,0,0,1-1.17-.62q-4.71-7.71-9.45-15.4c0-.09-.08-.19-.16-.36a3.47,3.47,0,0,1,.56-.11c6,.16,11.91.33,17.86.47a1.29,1.29,0,0,1,1.22.74c.46.78,1,1.52,1.49,2.28Z"/>
        <path class="cls-1" d="M288,182.47c-.62-1-1.28-2-1.86-3.07a1.42,1.42,0,0,0-1.39-.81c-3.12-.05-6.23-.14-9.35-.23l-6.47-.18h-.8c.21.39.36.69.53,1q4.06,6.6,8.11,13.22a1.46,1.46,0,0,0,1.38.81c2.64,0,5.28.12,7.91.2.65,0,1.29.1,1.94.16v.61c-3.43-.08-6.85-.18-10.28-.25a1.3,1.3,0,0,1-1.26-.67c-3.11-5.12-6.26-10.22-9.4-15.33-.07-.11-.12-.23-.23-.43a4.62,4.62,0,0,1,.65-.07c5.92.16,11.85.34,17.77.47a1.36,1.36,0,0,1,1.3.78c.45.8,1,1.56,1.45,2.34Z"/>
        <path class="cls-1" d="M288,206.33l-9.87.24a1.3,1.3,0,0,0-1.26.67c-2.78,4.57-5.59,9.12-8.39,13.67-.1.17-.17.35-.31.62.3,0,.49.08.68.08q8.07-.23,16.14-.43a1.13,1.13,0,0,0,1.06-.63c.62-1.05,1.3-2.07,1.95-3.11v1.44a22.53,22.53,0,0,0-1.37,2.12,1.61,1.61,0,0,1-1.64.92c-3,.05-6,.15-8.93.23l-8.11.22h-1.13c.2-.38.33-.65.48-.9,3-4.92,6.07-9.84,9.07-14.78a1.44,1.44,0,0,1,1.39-.81c3,0,6-.14,9-.23a10,10,0,0,0,1.21-.14Z"/>
        <path class="cls-1" d="M288,70.77c-.62-1-1.28-2-1.86-3.07a1.41,1.41,0,0,0-1.39-.81c-3.15,0-6.3-.15-9.45-.23l-6.37-.19h-.79c.19.36.31.63.47.88,2.72,4.44,5.46,8.87,8.16,13.32a1.46,1.46,0,0,0,1.38.81c2.64,0,5.28.12,7.91.2.65,0,1.29.1,1.94.15v.62c-3.43-.09-6.85-.18-10.28-.25a1.34,1.34,0,0,1-1.26-.67c-3.11-5.12-6.26-10.22-9.4-15.33-.08-.14-.15-.29-.22-.44a4.52,4.52,0,0,1,.74-.06c5.86.16,11.71.34,17.57.47a1.47,1.47,0,0,1,1.45.87c.42.77.93,1.5,1.4,2.25Z"/>
        <path class="cls-1" d="M288,94.63l-9.87.24a1.28,1.28,0,0,0-1.26.67c-2.78,4.57-5.59,9.11-8.39,13.67-.1.17-.17.35-.31.62.3,0,.49.08.68.08l16.14-.44a1.13,1.13,0,0,0,1.06-.62c.62-1,1.3-2.08,1.95-3.11v1.44a24.56,24.56,0,0,0-1.37,2.11,1.61,1.61,0,0,1-1.64.93c-3,0-6,.15-8.93.23l-8.11.22h-1.13c.2-.38.33-.65.48-.9,3-4.93,6.07-9.85,9.07-14.79a1.47,1.47,0,0,1,1.39-.8c3,0,6-.14,9-.23.4,0,.81-.1,1.21-.14Z"/>
        <path class="cls-1" d="M202.83,0l-2.36,4.5,8.33,15.39L217.13,4.5c-.81-1.54-1.59-3-2.36-4.5h.82l2.35,4.5-9,16.69c-.59-.58-8.29-14.6-9.22-16.74L202,0Z"/>
        <path class="cls-1" d="M9.05,0C8.27,1.48,7.49,3,6.69,4.5L15,19.89,23.35,4.5,21,0h.83l2.35,4.5-9,16.69C14.54,20.61,6.84,6.6,5.91,4.45,6.68,3,7.45,1.48,8.23,0Z"/>
        <path class="cls-1" d="M105.94,0c-.78,1.48-1.56,3-2.36,4.5l8.33,15.39L120.24,4.5,117.87,0h.83l2.35,4.5-9,16.69c-.59-.58-8.29-14.6-9.22-16.74.77-1.48,1.54-3,2.32-4.45Z"/>
        <path class="cls-1" d="M0,81.87H4a5.2,5.2,0,0,0-.21-.55C2.74,79.55,1.66,77.77.57,76A3,3,0,0,0,0,75.5V74.06a2.28,2.28,0,0,1,.49.49q2.38,3.84,4.73,7.68a.82.82,0,0,0,.11.28,18.31,18.31,0,0,1-5.33,0Z"/>
        <path class="cls-1" d="M0,193.58H4a5.37,5.37,0,0,0-.21-.56c-1.08-1.77-2.17-3.54-3.26-5.29A3.32,3.32,0,0,0,0,187.2v-1.44a2.28,2.28,0,0,1,.49.49q2.38,3.84,4.73,7.69c0,.09.08.18.11.27a18.31,18.31,0,0,1-5.33,0Z"/>
        <path class="cls-1" d="M0,156.75a2.33,2.33,0,0,0,.51-.43c1.15-1.85,2.29-3.71,3.42-5.56,0-.12.09-.25.13-.38H0v-.62l5.44-.26c-.18.38-.26.6-.37.79-1.49,2.42-3,4.83-4.47,7.24a4.7,4.7,0,0,1-.6.66Z"/>
        <path class="cls-1" d="M0,268.46c.17-.15.4-.26.51-.44q1.73-2.77,3.42-5.56a2.43,2.43,0,0,0,.13-.38H0v-.62l5.43-.26a6.36,6.36,0,0,1-.31.71q-2.28,3.7-4.57,7.41a3.78,3.78,0,0,1-.55.58Z"/>
        <path class="cls-1" d="M0,45.05a2.16,2.16,0,0,0,.51-.44c1.15-1.84,2.29-3.7,3.42-5.56a1.71,1.71,0,0,0,.13-.38H0v-.61l5.46-.27c-.24.45-.35.72-.51,1-1.42,2.33-2.85,4.67-4.29,7a5.9,5.9,0,0,1-.66.75Z"/>
        <path class="cls-1" d="M0,249.33l4.07.25a2.66,2.66,0,0,0-.16-.55q-1.7-2.79-3.42-5.57A3.56,3.56,0,0,0,0,243v-1.24c.14.09.33.14.4.26,1.67,2.69,3.33,5.38,5.05,8.17a11.84,11.84,0,0,1-2.79,0H0Z"/>
        <path class="cls-1" d="M0,101a3,3,0,0,0,.49-.51c1.15-1.85,2.29-3.7,3.42-5.57a2.67,2.67,0,0,0,.2-.46A24.54,24.54,0,0,0,0,94.63v-.82H5.37c-.11.21-.18.43-.3.61C3.61,96.8,2.15,99.19.68,101.56a4.37,4.37,0,0,1-.68.68Z"/>
        <path class="cls-1" d="M0,25.92l4.07.25a3.47,3.47,0,0,0-.16-.55Q2.22,22.83.49,20.05A3.94,3.94,0,0,0,0,19.54V18.31c.14.08.33.13.4.25C2.07,21.25,3.73,24,5.5,26.82c-1.95,0-3.72-.1-5.5-.08Z"/>
        <path class="cls-1" d="M0,212.71a3,3,0,0,0,.49-.51c1.15-1.85,2.29-3.7,3.42-5.57a2.25,2.25,0,0,0,.19-.45,23.4,23.4,0,0,0-4.1.15v-.82H5.37c-.09.19-.15.37-.24.53L.68,213.26a4.37,4.37,0,0,1-.68.68Z"/>
        <path class="cls-1" d="M0,137.62l4.07.26a2.66,2.66,0,0,0-.16-.55q-1.7-2.81-3.42-5.58a3.86,3.86,0,0,0-.49-.5V130a2.38,2.38,0,0,1,.52.43q2.38,3.85,4.76,7.75a1.89,1.89,0,0,1,.09.34c-1.81,0-3.59-.12-5.37-.08Z"/>
        <path class="cls-1" d="M160.35,49.28c-.23-.4-.4-.65-.54-.92-2.76-5.09-5.5-10.18-8.27-15.27a1.29,1.29,0,0,1,0-1.41c2.86-5.22,5.68-10.47,8.52-15.71.08-.14.18-.28.32-.51.18.27.34.47.46.69l8.37,15.44a1.31,1.31,0,0,1,.07,1.42q-4.29,7.83-8.53,15.71A3.79,3.79,0,0,0,160.35,49.28Zm0-32.37c-.18.28-.31.43-.4.61-2.57,4.73-5.12,9.47-7.7,14.19a1.21,1.21,0,0,0,0,1.32q3.84,7,7.65,14.1c.13.2.26.4.41.59.12-.18.21-.28.28-.4q3.89-7.18,7.79-14.37a1.18,1.18,0,0,0-.07-1.32q-2.64-4.83-5.24-9.67c-.82-1.63-1.71-3.25-2.68-5.05Z"/>
        <path class="cls-1" d="M257.26,15.43c.22.38.38.64.53.91q4.09,7.59,8.22,15.17a1.55,1.55,0,0,1,0,1.68c-2.77,5.05-5.49,10.12-8.23,15.17-.15.27-.31.53-.52.88-.17-.23-.33-.47-.48-.71q-4.18-7.72-8.36-15.44a1.23,1.23,0,0,1-.09-1.33q4.32-7.92,8.61-15.89C257,15.75,257.11,15.65,257.26,15.43Zm0,32.36.54-.92c2.46-4.55,4.91-9.12,7.4-13.65a1.6,1.6,0,0,0,0-1.78c-2.49-4.54-4.94-9.1-7.41-13.65-.14-.26-.31-.52-.51-.86-.21.34-.38.59-.52.86-2.48,4.58-4.94,9.17-7.45,13.74a1.51,1.51,0,0,0,0,1.68c2.49,4.54,4.94,9.1,7.4,13.65.14.27.29.53.54.93Z"/>
        <path class="cls-1" d="M63.48,238.87c.19.3.34.52.47.76,2.77,5.12,5.53,10.24,8.32,15.35a1.42,1.42,0,0,1,0,1.51Q68,264.25,63.85,272c-.09.18-.21.35-.37.61-.15-.19-.3-.38-.43-.58l-8.46-15.63a1.13,1.13,0,0,1-.07-1.22q4.35-8,8.67-16A2.28,2.28,0,0,1,63.48,238.87Zm0,32.3c.2-.33.37-.58.51-.84,2.48-4.58,5-9.17,7.46-13.74a1.53,1.53,0,0,0,0-1.69c-2.5-4.56-5-9.15-7.45-13.73-.14-.26-.31-.5-.51-.82-.21.35-.37.61-.52.88-2.47,4.55-4.91,9.11-7.41,13.65a1.64,1.64,0,0,0,0,1.78c2.5,4.53,4.94,9.09,7.41,13.64a6.9,6.9,0,0,0,.49.87Z"/>
        <path class="cls-1" d="M257.25,238.83c.21.35.36.57.48.81q4.15,7.68,8.32,15.36a1.27,1.27,0,0,1,.07,1.41c-2.86,5.23-5.68,10.47-8.52,15.71-.08.15-.18.28-.33.52a6.45,6.45,0,0,1-.47-.69l-8.37-15.45a1.31,1.31,0,0,1-.05-1.41c2.86-5.22,5.68-10.47,8.52-15.71Zm0,1.49c-.22.38-.39.64-.53.9-2.47,4.56-4.92,9.11-7.41,13.65a1.6,1.6,0,0,0,0,1.78c2.49,4.54,4.94,9.1,7.41,13.65.14.26.31.52.52.87.2-.33.37-.58.51-.84,2.48-4.58,4.95-9.17,7.45-13.73a1.53,1.53,0,0,0,0-1.69c-2.52-4.6-5-9.22-7.5-13.83C257.59,240.87,257.46,240.67,257.25,240.32Z"/>
        <path class="cls-1" d="M63.45,49.28l-.59-1c-2.71-5-5.4-10-8.14-15a1.6,1.6,0,0,1,0-1.78c2.74-5,5.45-10,8.18-15.08.16-.3.33-.58.55-1,.19.29.35.5.47.73L72.29,31.6a1.29,1.29,0,0,1,0,1.41Q68,40.81,63.82,48.63A3.29,3.29,0,0,1,63.45,49.28Zm0-1.52c.21-.33.38-.57.52-.83,2.48-4.58,5-9.17,7.45-13.74a1.57,1.57,0,0,0,0-1.69c-2.52-4.59-5-9.21-7.5-13.82-.13-.23-.29-.44-.47-.73-.21.34-.37.6-.52.87-2.46,4.55-4.91,9.11-7.4,13.64a1.6,1.6,0,0,0,0,1.78c2.49,4.54,4.94,9.1,7.41,13.65C63.08,47.16,63.25,47.41,63.45,47.76Z"/>
        <path class="cls-1" d="M257.25,127.12c.23.39.39.65.53.92,2.74,5.05,5.47,10.12,8.23,15.17a1.55,1.55,0,0,1,0,1.68c-2.76,5.05-5.49,10.11-8.23,15.17-.14.27-.31.53-.52.89-.19-.29-.35-.49-.47-.71l-8.37-15.44a1.33,1.33,0,0,1,0-1.42q4.29-7.83,8.53-15.71C257,127.53,257.08,127.39,257.25,127.12Zm0,1.5c-.23.38-.39.64-.53.9-2.47,4.55-4.92,9.11-7.41,13.65a1.6,1.6,0,0,0,0,1.78c2.48,4.51,4.91,9,7.36,13.55.16.3.34.59.56,1,.21-.34.38-.59.52-.85,2.48-4.58,4.95-9.17,7.45-13.74a1.55,1.55,0,0,0,0-1.68q-3.76-6.85-7.45-13.74C257.62,129.23,257.47,129,257.25,128.62Z"/>
        <path class="cls-1" d="M160.35,238.81c.22.38.4.67.56,1Q165,247.4,169.13,255a1.35,1.35,0,0,1,.08,1.5q-4.26,7.8-8.47,15.62c-.1.18-.22.34-.4.61-.21-.37-.39-.65-.55-.94-2.72-5-5.43-10.06-8.18-15.07a1.64,1.64,0,0,1,0-1.78c2.75-5,5.46-10,8.18-15.08Zm0,1.51c-.22.38-.37.61-.5.85-2.48,4.58-4.95,9.17-7.45,13.74a1.53,1.53,0,0,0,0,1.69c2.5,4.56,5,9.15,7.45,13.74.14.25.31.5.51.83.21-.35.38-.61.52-.87,2.47-4.55,4.91-9.11,7.41-13.65a1.64,1.64,0,0,0,0-1.78c-2.49-4.54-4.94-9.1-7.41-13.65-.14-.22-.31-.52-.53-.9Z"/>
        <path class="cls-1" d="M208.8,188.85c-.25-.41-.43-.69-.59-1q-4.05-7.5-8.13-15a1.66,1.66,0,0,1,0-1.79c2.73-5,5.42-10,8.13-15,.16-.29.34-.57.57-1,.18.27.33.45.43.64l8.37,15.45a1.31,1.31,0,0,1,.07,1.42q-4.29,7.85-8.53,15.72A1.58,1.58,0,0,1,208.8,188.85Zm0-1.51c.21-.33.35-.52.46-.72,2.51-4.64,5-9.29,7.55-13.92a1.42,1.42,0,0,0,0-1.51q-3.76-6.9-7.5-13.82c-.15-.24-.31-.48-.48-.71-.17.26-.29.42-.38.59-2.53,4.67-5,9.35-7.6,14a1.38,1.38,0,0,0,0,1.51q3.74,6.86,7.45,13.73a6.32,6.32,0,0,0,.49.85Z"/>
        <path class="cls-1" d="M160.35,127.13c.21.34.36.56.49.8l8.31,15.36a1.27,1.27,0,0,1,.09,1.41c-2.88,5.25-5.72,10.53-8.58,15.8-.09.14-.18.28-.28.41-.16-.22-.31-.38-.42-.57l-8.47-15.62a1.21,1.21,0,0,1,0-1.32q4.27-7.85,8.52-15.71C160.09,127.54,160.18,127.4,160.35,127.13Zm0,32.36c.23-.38.39-.64.54-.91,2.46-4.55,4.91-9.11,7.4-13.64a1.6,1.6,0,0,0,0-1.78c-2.49-4.54-4.94-9.1-7.4-13.65l-.52-.87c-.2.33-.37.58-.51.84-2.48,4.58-5,9.17-7.46,13.73a1.57,1.57,0,0,0,0,1.69c2.5,4.57,5,9.16,7.45,13.74.15.24.28.47.5.85Z"/>
        <path class="cls-1" d="M15,43.39c.23.37.37.59.5.83,2.76,5.09,5.5,10.19,8.28,15.27a1.45,1.45,0,0,1,0,1.6c-2.76,5-5.49,10.11-8.23,15.17-.14.27-.31.51-.53.87-.21-.34-.38-.58-.52-.84C11.76,71.23,9,66.16,6.27,61.11a1.45,1.45,0,0,1,0-1.6C9,54.4,11.79,49.27,14.56,44.15,14.67,44,14.8,43.75,15,43.39Zm0,32.23c.17-.24.26-.35.32-.46l7.75-14.28a1.14,1.14,0,0,0,0-1.23c-2.58-4.73-5.13-9.46-7.69-14.19A3.32,3.32,0,0,0,15,45c-.19.31-.34.54-.47.78C12,50.31,9.59,54.86,7.1,59.4a1.6,1.6,0,0,0,0,1.78c2.47,4.51,4.9,9,7.35,13.56C14.61,75,14.78,75.25,15,75.62Z"/>
        <path class="cls-1" d="M111.91,43.4c.25.41.43.69.58,1,2.71,5,5.4,10,8.13,15a1.6,1.6,0,0,1,0,1.78c-2.73,5-5.42,10-8.13,15-.16.29-.34.58-.57,1a5.5,5.5,0,0,1-.43-.64q-4.18-7.73-8.38-15.46a1.31,1.31,0,0,1-.06-1.41q4.29-7.85,8.53-15.72A6.16,6.16,0,0,1,111.91,43.4Zm0,32.21c.16-.22.23-.3.28-.38L120,60.86a1.14,1.14,0,0,0,0-1.23q-3.84-7.05-7.65-14.1a3.19,3.19,0,0,0-.43-.54c-.13.2-.22.31-.28.42-2.56,4.74-5.11,9.47-7.7,14.19a1.38,1.38,0,0,0,.1,1.51q3.7,6.81,7.39,13.65a5.3,5.3,0,0,0,.48.85Z"/>
        <path class="cls-1" d="M208.78,77.14c-.21-.36-.35-.58-.48-.82L200,61.05a1.38,1.38,0,0,1,0-1.51c2.8-5.14,5.58-10.29,8.38-15.45.1-.19.24-.38.42-.66.22.34.39.59.53.85l8.22,15.18a1.31,1.31,0,0,1,.13,1.42c-2.88,5.26-5.72,10.53-8.58,15.81C209,76.8,209,76.9,208.78,77.14Zm0-32.2c-.2.31-.35.52-.47.75-2.5,4.61-5,9.23-7.51,13.82a1.45,1.45,0,0,0,0,1.61c2.48,4.54,4.93,9.09,7.4,13.64.14.26.31.5.52.85.21-.31.36-.52.49-.75Q213,67.94,216.78,61a1.43,1.43,0,0,0-.05-1.6c-2.48-4.54-4.93-9.1-7.4-13.65-.14-.22-.33-.46-.53-.81Z"/>
        <path class="cls-1" d="M150.73,222.37H149.6c-5.68-.16-11.37-.32-17-.45A1.67,1.67,0,0,1,131,221c-3-4.89-6-9.75-9-14.63-.16-.26-.31-.52-.51-.88a3.29,3.29,0,0,1,.7-.11l17.77.49a1.12,1.12,0,0,1,1.1.56q4.74,7.75,9.51,15.5A2.32,2.32,0,0,1,150.73,222.37Zm-27.94-16.22c.13.27.18.42.26.56q4.28,7,8.55,13.92a1,1,0,0,0,1,.54l16,.43a5.12,5.12,0,0,0,.78-.06c-.13-.28-.21-.5-.32-.69-2.78-4.52-5.58-9-8.33-13.57a1.38,1.38,0,0,0-1.34-.71l-15.51-.42Z"/>
        <path class="cls-1" d="M150.8,110.67h-1.05l-17.26-.46a1.48,1.48,0,0,1-1.42-.76q-4.59-7.55-9.24-15.06c-.1-.16-.18-.35-.32-.62.28,0,.47-.07.65-.07,5.93.16,11.85.34,17.78.49a1.27,1.27,0,0,1,1.22.7q4.64,7.59,9.3,15.15C150.55,110.18,150.62,110.33,150.8,110.67Zm-1.37-.84c-.16-.3-.25-.51-.37-.7-2.77-4.53-5.56-9-8.32-13.57a1.29,1.29,0,0,0-1.25-.69l-15.82-.42h-.86a4.34,4.34,0,0,0,.2.5c2.87,4.67,5.75,9.33,8.6,14a1.07,1.07,0,0,0,1,.52l16,.43a7.56,7.56,0,0,0,.82-.07Z"/>
        <path class="cls-1" d="M63.45,127.13c.19.31.35.53.47.76l8.37,15.44a1.31,1.31,0,0,1,0,1.42c-2.82,5.16-5.61,10.35-8.42,15.53-.11.2-.25.39-.44.69-.22-.37-.39-.65-.55-.95q-4.05-7.53-8.16-15a1.6,1.6,0,0,1,0-1.78c2.75-5,5.46-10,8.19-15.08A8.36,8.36,0,0,1,63.45,127.13Zm0,32.31c.13-.2.24-.34.32-.48,2.58-4.76,5.15-9.53,7.75-14.28a1.21,1.21,0,0,0,0-1.33q-3.84-7-7.65-14.1c-.1-.18-.25-.34-.41-.57-.14.23-.24.37-.32.52-2.56,4.73-5.11,9.46-7.7,14.18a1.29,1.29,0,0,0,0,1.42q3.78,6.94,7.54,13.92c.15.28.31.44.49.72Z"/>
        <path class="cls-1" d="M247.69,222.36H246c-5.48-.15-10.95-.32-16.43-.43a1.88,1.88,0,0,1-1.79-1.05c-2.92-4.83-5.9-9.63-8.86-14.45-.17-.28-.32-.57-.54-1,.34,0,.56-.06.78-.05l17.57.48a1.39,1.39,0,0,1,1.33.71q4.59,7.55,9.23,15.06C247.41,221.84,247.5,222,247.69,222.36Zm-28.08-16.19,9.16,14.9c2.51.33,16.6.62,17.5.35-.15-.27-.29-.54-.44-.8-2.69-4.37-5.4-8.74-8.05-13.14a1.7,1.7,0,0,0-1.64-.92c-4.83-.1-9.66-.26-14.48-.39Z"/>
        <path class="cls-1" d="M53.9,222.35H51.61c-5.28-.15-10.55-.32-15.82-.42A1.88,1.88,0,0,1,34,220.88c-2.93-4.83-5.91-9.64-8.86-14.45a10.65,10.65,0,0,1-.54-1c.34,0,.56-.06.79-.05,5.89.16,11.77.34,17.66.48a1.31,1.31,0,0,1,1.22.72c3,5,6.13,10,9.19,15C53.6,221.78,53.7,222,53.9,222.35ZM25.83,206.17,35,221.08c3.12.37,16.65.62,17.49.32-.13-.24-.25-.48-.39-.7-2.71-4.41-5.43-8.8-8.11-13.23a1.68,1.68,0,0,0-1.64-.91c-4.83-.1-9.66-.26-14.48-.38C27.25,206.16,26.64,206.17,25.83,206.17Z"/>
        <path class="cls-1" d="M15,155.09l.55.93c2.72,5,5.43,10.07,8.18,15.09a1.57,1.57,0,0,1,0,1.69c-2.77,5-5.5,10.12-8.24,15.18-.14.26-.31.5-.52.85-.22-.35-.39-.59-.53-.85C11.75,182.92,9,177.85,6.26,172.8a1.45,1.45,0,0,1,0-1.6c2.8-5.11,5.56-10.23,8.34-15.36C14.68,155.64,14.81,155.44,15,155.09Zm0,1.52c-.21.33-.35.52-.46.72C12,162,9.54,166.62,7,171.25a1.42,1.42,0,0,0,0,1.51q3.76,6.9,7.5,13.82c.12.23.28.43.48.73.19-.3.32-.48.43-.68,2.52-4.64,5-9.29,7.55-13.92a1.38,1.38,0,0,0,0-1.51c-2.48-4.54-4.93-9.1-7.4-13.65A4.8,4.8,0,0,0,15,156.61Z"/>
        <path class="cls-1" d="M111.92,155.13a10.76,10.76,0,0,1,.57,1c2.71,5,5.4,10,8.13,15a1.6,1.6,0,0,1,0,1.78c-2.74,5-5.43,10-8.14,15l-.57,1c-.19-.3-.35-.5-.47-.72q-4.17-7.68-8.33-15.36a1.31,1.31,0,0,1-.07-1.42q4.26-7.8,8.47-15.63A3.89,3.89,0,0,1,111.92,155.13Zm0,1.52c-.17.25-.3.41-.39.58q-3.81,7.05-7.65,14.09a1.31,1.31,0,0,0,.07,1.42q3.75,6.9,7.49,13.83c.13.22.28.43.48.74.14-.19.26-.38.38-.58,2.55-4.7,5.08-9.4,7.65-14.09a1.31,1.31,0,0,0-.06-1.42q-3.77-6.91-7.5-13.83c-.13-.23-.29-.39-.48-.74Z"/>
        <path class="cls-1" d="M73.05,233.3h1.66c5.45.15,10.89.32,16.33.43a2,2,0,0,1,1.89,1.06c2.92,4.84,5.9,9.64,8.85,14.45.18.28.32.58.54,1h-.8L84,249.76a1.28,1.28,0,0,1-1.26-.62c-3.12-5.12-6.27-10.22-9.4-15.33A4.21,4.21,0,0,1,73.05,233.3Zm1.35.82c.18.34.3.61.45.86,2.72,4.44,5.46,8.86,8.16,13.31a1.48,1.48,0,0,0,1.39.81c5.17.11,10.34.27,15.51.41H101a3.94,3.94,0,0,0-.26-.55q-4.28-7-8.54-13.92a1,1,0,0,0-1-.55l-16.12-.43a4.14,4.14,0,0,0-.7.06Z"/>
        <path class="cls-1" d="M24.55,26.8l3.06-5c2.19-3.56,4.38-7.11,6.55-10.68a1.39,1.39,0,0,1,1.3-.79l17.77-.47h.61q-.17.39-.36.75c-3.06,5-6.14,10-9.18,15a1.41,1.41,0,0,1-1.32.74c-5.85.14-11.71.32-17.56.48A6.33,6.33,0,0,1,24.55,26.8Zm28-16.11h-.79c-5.34.14-10.69.3-16,.42a1.21,1.21,0,0,0-1.12.7q-4.16,6.8-8.33,13.57c-.13.25-.25.51-.36.77h.63c5.38-.15,10.75-.3,16.13-.42a1.32,1.32,0,0,0,1.2-.77q4.1-6.71,8.22-13.4c.12-.26.23-.5.43-.87Z"/>
        <path class="cls-1" d="M73,9.89h1.13c5.69.15,11.37.32,17,.45a1.72,1.72,0,0,1,1.65.92c3,4.92,6,9.81,9,14.72.13.22.25.46.44.79a4.53,4.53,0,0,1-.74.08c-5.86-.16-11.71-.34-17.57-.48a1.47,1.47,0,0,1-1.4-.78c-3-5-6.08-9.92-9.13-14.88A2.8,2.8,0,0,0,73,9.89Zm1.37.83c.15.29.24.51.36.7,2.78,4.52,5.57,9,8.33,13.57a1.29,1.29,0,0,0,1.24.69q8,.2,15.92.43H101a4.25,4.25,0,0,0-.21-.49c-2.86-4.67-5.74-9.33-8.59-14a1,1,0,0,0-1-.53c-5.34-.13-10.68-.29-16-.43a7.32,7.32,0,0,0-.81.06Z"/>
        <path class="cls-1" d="M199.2,26.82h-.65c-5.92-.17-11.85-.35-17.77-.5a1.26,1.26,0,0,1-1.23-.69Q174.89,18,170.2,10.44A3.49,3.49,0,0,1,170,10a4.92,4.92,0,0,1,.67-.1l17.67.47a1.36,1.36,0,0,1,1.27.66c3.11,5.12,6.26,10.22,9.4,15.32C199,26.44,199.08,26.57,199.2,26.82ZM198,26.1l-9.18-14.93c-3.28-.37-16.65-.62-17.47-.32a2.92,2.92,0,0,0,.17.36c2.83,4.61,5.67,9.21,8.48,13.84a1.3,1.3,0,0,0,1.28.63l15.61.42Z"/>
        <path class="cls-1" d="M54,233.29l-1.61,2.64q-4,6.47-8,12.95a1.63,1.63,0,0,1-1.54.9c-5.82.13-11.64.31-17.46.48h-.7a4.06,4.06,0,0,1,.19-.59q4.68-7.62,9.35-15.24a1.41,1.41,0,0,1,1.36-.68q6.21-.13,12.43-.31l4.72-.15ZM25.9,249.46h.45c5.48-.14,10.95-.3,16.43-.43a1.14,1.14,0,0,0,1-.66q4.19-6.84,8.38-13.66a3.53,3.53,0,0,0,.28-.7h-1c-5.21.14-10.41.29-15.62.41a1.38,1.38,0,0,0-1.29.77q-4.07,6.67-8.16,13.31A7.62,7.62,0,0,1,25.9,249.46Z"/>
        <path class="cls-1" d="M169.89,110.62l3.74-6.1q2.94-4.77,5.87-9.54a1.3,1.3,0,0,1,1.17-.8c6-.13,12-.31,18-.48h.49a4.06,4.06,0,0,1-.27.65l-9.24,15.06a1.33,1.33,0,0,1-1.21.76c-6,.14-11.92.31-17.88.46A5,5,0,0,1,169.89,110.62Zm28-16.13h-.46q-8.22.23-16.43.43a1.16,1.16,0,0,0-1,.68c-2.79,4.55-5.6,9.1-8.39,13.65a4.59,4.59,0,0,0-.27.7h.92c5.24-.15,10.48-.3,15.72-.42a1.38,1.38,0,0,0,1.29-.78q4.09-6.7,8.22-13.4c.13-.27.24-.51.43-.86Z"/>
        <path class="cls-1" d="M218.4,250.21c.15-.3.24-.51.36-.7,3.06-5,6.14-10,9.19-15a1.42,1.42,0,0,1,1.3-.79c5.92-.14,11.84-.31,17.77-.47h.59c-.09.22-.18.45-.29.66q-4.63,7.53-9.24,15.06a1.39,1.39,0,0,1-1.32.73q-8.79.23-17.57.49A2.19,2.19,0,0,1,218.4,250.21Zm1.23-.75c.32,0,.45.06.59.06,5.44-.15,10.88-.31,16.33-.43a1.22,1.22,0,0,0,1.1-.75l8.28-13.48a8.09,8.09,0,0,0,.4-.84l-17.5.48Z"/>
        <path class="cls-1" d="M218.4,93.76c.3,0,.5-.06.69-.06q8.88.26,17.77.49a1.23,1.23,0,0,1,1.16.64q4.65,7.62,9.35,15.23c.08.14.15.3.28.55-.33,0-.58.07-.83.06-5.82-.15-11.65-.32-17.47-.46a1.47,1.47,0,0,1-1.4-.78q-4.55-7.47-9.13-14.89C218.68,94.32,218.57,94.08,218.4,93.76Zm27.89,16.08a5.42,5.42,0,0,0-.32-.69c-2.78-4.52-5.57-9-8.33-13.57a1.38,1.38,0,0,0-1.34-.71l-15.51-.42h-1.1c.12.26.17.42.25.55q4.27,7,8.55,13.92a1,1,0,0,0,1,.55l16.13.43A3.79,3.79,0,0,0,246.29,109.84Z"/>
        <path class="cls-1" d="M247.67,121.62c-.21.38-.35.65-.5.9l-9,14.71a1.58,1.58,0,0,1-1.47.85c-5.82.13-11.64.31-17.46.47h-.8c.1-.23.21-.46.33-.68l9.19-15a1.38,1.38,0,0,1,1.28-.81c6-.14,11.92-.31,17.88-.47Zm-18.85,1.18c-3,5-6.09,9.92-9.2,15h.68c5.41-.14,10.82-.3,16.23-.43a1.21,1.21,0,0,0,1.11-.72q4.16-6.79,8.34-13.57c.11-.19.18-.41.34-.77Z"/>
        <path class="cls-1" d="M199.2,138.5c-.34,0-.57.06-.79.06l-17.56-.5a1.27,1.27,0,0,1-1.27-.63c-3.12-5.12-6.27-10.22-9.4-15.32a3.88,3.88,0,0,1-.22-.46,5.66,5.66,0,0,1,.82-.06c5.82.15,11.64.32,17.47.46a1.46,1.46,0,0,1,1.4.78q4.57,7.5,9.19,15A2.92,2.92,0,0,1,199.2,138.5Zm-1.33-.71a1.9,1.9,0,0,0-.14-.4q-4.32-7-8.64-14.1a1,1,0,0,0-1-.5l-16-.43a6.85,6.85,0,0,0-.78.07l.54,1c2.67,4.34,5.36,8.68,8,13a1.72,1.72,0,0,0,1.63.94c4.9.1,9.79.26,14.69.39Z"/>
        <path class="cls-1" d="M102.33,138.56l-7.26-.17c-3.7-.1-7.4-.23-11.1-.32a1.4,1.4,0,0,1-1.33-.71q-4.62-7.59-9.29-15.15a4.58,4.58,0,0,1-.28-.54c.27,0,.49-.09.7-.09l17.67.47a1.32,1.32,0,0,1,1.25.68Q97.34,130.36,102,138C102.13,138.1,102.18,138.25,102.33,138.56Zm-1.33-.75a4.78,4.78,0,0,0-.19-.48q-4.31-7-8.6-14a1,1,0,0,0-1-.53l-16-.43a5.12,5.12,0,0,0-.78.06c.14.29.23.5.35.7,2.77,4.52,5.57,9,8.32,13.57a1.4,1.4,0,0,0,1.35.7l15.51.41Z"/>
        <path class="cls-1" d="M170,233.29h1c5.75.15,11.5.32,17.25.45a1.64,1.64,0,0,1,1.55.9c3,5,6,9.87,9.08,14.8.13.2.24.41.41.71a5.52,5.52,0,0,1-.71.11l-17.77-.5a1.13,1.13,0,0,1-1.1-.56q-4.71-7.71-9.45-15.41A3.4,3.4,0,0,1,170,233.29Zm28,16.2c-.12-.26-.16-.39-.23-.5q-4.28-7-8.55-13.92a1.12,1.12,0,0,0-1.08-.58l-15.92-.43a8.33,8.33,0,0,0-.86.08c.23.4.38.7.55,1,2.67,4.35,5.36,8.69,8,13a1.71,1.71,0,0,0,1.64.93c4.86.1,9.72.26,14.58.39Z"/>
        <path class="cls-1" d="M54,121.59l-3.73,6.06c-2,3.21-4,6.41-5.91,9.63a1.37,1.37,0,0,1-1.28.79c-5.92.14-11.85.32-17.77.49h-.6a4,4,0,0,1,.28-.67l9.24-15.06a1.38,1.38,0,0,1,1.31-.75c2.4,0,4.8-.13,7.19-.19l10.07-.27A9.85,9.85,0,0,1,54,121.59ZM25.9,137.84l5.32-.18,11.4-.27a1.34,1.34,0,0,0,1.26-.67c2.77-4.57,5.58-9.11,8.37-13.66a4.26,4.26,0,0,0,.28-.7h-.92c-5.24.14-10.48.3-15.72.41a1.42,1.42,0,0,0-1.29.78c-2.71,4.45-5.44,8.87-8.16,13.31a7.93,7.93,0,0,0-.58,1Z"/>
        <path class="cls-1" d="M102.37,93.75l-4.18,6.82c-1.81,2.94-3.64,5.88-5.43,8.84a1.4,1.4,0,0,1-1.29.8c-5.92.14-11.85.31-17.77.46-.21,0-.41,0-.62,0,.14-.28.23-.52.36-.74,3.06-5,6.14-10,9.19-15a1.3,1.3,0,0,1,1.21-.75q8.88-.21,17.77-.48C101.8,93.7,102,93.73,102.37,93.75Zm-10.49,15.7c3.07-5,6.12-9.91,9.19-15h-.57q-8.18.22-16.34.43a1.23,1.23,0,0,0-1.1.74L74.78,109.1a9.37,9.37,0,0,0-.4.85Z"/>
        <path class="cls-1" d="M102.37,205.46c-1.44,2.35-2.78,4.54-4.13,6.72-1.83,3-3.67,5.95-5.48,8.94a1.41,1.41,0,0,1-1.29.79c-5.93.14-11.85.31-17.77.47h-.62c.14-.29.23-.53.36-.75,3.06-5,6.14-10,9.19-15a1.35,1.35,0,0,1,1.31-.74c5.85-.14,11.71-.32,17.56-.48A8.46,8.46,0,0,1,102.37,205.46Zm-1.3.66c-1.87.06-3.55.13-5.22.17-3.81.1-7.61.2-11.41.28a1.4,1.4,0,0,0-1.36.67c-2.77,4.57-5.58,9.11-8.37,13.67a4.12,4.12,0,0,0-.27.69h.92c5.24-.14,10.48-.3,15.72-.41a1.41,1.41,0,0,0,1.29-.79q4.08-6.71,8.22-13.4c.13-.22.25-.46.48-.88Z"/>
        <path class="cls-1" d="M121.44,250.21l2.3-3.75c2.44-4,4.89-7.93,7.31-11.91a1.43,1.43,0,0,1,1.29-.8c6-.14,11.92-.31,17.87-.47h.52c-.13.28-.22.52-.35.74-3.06,5-6.14,10-9.19,15a1.35,1.35,0,0,1-1.31.74q-8.77.23-17.56.49C122.09,250.26,121.86,250.23,121.44,250.21Zm1.3-.75a5.46,5.46,0,0,1,.58.06c5.44-.15,10.88-.31,16.33-.43a1.25,1.25,0,0,0,1.11-.74q4.13-6.75,8.28-13.48c.13-.22.22-.46.4-.85l-17.51.48Z"/>
        <path class="cls-1" d="M199.25,205.47l-.93,1.53q-4.33,7-8.66,14.1a1.38,1.38,0,0,1-1.28.81c-6,.14-11.91.31-17.87.47H170a5.11,5.11,0,0,1,.27-.64l9.3-15.15a1.17,1.17,0,0,1,1-.67q9-.22,18.08-.49A2,2,0,0,1,199.25,205.47Zm-1.27.72c-.36,0-.52-.05-.68-.05-5.41.15-10.82.31-16.23.43a1.26,1.26,0,0,0-1.12.73c-2.76,4.53-5.55,9-8.33,13.57a7.51,7.51,0,0,0-.34.77l17.5-.48c3-5,6.07-9.88,9.22-15Z"/>
        <path class="cls-1" d="M63.47,71.28a10.31,10.31,0,0,1,.55,1c2.73,5,5.44,10.06,8.19,15.08a1.6,1.6,0,0,1,0,1.78c-2.75,5-5.46,10-8.18,15.07-.16.3-.33.59-.56,1-.23-.39-.4-.67-.56-1C60.17,99.13,57.44,94.07,54.68,89a1.45,1.45,0,0,1,0-1.6c2.79-5.1,5.55-10.23,8.32-15.35C63.11,71.84,63.27,71.61,63.47,71.28Zm0,1.54c-.15.23-.27.39-.37.56q-3.84,7.09-7.7,14.19a1.23,1.23,0,0,0,0,1.33q3.84,7,7.65,14.1c.1.18.25.35.41.58.14-.23.24-.37.32-.51,2.57-4.73,5.12-9.47,7.7-14.19a1.29,1.29,0,0,0,0-1.41c-2.53-4.64-5-9.29-7.54-13.93-.14-.23-.3-.45-.48-.72Z"/>
        <path class="cls-1" d="M121.45,26.8c1.15-1.89,2.2-3.61,3.26-5.32,2.12-3.45,4.24-6.88,6.34-10.34a1.41,1.41,0,0,1,1.29-.79c6-.14,11.92-.31,17.88-.47h.51a7.12,7.12,0,0,1-.35.74q-4.6,7.49-9.19,15a1.3,1.3,0,0,1-1.21.75c-5.92.14-11.85.32-17.77.48A6.47,6.47,0,0,1,121.45,26.8Zm10.48-15.7-9.22,15h.89l15.92-.43a1.29,1.29,0,0,0,1.23-.71c2.76-4.53,5.55-9,8.33-13.57q.19-.37.36-.78Z"/>
        <path class="cls-1" d="M218.34,26.79l2.51-4.08c2.36-3.85,4.74-7.7,7.09-11.56a1.39,1.39,0,0,1,1.29-.8c6-.14,11.91-.31,17.87-.47a4.51,4.51,0,0,1,.52,0c-.13.28-.22.52-.35.74l-9.19,15a1.31,1.31,0,0,1-1.2.75c-6,.14-11.91.32-17.87.49C218.85,26.86,218.69,26.83,218.34,26.79Zm28-16.07c-.34,0-.56-.07-.79-.07-5.34.14-10.68.3-16,.43a1.12,1.12,0,0,0-1.06.62L220,25.44a5.46,5.46,0,0,0-.26.67h.71c5.31-.15,10.62-.3,15.93-.42a1.42,1.42,0,0,0,1.29-.78q4.1-6.72,8.22-13.4c.11-.22.26-.46.43-.79Z"/>
        <path class="cls-1" d="M73,65.71l19.26.54,10.08,16.4h-1l-17.46-.46a1.34,1.34,0,0,1-1.27-.65c-3.13-5.15-6.3-10.28-9.46-15.42A2.86,2.86,0,0,1,73,65.71Zm1.37.87c.08.18.14.33.22.47l8.52,13.84a1.2,1.2,0,0,0,1.17.61l15.83.43a6,6,0,0,0,.89-.05c-.19-.35-.32-.63-.47-.88-2.69-4.38-5.41-8.74-8.06-13.14a1.8,1.8,0,0,0-1.72-1c-4.14-.07-8.29-.2-12.43-.29-1.27,0-2.53,0-3.92,0Z"/>
        <path class="cls-1" d="M53.92,65.77c-.21.36-.34.59-.48.81-3,4.93-6.07,9.86-9.08,14.8a1.5,1.5,0,0,1-1.36.87q-8.79.19-17.57.45h-.8c.18-.35.3-.62.45-.87L34.17,67a1.26,1.26,0,0,1,1.18-.78c6-.13,12-.32,18-.48Zm-28,16.16h1c5.24-.14,10.48-.3,15.72-.41A1.47,1.47,0,0,0,44,80.69q4-6.63,8.11-13.23c.17-.28.32-.58.54-1h-1c-5.24.14-10.48.29-15.72.41a1.49,1.49,0,0,0-1.38.83c-2.72,4.48-5.48,8.94-8.22,13.4-.12.22-.23.43-.46.83Z"/>
        <path class="cls-1" d="M247.7,54.82c-2.38,0-4.57-.09-6.76-.15-3.9-.11-7.8-.24-11.71-.33a1.31,1.31,0,0,1-1.23-.69q-4.6-7.55-9.25-15.06c-.11-.19-.19-.4-.35-.73h1.12l17.16.45a1.49,1.49,0,0,1,1.41.77q4.59,7.56,9.24,15.06C247.43,54.31,247.52,54.49,247.7,54.82Zm-1.35-.74a2.91,2.91,0,0,0-.22-.51q-4.27-7-8.54-13.93a1.15,1.15,0,0,0-1.08-.59c-5.38-.13-10.76-.29-16.14-.43a5.23,5.23,0,0,0-.68.07c.17.3.28.5.4.7,2.76,4.5,5.53,9,8.27,13.49a1.46,1.46,0,0,0,1.41.78c5.21.12,10.41.27,15.62.42.27,0,.55,0,1,0Z"/>
        <path class="cls-1" d="M53.88,166.46a4,4,0,0,1-.5.07c-6-.17-12.06-.35-18.08-.49-.67,0-.89-.39-1.16-.82l-7-11.38-2-3.24c-.18-.28-.33-.58-.55-1,.4,0,.69-.06,1,0,5.78.15,11.57.32,17.36.46a1.39,1.39,0,0,1,1.33.72q4.65,7.64,9.35,15.24C53.7,166.09,53.75,166.22,53.88,166.46Zm-1.33-.71c-.1-.22-.15-.38-.23-.52q-4.27-7-8.54-13.93a1.06,1.06,0,0,0-1-.54l-16.14-.44a5.52,5.52,0,0,0-.71.1c.2.37.35.63.51.89,2.6,4.23,5.19,8.47,7.81,12.69.94,1.52.44,1.31,2.41,1.36q7,.21,14,.39C51.24,165.77,51.84,165.75,52.55,165.75Z"/>
        <path class="cls-1" d="M150.8,166.54,131.52,166c-3.34-5.45-6.67-10.86-10.1-16.45h1.3l17.05.45a1.39,1.39,0,0,1,1.37.66c3.11,5.12,6.26,10.22,9.4,15.33C150.61,166.12,150.65,166.24,150.8,166.54Zm-28-16.09c.12.23.21.4.31.57,2.78,4.53,5.57,9,8.33,13.58a1.43,1.43,0,0,0,1.32.76l15.82.42a5.79,5.79,0,0,0,.83-.06c-.12-.25-.19-.41-.27-.55q-4.23-6.87-8.44-13.76a1.29,1.29,0,0,0-1.25-.66c-3.42-.09-6.85-.22-10.27-.29-2.05-.05-4.18,0-6.34,0Z"/>
        <path class="cls-1" d="M169.89,166.47l4.44-7.23c1.74-2.83,3.49-5.66,5.22-8.5a1.23,1.23,0,0,1,1.12-.72c6-.14,12.05-.31,18.08-.46a2.73,2.73,0,0,1,.4.05,5.28,5.28,0,0,1-.33.73q-4.6,7.49-9.2,15a1.29,1.29,0,0,1-1.21.73c-5.92.14-11.84.32-17.77.49C170.45,166.53,170.25,166.5,169.89,166.47Zm1.34-.69h1c5.21-.14,10.42-.3,15.62-.42a1.47,1.47,0,0,0,1.39-.8c2.71-4.45,5.45-8.88,8.17-13.32.16-.25.28-.52.46-.87a5.24,5.24,0,0,0-.89,0c-5.28.14-10.55.3-15.83.42a1.28,1.28,0,0,0-1.22.71q-4.12,6.76-8.28,13.49C171.53,165.18,171.42,165.42,171.23,165.78Z"/>
        <path class="cls-1" d="M247.66,166.47c-.3,0-.49.06-.68.06L229.21,166a1.22,1.22,0,0,1-1.17-.62c-3.12-5.12-6.27-10.22-9.4-15.33a4.54,4.54,0,0,1-.21-.45,5.51,5.51,0,0,1,.71-.08l17.67.46a1.24,1.24,0,0,1,1.18.62q4.71,7.71,9.46,15.41A4.11,4.11,0,0,1,247.66,166.47Zm-28-16.14c.14.29.18.42.25.53q4.26,6.91,8.49,13.84a1.29,1.29,0,0,0,1.27.65l15.83.43a7.56,7.56,0,0,0,.82-.07c-.13-.25-.2-.41-.29-.55-2.81-4.58-5.64-9.16-8.43-13.76a1.29,1.29,0,0,0-1.26-.65l-15.72-.42c-.24,0-.51,0-.93,0Z"/>
        <path class="cls-1" d="M73,278.17l.44-.78,9.12-14.79a1.54,1.54,0,0,1,1.45-.89c5.75-.12,11.5-.29,17.26-.45h1c-.16.34-.25.59-.38.81-3,5-6.1,9.91-9.13,14.88a1.47,1.47,0,0,1-1.39.8q-8.78.21-17.56.48C73.6,278.23,73.38,278.2,73,278.17Zm28-16.1a4.93,4.93,0,0,0-.87,0c-5.31.14-10.62.3-15.93.42a1.29,1.29,0,0,0-1.21.73q-4.12,6.76-8.28,13.49c-.13.22-.23.47-.39.78H75c5.35-.15,10.69-.31,16-.43a1.41,1.41,0,0,0,1.28-.82q3.88-6.36,7.8-12.7Z"/>
        <path class="cls-1" d="M150.77,278.18c-.3,0-.49.06-.69.05-5.92-.16-11.84-.34-17.77-.49a1.2,1.2,0,0,1-1.16-.62q-4.67-7.64-9.36-15.24c-.08-.14-.14-.29-.26-.54a5.87,5.87,0,0,1,.72-.08c5.89.15,11.78.32,17.67.46a1.28,1.28,0,0,1,1.18.62c3.14,5.15,6.31,10.28,9.46,15.41C150.63,277.86,150.67,278,150.77,278.18Zm-28-16.09c.14.26.23.44.33.61,2.79,4.55,5.6,9.1,8.38,13.66a1.3,1.3,0,0,0,1.25.7q8,.19,16,.43a2.52,2.52,0,0,0,.59-.05,1.19,1.19,0,0,0-.09-.36Q145,270,140.65,263a1,1,0,0,0-1-.51l-16-.43a5.9,5.9,0,0,0-.84,0Z"/>
        <path class="cls-1" d="M150.79,121.62c-.24.43-.4.72-.58,1-3,4.84-6,9.67-8.91,14.54a1.71,1.71,0,0,1-1.64.91c-5.75.13-11.5.31-17.25.47h-.9c.19-.36.31-.62.47-.87q4.55-7.39,9.08-14.8a1.41,1.41,0,0,1,1.29-.79c5.93-.14,11.85-.31,17.77-.47A3.05,3.05,0,0,1,150.79,121.62Zm-1.38.81a3.72,3.72,0,0,0-.57-.08q-8.16.23-16.33.43a1,1,0,0,0-.95.63l-8.44,13.74a4.77,4.77,0,0,0-.26.66h.72c5.31-.14,10.61-.3,15.92-.42a1.36,1.36,0,0,0,1.29-.79q4.1-6.71,8.23-13.39c.13-.21.23-.47.39-.78Z"/>
        <path class="cls-1" d="M218.4,261.26h1.12l17.16.45a1.41,1.41,0,0,1,1.36.68c3.11,5.12,6.26,10.22,9.4,15.32.06.11.11.24.2.45-.29,0-.51.06-.74.06-5.85-.16-11.7-.34-17.56-.49a1.36,1.36,0,0,1-1.34-.68q-4.6-7.55-9.24-15.06A7.11,7.11,0,0,1,218.4,261.26Zm1.3.77a5.05,5.05,0,0,0,.24.53c2.83,4.61,5.68,9.21,8.49,13.84a1.35,1.35,0,0,0,1.26.66c5.28.13,10.55.28,15.83.42a4.25,4.25,0,0,0,.83-.06c-.13-.26-.2-.41-.28-.55-2.82-4.59-5.64-9.16-8.44-13.76a1.3,1.3,0,0,0-1.25-.66c-5.21-.13-10.42-.28-15.62-.42Z"/>
        <path class="cls-1" d="M121.53,37.88h2.39c5.23.14,10.47.3,15.71.41a1.82,1.82,0,0,1,1.7,1c3,4.92,6,9.81,9,14.71.12.2.24.41.4.71a4.07,4.07,0,0,1-.7.1l-17.77-.49a1.14,1.14,0,0,1-1.1-.55q-4.71-7.71-9.46-15.41C121.67,38.26,121.63,38.13,121.53,37.88Zm1.27.75c.08.18.16.36.26.54L131.55,53a1.24,1.24,0,0,0,1.17.65c5.34.13,10.69.29,16,.43a4.08,4.08,0,0,0,.69-.09c-.1-.22-.15-.34-.22-.46-2.83-4.61-5.68-9.21-8.49-13.84a1.3,1.3,0,0,0-1.26-.64c-5.21-.13-10.42-.28-15.62-.42C123.55,38.62,123.25,38.63,122.8,38.63Z"/>
        <path class="cls-1" d="M73,54.83c.23-.4.35-.64.49-.86q4.5-7.35,9-14.72a1.71,1.71,0,0,1,1.63-1c5.65-.12,11.3-.29,16.94-.44h1.24c-.21.39-.33.66-.48.91l-9,14.71a1.56,1.56,0,0,1-1.45.87c-5.86.13-11.71.31-17.57.47Zm1.32-.75H75c5.34-.14,10.68-.3,16-.42a1.42,1.42,0,0,0,1.3-.79q4.07-6.66,8.17-13.31c.16-.25.29-.52.51-.89a6.59,6.59,0,0,0-1,0c-5.24.14-10.48.29-15.72.41a1.38,1.38,0,0,0-1.29.78c-2.71,4.45-5.45,8.88-8.17,13.32C74.68,53.39,74.55,53.66,74.32,54.08Z"/>
        <path class="cls-1" d="M53.92,54.82c-2.42,0-4.64-.09-6.86-.15-3.87-.11-7.74-.24-11.61-.33a1.32,1.32,0,0,1-1.24-.69c-3.06-5-6.16-10-9.24-15.06-.12-.19-.19-.41-.35-.73h1.12l17.15.45a1.49,1.49,0,0,1,1.41.77l9.24,15.07C53.65,54.31,53.73,54.49,53.92,54.82Zm-28-16.19.25.54q4.26,6.91,8.5,13.83a1.24,1.24,0,0,0,1.17.65c5.34.13,10.68.29,16,.43a4.08,4.08,0,0,0,.69-.09c-.1-.21-.15-.34-.22-.46-2.83-4.61-5.68-9.21-8.49-13.84a1.3,1.3,0,0,0-1.26-.64c-5.21-.13-10.42-.28-15.62-.42-.28,0-.59,0-1,0Z"/>
        <path class="cls-1" d="M24.58,194.36l.6-1c3-4.84,6-9.68,8.93-14.53a1.53,1.53,0,0,1,1.44-.88c5.82-.13,11.64-.31,17.46-.46h.89c-.16.28-.25.45-.35.61q-4.63,7.53-9.25,15.06a1.36,1.36,0,0,1-1.29.78c-5.86.14-11.72.31-17.57.46C25.21,194.41,25,194.38,24.58,194.36Zm1.36-.78c.34,0,.57.06.8.06,5.31-.15,10.61-.31,15.92-.43a1.31,1.31,0,0,0,1.22-.72Q48,185.74,52.16,179c.13-.22.24-.47.4-.79h-.69c-5.34.15-10.68.31-16,.43a1.4,1.4,0,0,0-1.28.81c-2.71,4.45-5.45,8.88-8.17,13.31A6.6,6.6,0,0,0,25.94,193.58Z"/>
        <path class="cls-1" d="M247.71,177.49c-1.93,3.15-3.78,6.15-5.62,9.16-1.31,2.13-2.64,4.24-3.92,6.39a1.6,1.6,0,0,1-1.54.91c-3.29.05-6.58.16-9.87.25l-7.19.19H218.4c.18-.36.29-.62.44-.87,3-5,6.1-9.92,9.13-14.88a1.31,1.31,0,0,1,1.22-.73c5.92-.14,11.84-.32,17.77-.48A6.32,6.32,0,0,1,247.71,177.49Zm-1.32.68h-.7l-16,.43a1.41,1.41,0,0,0-1.3.78c-2.74,4.5-5.51,9-8.27,13.49-.12.19-.23.4-.4.72h1c5.2-.14,10.41-.3,15.62-.41a1.54,1.54,0,0,0,1.44-.87q4-6.59,8.07-13.14C246,178.93,246.14,178.63,246.39,178.17Z"/>
        <path class="cls-1" d="M63.48,216.83c-.17-.25-.33-.51-.48-.77l-8.37-15.44a1.29,1.29,0,0,1,0-1.41c2.82-5.18,5.61-10.36,8.42-15.54.11-.2.25-.39.44-.68.22.37.39.66.55.95,2.72,5,5.43,10.07,8.18,15.08a1.6,1.6,0,0,1,0,1.78c-2.75,5-5.46,10-8.19,15.08Zm0-1.51c.16-.23.24-.33.31-.45q3.88-7.19,7.79-14.37a1.2,1.2,0,0,0-.08-1.32c-2.52-4.64-5-9.28-7.54-13.92-.13-.24-.28-.46-.48-.77-.21.36-.39.65-.55.95L55.54,199a1.68,1.68,0,0,0,0,1.87c2.48,4.51,4.91,9,7.36,13.56Z"/>
        <path class="cls-1" d="M160.35,216.86c-.22-.4-.4-.68-.56-1-2.72-5-5.43-10.06-8.18-15.08a1.6,1.6,0,0,1,0-1.78c2.75-5,5.46-10.05,8.19-15.07.16-.3.33-.59.56-1,.24.4.41.69.57,1,2.72,5,5.43,10.06,8.18,15.08a1.6,1.6,0,0,1,0,1.78c-2.75,5-5.46,10-8.18,15.08Zm0-32.38c-.16.26-.26.39-.34.54-2.58,4.76-5.15,9.53-7.75,14.28a1.22,1.22,0,0,0,.07,1.32q3.81,7,7.59,14c.11.21.25.4.43.68.19-.32.36-.57.5-.84,2.49-4.58,5-9.17,7.46-13.73a1.57,1.57,0,0,0,0-1.69c-2.48-4.54-4.93-9.09-7.4-13.64-.16-.26-.32-.52-.55-.92Z"/>
        <path class="cls-1" d="M53.91,110.67H52.78l-17.15-.46a1.51,1.51,0,0,1-1.44-.73c-3.07-5.07-6.19-10.1-9.29-15.15-.09-.14-.15-.3-.28-.55a7.74,7.74,0,0,1,.83-.07c5.82.16,11.64.33,17.46.47a1.49,1.49,0,0,1,1.41.77c3,5,6,9.87,9.07,14.8C53.55,110,53.69,110.27,53.91,110.67ZM25.83,94.47,35,109.37c2.67.34,16.62.62,17.49.34-.15-.27-.28-.54-.44-.79-2.69-4.38-5.39-8.75-8-13.14a1.71,1.71,0,0,0-1.64-.93c-4.83-.1-9.65-.25-14.48-.38C27.26,94.46,26.65,94.47,25.83,94.47Z"/>
        <path class="cls-1" d="M199.18,261.3c-.16.32-.26.57-.39.79q-4.57,7.44-9.13,14.88a1.42,1.42,0,0,1-1.3.78c-5.92.14-11.84.32-17.77.48H170a3.93,3.93,0,0,1,.3-.66l9.24-15.06a1.32,1.32,0,0,1,1.2-.77c5.92-.14,11.84-.31,17.77-.46A5.3,5.3,0,0,1,199.18,261.3Zm-28,16.18h1c5.21-.14,10.42-.29,15.62-.41a1.48,1.48,0,0,0,1.39-.81c2.71-4.45,5.45-8.88,8.17-13.32.16-.25.28-.52.46-.87a5.24,5.24,0,0,0-.89,0c-5.28.14-10.55.3-15.83.42a1.28,1.28,0,0,0-1.22.71q-4.12,6.76-8.28,13.5a7.68,7.68,0,0,1-.37.78Z"/>
        <path class="cls-1" d="M218.41,82.66c.19-.36.31-.63.46-.88L228,67a1.31,1.31,0,0,1,1.19-.77c6-.13,12-.31,18-.48h.5c-.12.25-.19.46-.3.64L238.1,81.43a1.33,1.33,0,0,1-1.21.77q-8.88.21-17.77.46C218.88,82.67,218.65,82.67,218.41,82.66Zm1.28-.78c.3,0,.43.06.57.06,5.44-.15,10.89-.31,16.33-.44a1.13,1.13,0,0,0,1-.67c2.79-4.56,5.59-9.1,8.39-13.66a5.79,5.79,0,0,0,.29-.68H245c-5,.13-10.06.29-15.1.39a1.74,1.74,0,0,0-1.63,1c-2.66,4.4-5.37,8.76-8.06,13.14A3.58,3.58,0,0,0,219.69,81.88Z"/>
        <path class="cls-1" d="M24.52,261.26h1.2l17.16.45a1.38,1.38,0,0,1,1.37.67c3.11,5.12,6.26,10.21,9.4,15.32.06.11.11.24.24.51-6.48-.12-12.86-.33-19.26-.52Zm28,16.22a4.55,4.55,0,0,0-.21-.51q-4.23-7-8.51-14a1.15,1.15,0,0,0-1.08-.58l-16-.43a6.85,6.85,0,0,0-.78.07l.4.7c2.76,4.49,5.53,9,8.27,13.49A1.5,1.5,0,0,0,36,277c5.11.12,10.21.27,15.31.4a7.54,7.54,0,0,0,1.23.05Z"/>
        <path class="cls-1" d="M257.23,216.82c-.22-.37-.38-.63-.53-.9-2.73-5.06-5.46-10.13-8.22-15.17a1.53,1.53,0,0,1,0-1.69q4.16-7.62,8.27-15.26c.13-.24.28-.46.47-.78.19.28.36.48.48.7l8.36,15.45a1.22,1.22,0,0,1,.1,1.32q-4.34,7.94-8.62,15.89C257.47,216.5,257.38,216.6,257.23,216.82Zm0-32.29c-.13.17-.22.27-.29.38-2.61,4.83-5.21,9.65-7.84,14.47a1.14,1.14,0,0,0,.1,1.23q3.83,7,7.65,14.1c.1.18.25.34.4.56a4.38,4.38,0,0,0,.28-.42c2.58-4.76,5.15-9.53,7.75-14.28a1.21,1.21,0,0,0,0-1.32c-2.55-4.67-5.07-9.34-7.6-14a4.27,4.27,0,0,0-.43-.72Z"/>
        <path class="cls-1" d="M121.47,194.36c.28-.47.46-.8.65-1.11,3-4.82,5.93-9.62,8.87-14.45a1.61,1.61,0,0,1,1.54-.89c5.78-.13,11.57-.31,17.36-.46h.91c-.17.3-.28.5-.4.69q-4.6,7.49-9.2,15a1.36,1.36,0,0,1-1.29.79c-5.85.14-11.71.31-17.56.46A7.41,7.41,0,0,1,121.47,194.36Zm1.27-.73h1c5.24-.14,10.48-.3,15.72-.41a1.47,1.47,0,0,0,1.38-.83q4-6.62,8.11-13.22c.17-.28.31-.58.52-1h-.72c-5.34.15-10.68.31-16,.43a1.41,1.41,0,0,0-1.28.82q-3.89,6.36-7.8,12.7Z"/>
        <path class="cls-1" d="M169.92,54.78c.16-.29.25-.46.35-.63,3.08-5,6.18-10,9.24-15.06a1.42,1.42,0,0,1,1.3-.78q8.79-.21,17.57-.46h.8q-.18.4-.39.78-4.56,7.45-9.14,14.89a1.25,1.25,0,0,1-1.18.78c-6,.14-12,.32-18,.49A1.42,1.42,0,0,1,169.92,54.78Zm1.29-.7h.71c5.34-.14,10.68-.3,16-.42a1.41,1.41,0,0,0,1.29-.79q4.09-6.72,8.23-13.4l.43-.79c-.37,0-.63-.06-.89-.06-5.28.14-10.55.3-15.83.42a1.4,1.4,0,0,0-1.28.79q-4.08,6.68-8.17,13.32c-.13.25-.26.52-.49.93Z"/>
        <path class="cls-1" d="M170,65.78h.59q9,.25,18,.49a1.06,1.06,0,0,1,1,.55L199,82.18a2.67,2.67,0,0,1,.2.46,4.8,4.8,0,0,1-.93,0c-5.79-.15-11.58-.31-17.37-.45a1.31,1.31,0,0,1-1.27-.64q-4.74-7.76-9.51-15.5A1.59,1.59,0,0,1,170,65.78Zm27.93,16.09c-.18-.34-.3-.61-.46-.86-2.71-4.41-5.43-8.8-8.11-13.23a1.64,1.64,0,0,0-1.56-.89c-5.13-.12-10.27-.27-15.41-.41h-1.07a4.68,4.68,0,0,0,.18.48q4.31,7,8.6,14a1.06,1.06,0,0,0,1,.53l16.14.44a5.17,5.17,0,0,0,.64-.06Z"/>
        <path class="cls-1" d="M73,177.44c2.47.05,4.77.09,7.06.15,3.76.11,7.53.24,11.3.32a1.48,1.48,0,0,1,1.4.77c3,4.95,6,9.88,9.07,14.81.15.25.27.52.48.91h-1.13L84,193.94a1.4,1.4,0,0,1-1.36-.67c-3.11-5.13-6.26-10.23-9.4-15.33A3.2,3.2,0,0,0,73,177.44Zm1.33.75c.16.32.24.5.34.67,2.8,4.56,5.61,9.1,8.38,13.67a1.32,1.32,0,0,0,1.25.68l15.82.42a6.65,6.65,0,0,0,.89-.06c-.19-.34-.31-.57-.45-.8-2.73-4.43-5.47-8.86-8.17-13.31a1.63,1.63,0,0,0-1.57-.87c-5.07-.11-10.14-.26-15.2-.4Z"/>
        <path class="cls-1" d="M121.49,82.66c.24-.42.38-.72.56-1,3-4.88,6-9.74,9-14.63a1.56,1.56,0,0,1,1.48-.82c5.78-.13,11.57-.31,17.36-.47h.93c-.17.32-.26.52-.38.71-3.06,5-6.14,10-9.19,15a1.39,1.39,0,0,1-1.27.82q-8.89.21-17.78.46C122,82.71,121.83,82.68,121.49,82.66Zm28-16.15h-.66q-8.06.22-16.13.43a1.32,1.32,0,0,0-1.21.75q-4.16,6.8-8.33,13.58a5.37,5.37,0,0,0-.31.69H124c5.1-.14,10.21-.3,15.31-.4a1.71,1.71,0,0,0,1.63-.93c2.64-4.37,5.33-8.71,8-13,.18-.38.33-.63.58-1.12Z"/>
        <path class="cls-1" d="M102.38,149.6,92.29,166l-19.24.53c.17-.34.26-.58.4-.8,3-5,6.1-9.91,9.13-14.88A1.48,1.48,0,0,1,84,150c5.82-.13,11.64-.3,17.46-.45C101.67,149.55,101.93,149.58,102.38,149.6Zm-1.35.77a3.92,3.92,0,0,0-.59-.05c-5.44.14-10.89.31-16.34.43-.6,0-.82.36-1.08.77l-8.23,13.4c-.15.24-.26.51-.42.83h.53c5.41-.15,10.83-.31,16.24-.43a1.32,1.32,0,0,0,1.2-.77q4.13-6.77,8.28-13.49a4.3,4.3,0,0,0,.38-.69Z"/>
        <path class="cls-1" d="M160.34,105.12c-.22-.37-.38-.63-.53-.9-2.73-5.06-5.46-10.13-8.22-15.17a1.57,1.57,0,0,1,0-1.69c2.78-5.08,5.52-10.17,8.28-15.26.13-.24.27-.46.47-.79.19.29.35.49.47.71l8.37,15.45a1.22,1.22,0,0,1,.1,1.32q-4.34,7.93-8.62,15.89C160.58,104.8,160.49,104.9,160.34,105.12Zm0-1.52a5.39,5.39,0,0,0,.33-.5c2.58-4.76,5.15-9.53,7.75-14.28a1.2,1.2,0,0,0,0-1.32q-3.81-7-7.59-14c-.12-.22-.29-.41-.47-.67-.2.33-.34.56-.47.8-2.48,4.58-5,9.17-7.45,13.74a1.51,1.51,0,0,0,0,1.68c2.5,4.57,5,9.16,7.45,13.74.16.21.32.5.51.81Z"/>
        <path class="cls-1" d="M257.23,105.12c-.22-.37-.38-.63-.52-.9-2.74-5.06-5.47-10.13-8.23-15.17a1.57,1.57,0,0,1,0-1.69c2.78-5.07,5.52-10.17,8.28-15.26.13-.24.28-.46.47-.79.17.23.33.47.48.71,2.78,5.14,5.57,10.3,8.36,15.44a1.22,1.22,0,0,1,.1,1.32q-4.34,7.93-8.62,15.9C257.47,104.79,257.38,104.9,257.23,105.12Zm0-32.34c-.16.25-.27.38-.35.53l-7.74,14.28a1.2,1.2,0,0,0,.05,1.32q3.84,7,7.65,14.1a5.89,5.89,0,0,0,.41.57c.18-.3.31-.5.42-.71,2.5-4.61,5-9.23,7.5-13.82a1.53,1.53,0,0,0,0-1.69c-2.5-4.57-5-9.16-7.45-13.74a7,7,0,0,0-.46-.84Z"/>
        <path class="cls-1" d="M199.2,194.36h-2.79c-5.1-.13-10.2-.29-15.31-.41a1.78,1.78,0,0,1-1.71-1c-2.94-4.86-5.94-9.7-8.91-14.54-.18-.28-.34-.57-.56-.94.27,0,.43-.07.59-.07l18,.49a1.15,1.15,0,0,1,1.06.62q4.69,7.67,9.41,15.32A1.61,1.61,0,0,0,199.2,194.36Zm-28-16.17c.15.32.23.5.33.67,2.8,4.55,5.61,9.1,8.38,13.66a1.32,1.32,0,0,0,1.24.69c5.28.13,10.55.28,15.83.42a6.65,6.65,0,0,0,.89-.06c-.21-.36-.35-.63-.5-.88-2.69-4.38-5.41-8.74-8.06-13.14a1.78,1.78,0,0,0-1.73-1c-4.89-.11-9.79-.26-14.69-.39-.47,0-1,0-1.65,0Z"/>
        <path class="cls-1" d="M111.94,133c-.26-.42-.43-.67-.57-.93-2.74-5.06-5.47-10.12-8.23-15.18a1.38,1.38,0,0,1-.06-1.5c2.81-5.14,5.59-10.3,8.38-15.45.11-.2.25-.39.48-.76l9.15,16.91Zm-8.37-17c.91,2.12,7.86,14.77,8.45,15.33l8.26-15.26-8.37-15.47Z"/>
        <path class="cls-1" d="M199.62,116.13l9.1-16.84a5.18,5.18,0,0,1,.47.58l8.46,15.64a1,1,0,0,1,.07,1.13q-4.36,8-8.68,16a2.52,2.52,0,0,1-.3.35Zm9.18,15.46c2.86-5.29,5.62-10.39,8.35-15.42-1.78-3.71-7.81-14.65-8.46-15.31l-8.26,15.27Z"/>
        <path class="cls-1" d="M15,99.16c3.11,5.76,6.12,11.32,9.18,17l-9,16.74c-.61-.61-8.18-14.39-9.27-16.83Zm8.37,17L15,100.66l-8.34,15.4c.85,2,7.86,14.75,8.45,15.34,2.76-5.08,5.5-10.13,8.28-15.27Z"/>
        <path class="cls-1" d="M208.84,210.93c3.11,5.74,6.12,11.32,9.14,16.9l-9.12,16.87c-.18-.23-.35-.48-.51-.73L200,228.52a1.21,1.21,0,0,1,0-1.32q4.26-7.8,8.47-15.63A3.59,3.59,0,0,1,208.84,210.93Zm0,32.37,8.34-15.42c-1.38-3-7.88-14.8-8.47-15.29q-4.12,7.65-8.24,15.25Z"/>
        <path class="cls-1" d="M112,211c3.08,5.68,6.09,11.25,9.12,16.85-3,5.59-6,11.16-9.11,16.83a5,5,0,0,1-.46-.57q-4.23-7.81-8.47-15.64a1,1,0,0,1-.06-1.13q4.37-8,8.67-16A2.5,2.5,0,0,1,112,211Zm-8.4,16.79c1.07,2.44,7.86,14.77,8.45,15.32l8.26-15.26-8.37-15.46Z"/>
        <path class="cls-1" d="M15,244.71,5.83,227.83,14.94,211a3.14,3.14,0,0,1,.42.48l8.51,15.72a1,1,0,0,1,.06,1.14q-4.32,7.93-8.62,15.9A4.76,4.76,0,0,1,15,244.71Zm0-1.41c2.87-5.32,5.62-10.4,8.37-15.47-2.79-5.14-5.53-10.21-8.37-15.46-2.87,5.28-5.61,10.36-8.37,15.46Z"/>
        <path class="cls-1" d="M15,266.82c.23.39.39.65.54.92,2.72,5,5.43,10.07,8.18,15.09a1.49,1.49,0,0,1,0,1.69c-.61,1-1.14,2-1.68,3.07-.21.38-.45.6-1,.29.58-1.09,1.12-2.19,1.76-3.24a1.64,1.64,0,0,0,0-1.87c-2.48-4.5-4.91-9-7.36-13.55-.14-.26-.31-.51-.52-.87-.2.3-.36.5-.49.73-2.49,4.6-5,9.22-7.5,13.81a1.43,1.43,0,0,0,0,1.61c.51.84,1,1.73,1.43,2.61.13.26.25.53.38.81a.58.58,0,0,1-.81-.11.56.56,0,0,1-.09-.17c-.63-1.18-1.25-2.36-1.92-3.52-.29-.5,0-.85.2-1.23l5.52-10.21c.92-1.69,1.83-3.38,2.75-5.06A2.62,2.62,0,0,0,15,266.82Z"/>
        <path class="cls-1" d="M111.93,268.29c-.26.42-.42.66-.57.93-2.44,4.52-4.87,9-7.35,13.55a1.61,1.61,0,0,0,0,1.87c.63,1.05,1.17,2.15,1.76,3.24-.44.26-.71.17-.91-.2-.65-1.21-1.3-2.42-2-3.61-.23-.41,0-.72.15-1.05l2.49-4.61,5.73-10.57c.16-.3.33-.59.56-1a4.21,4.21,0,0,1,.44.58c2.81,5.18,5.6,10.36,8.43,15.53a1.27,1.27,0,0,1,0,1.42c-.6,1-1.16,2.1-1.72,3.16-.2.37-.42.63-1,.35.46-.87.93-1.73,1.38-2.6,1.06-2,1.08-1.22,0-3.2-2.26-4.23-4.56-8.44-6.84-12.66A6.56,6.56,0,0,0,111.93,268.29Z"/>
        <path class="cls-1" d="M208.81,266.78c.24.41.38.64.51.88,2.74,5.07,5.46,10.13,8.23,15.18a1.46,1.46,0,0,1,0,1.69c-.59,1-1.09,2-1.62,3-.19.35-.38.67-.94.43a3.89,3.89,0,0,1,.22-.6c.54-1,1.09-2.06,1.66-3.08a1,1,0,0,0,.07-1L209,268.67l-.2-.38c-.23.36-.39.57-.51.8-2.5,4.6-5,9.22-7.5,13.81a1.43,1.43,0,0,0,0,1.61c.64,1.09,1.21,2.21,1.84,3.37-.41.24-.69.22-.89-.16-.68-1.23-1.36-2.46-2-3.71a1,1,0,0,1,.06-.76,11.82,11.82,0,0,1,.67-1.27l7.67-14.19A9.29,9.29,0,0,0,208.81,266.78Z"/>
      </g>
    </g>
  </g>
</svg>
