<?xml version="1.0" encoding="UTF-8" standalone="no"?>
<!DOCTYPE svg PUBLIC "-//W3C//DTD SVG 20010904//EN"
              "http://www.w3.org/TR/2001/REC-SVG-20010904/DTD/svg10.dtd">

<svg xmlns="http://www.w3.org/2000/svg"
     width="166.931mm" height="47.0899mm"
     viewBox="0 0 631 178">
  <path id="logo"
        fill="none" stroke="black" stroke-width="1"
        d="M 0.00,50.00
           C 0.22,48.74 0.12,47.83 0.99,46.70
             2.85,44.28 13.65,41.82 17.00,40.86
             17.00,40.86 68.00,25.86 68.00,25.86
             68.00,25.86 130.00,8.00 130.00,8.00
             137.33,5.89 154.34,0.03 161.00,0.03
             167.10,0.03 186.80,6.52 194.00,8.58
             194.00,8.58 261.00,28.28 261.00,28.28
             261.00,28.28 305.00,41.14 305.00,41.14
             310.93,42.82 318.80,43.09 320.00,50.00
             320.00,50.00 278.00,38.42 278.00,38.42
             278.00,38.42 196.00,14.58 196.00,14.58
             196.00,14.58 161.43,4.93 161.43,4.93
             161.43,4.93 147.00,8.29 147.00,8.29
             147.00,8.29 119.00,16.29 119.00,16.29
             119.00,16.29 54.00,35.28 54.00,35.28
             54.00,35.28 22.00,45.00 22.00,45.00
             22.00,45.00 26.00,45.00 26.00,45.00
             26.00,45.00 26.00,108.00 26.00,108.00
             20.13,106.97 21.01,104.26 21.00,99.00
             21.00,99.00 21.00,45.00 21.00,45.00
             21.00,45.00 0.00,50.00 0.00,50.00 Z
           M 587.00,16.00
           C 584.93,15.39 583.93,15.26 582.23,13.69
             581.12,12.67 580.27,11.40 579.74,10.00
             576.18,0.68 588.79,-4.54 587.83,8.00
             587.83,8.00 587.00,16.00 587.00,16.00 Z
           M 448.00,16.00
           C 451.02,5.73 462.06,1.00 472.00,1.00
             476.97,1.00 482.07,0.61 484.00,6.00
             477.87,5.72 469.85,3.76 464.00,6.00
             457.01,8.65 455.18,13.89 448.00,16.00 Z
           M 553.11,2.00
           C 561.91,3.45 565.81,14.00 562.98,17.38
             560.31,20.56 554.28,15.78 553.11,9.00
             553.11,9.00 553.11,2.00 553.11,2.00 Z
           M 598.00,24.00
           C 599.98,14.69 607.79,9.21 617.00,9.00
             616.27,18.05 606.43,23.78 598.00,24.00 Z
           M 484.00,13.00
           C 487.43,7.90 495.71,9.70 496.00,21.00
             496.00,21.00 484.00,13.00 484.00,13.00 Z
           M 446.00,33.00
           C 446.00,33.00 448.65,27.58 448.65,27.58
             448.65,27.58 449.67,23.00 449.67,23.00
             451.60,17.07 456.31,15.33 462.00,15.00
             462.00,15.00 452.00,26.00 452.00,26.00
             452.00,26.00 464.00,26.00 464.00,26.00
             464.00,26.00 464.00,29.00 464.00,29.00
             464.00,29.00 446.00,33.00 446.00,33.00 Z
           M 535.00,16.00
           C 541.03,17.43 545.13,19.23 548.00,25.00
             539.93,28.73 532.29,25.99 535.00,16.00 Z
           M 428.00,30.00
           C 429.04,22.55 432.83,19.89 440.00,18.62
             444.20,17.88 447.30,17.64 449.00,22.00
             438.62,22.09 432.91,24.44 428.00,34.00
             412.57,33.52 416.15,37.76 405.00,43.00
             406.91,31.19 418.32,30.00 428.00,30.00 Z
           M 586.00,22.00
           C 593.89,23.85 600.35,28.25 603.52,36.00
             605.59,41.07 605.01,44.81 604.27,50.00
             602.27,64.01 596.60,73.81 581.00,74.00
             571.78,74.11 560.00,74.66 552.00,69.30
             548.79,67.15 545.57,63.63 544.15,60.00
             541.44,53.08 542.72,37.70 548.21,32.33
             552.42,28.21 567.14,22.30 573.00,21.16
             573.00,21.16 583.00,21.16 583.00,21.16
             579.91,25.00 572.72,25.26 568.00,26.48
             561.39,28.19 555.40,32.07 551.74,38.00
             547.39,45.04 552.34,57.76 559.02,61.77
             564.13,64.85 568.44,64.41 574.00,64.08
             576.68,63.93 579.36,64.11 582.00,63.47
             589.94,61.54 595.61,54.02 595.96,46.00
             596.14,41.99 595.27,33.38 593.15,30.05
             590.80,26.38 588.53,26.67 586.00,22.00 Z
           M 492.00,27.00
           C 498.67,28.76 501.23,32.39 496.00,38.00
             500.14,40.42 500.51,42.41 501.00,47.00
             501.00,47.00 491.96,40.74 491.96,40.74
             491.96,40.74 479.00,40.00 479.00,40.00
             482.30,34.91 489.77,35.52 495.00,37.00
             494.32,32.90 494.07,32.77 491.00,30.00
             491.00,30.00 491.00,28.00 491.00,28.00
             491.00,28.00 492.00,27.00 492.00,27.00 Z
           M 578.33,29.11
           C 585.48,27.46 585.65,34.17 582.57,35.37
             580.09,36.33 574.47,33.56 578.33,29.11 Z
           M 611.00,40.00
           C 612.79,33.92 617.14,31.04 623.00,29.10
             625.22,28.37 629.20,27.39 630.34,30.30
             632.37,35.47 622.53,38.73 619.00,39.48
             616.23,40.08 613.80,39.99 611.00,40.00 Z
           M 558.00,33.00
           C 558.00,33.00 566.00,33.00 566.00,33.00
             565.73,34.87 565.46,37.95 564.07,39.36
             559.75,43.73 558.09,35.60 558.00,33.00 Z
           M 539.00,43.99
           C 536.05,44.72 528.09,45.99 525.60,43.99
             523.05,41.92 524.40,35.54 530.02,36.47
             532.44,36.88 536.66,39.70 539.00,41.00
             539.00,41.00 539.00,43.99 539.00,43.99 Z
           M 382.00,50.00
           C 377.40,47.63 374.94,42.83 380.23,39.44
             382.32,38.10 385.58,37.49 388.00,37.00
             388.00,37.00 389.00,38.00 389.00,38.00
             389.00,38.00 389.00,40.00 389.00,40.00
             384.68,41.73 383.29,41.71 381.00,46.00
             392.17,50.16 379.24,56.22 374.00,57.00
             374.99,51.06 376.76,51.68 382.00,50.00 Z
           M 391.00,39.00
           C 394.92,41.01 395.29,41.68 396.00,46.00
             400.45,46.26 401.42,46.21 404.00,50.00
             410.15,47.44 416.58,46.25 419.00,54.00
             419.00,54.00 415.00,54.00 415.00,54.00
             415.00,54.00 415.00,57.00 415.00,57.00
             415.00,57.00 407.00,57.00 407.00,57.00
             407.00,57.00 407.00,54.00 407.00,54.00
             407.00,54.00 415.00,53.00 415.00,53.00
             403.53,50.21 407.31,55.35 396.02,49.57
             394.46,48.78 393.18,48.36 392.11,46.87
             391.21,45.62 390.37,41.61 390.00,40.00
             390.00,40.00 391.00,39.00 391.00,39.00 Z
           M 415.00,43.00
           C 418.33,38.00 426.62,38.99 432.00,39.00
             439.65,39.01 456.93,40.67 464.00,43.00
             464.00,43.00 464.00,45.00 464.00,45.00
             464.00,45.00 436.00,43.00 436.00,43.00
             436.00,43.00 415.00,43.00 415.00,43.00 Z
           M 502.00,40.00
           C 507.67,40.95 507.81,42.62 508.00,48.00
             503.86,46.45 503.08,44.09 502.00,40.00 Z
           M 509.00,43.00
           C 518.13,43.54 520.56,49.30 514.00,53.00
             514.00,53.00 509.00,43.00 509.00,43.00 Z
           M 471.00,44.00
           C 471.00,44.00 488.00,45.00 488.00,45.00
             488.00,45.00 488.00,48.00 488.00,48.00
             482.22,48.00 474.45,49.49 471.00,44.00 Z
           M 425.00,52.00
           C 427.98,42.10 441.60,43.97 445.00,50.00
             445.00,50.00 433.00,50.00 433.00,50.00
             433.00,50.00 438.00,50.00 438.00,50.00
             438.00,50.00 438.00,53.00 438.00,53.00
             434.15,52.99 431.61,53.88 430.00,50.00
             430.00,50.00 425.00,52.00 425.00,52.00 Z
           M 580.96,45.68
           C 585.05,45.42 587.09,47.99 584.96,51.79
             583.60,54.23 580.53,55.35 578.00,56.08
             574.37,57.12 568.50,58.60 565.02,56.82
             561.36,54.95 558.80,50.36 563.15,49.42
             565.08,48.98 567.61,50.06 571.00,49.42
             574.42,48.80 577.67,46.84 580.96,45.68 Z
           M 495.00,48.00
           C 495.00,48.00 510.00,50.00 510.00,50.00
             510.00,50.00 510.00,53.00 510.00,53.00
             504.74,53.00 497.12,53.88 495.00,48.00 Z
           M 631.00,48.21
           C 630.87,49.62 630.93,51.15 629.98,52.58
             627.81,55.84 614.73,58.47 611.61,55.99
             607.67,52.86 614.82,49.92 617.00,49.35
             617.00,49.35 622.00,48.21 622.00,48.21
             625.36,47.94 627.66,48.00 631.00,48.21 Z
           M 469.00,58.00
           C 470.18,51.12 474.61,51.17 480.00,54.00
             480.00,54.00 486.00,52.00 486.00,52.00
             483.90,58.14 481.03,56.01 476.00,56.42
             476.00,56.42 469.00,58.00 469.00,58.00 Z
           M 91.00,98.00
           C 93.35,92.48 98.15,86.99 101.71,82.00
             101.71,82.00 114.09,63.00 114.09,63.00
             116.05,60.08 120.12,54.14 124.00,54.08
             129.01,54.01 129.20,60.49 130.44,64.00
             133.33,72.18 138.79,85.23 143.90,92.00
             145.95,94.71 151.27,99.31 149.26,102.85
             146.93,106.93 142.82,105.34 140.09,102.85
             133.84,97.15 132.65,88.60 126.00,88.43
             122.39,88.34 108.71,91.19 106.09,93.31
             102.23,96.45 99.28,103.26 95.02,104.00
             93.52,104.27 91.99,103.48 90.58,103.36
             84.58,102.84 86.67,106.26 76.00,99.34
             73.66,97.82 65.54,92.38 63.14,92.41
             58.65,92.48 58.95,109.68 52.43,103.38
             50.51,101.30 51.82,96.62 52.43,94.00
             53.08,88.84 54.32,71.57 56.31,68.15
             58.23,64.85 64.01,62.88 62.72,74.00
             62.72,74.00 62.00,83.00 62.00,83.00
             62.00,83.00 75.00,71.02 75.00,71.02
             76.69,69.42 79.27,66.65 81.85,67.05
             85.77,67.67 84.21,71.92 82.68,74.00
             79.32,78.57 74.06,82.52 69.00,85.00
             77.22,92.47 81.33,93.74 91.00,98.00 Z
           M 522.00,65.00
           C 522.90,56.59 527.27,51.04 536.00,55.00
             533.72,61.52 528.45,63.79 522.00,65.00 Z
           M 226.00,65.20
           C 227.11,72.88 232.05,85.36 236.38,92.00
             238.08,94.61 243.27,99.59 241.26,102.68
             239.50,105.37 236.44,104.44 234.46,102.68
             230.22,98.91 228.70,92.09 222.00,92.34
             218.96,92.46 211.57,93.80 209.18,95.58
             206.11,97.87 204.56,102.31 200.96,103.27
             197.99,104.07 195.41,101.77 190.00,101.17
             186.26,100.76 178.00,101.75 174.00,102.29
             169.88,102.84 158.81,106.74 155.79,103.26
             154.27,101.14 155.20,94.61 155.79,92.00
             155.79,92.00 158.87,67.00 158.87,67.00
             159.28,64.04 159.93,57.71 162.01,55.58
             164.55,52.96 168.28,55.11 169.39,58.06
             170.39,60.74 169.12,65.19 168.61,68.00
             168.61,68.00 167.13,78.00 167.13,78.00
             167.13,78.00 165.00,95.00 165.00,95.00
             165.00,95.00 191.00,92.22 191.00,92.22
             191.00,92.22 199.70,92.22 199.70,92.22
             199.70,92.22 214.66,72.00 214.66,72.00
             214.66,72.00 220.21,65.20 220.21,65.20
             220.21,65.20 226.00,65.20 226.00,65.20 Z
           M 383.00,55.00
           C 383.00,55.00 398.00,55.00 398.00,55.00
             394.96,59.54 387.89,58.00 383.00,58.00
             383.00,58.00 383.00,55.00 383.00,55.00 Z
           M 474.00,67.07
           C 467.62,68.81 460.50,68.06 454.00,67.07
             451.24,66.76 447.24,66.20 448.66,62.19
             449.97,58.46 463.21,55.22 467.00,55.00
             464.67,61.05 456.23,61.56 451.00,64.00
             451.00,64.00 474.00,65.00 474.00,65.00
             474.00,65.00 474.00,67.07 474.00,67.07 Z
           M 474.00,58.00
           C 474.00,58.00 489.00,59.00 489.00,59.00
             489.00,59.00 489.00,62.00 489.00,62.00
             484.00,62.00 476.17,63.55 474.00,58.00 Z
           M 388.00,67.00
           C 390.04,60.62 396.93,60.28 399.00,66.00
             399.00,66.00 388.00,67.00 388.00,67.00 Z
           M 618.00,76.00
           C 613.01,77.17 608.28,76.80 604.15,73.35
             602.39,71.89 600.79,69.63 602.08,67.31
             603.21,65.28 605.94,65.01 608.00,65.21
             614.42,65.82 616.90,70.25 618.00,76.00 Z
           M 516.00,77.00
           C 516.00,77.00 503.00,78.96 503.00,78.96
             500.00,79.08 492.93,79.12 491.66,75.70
             490.01,71.29 497.01,68.97 500.00,67.60
             503.61,65.95 512.48,66.90 514.95,70.40
             515.95,71.82 515.88,75.21 516.00,77.00 Z
           M 122.00,68.00
           C 117.94,71.76 114.68,76.72 113.00,82.00
             113.00,82.00 127.00,80.00 127.00,80.00
             127.00,80.00 122.00,68.00 122.00,68.00 Z
           M 361.00,75.00
           C 361.15,73.23 361.04,71.26 362.59,70.03
             364.21,68.74 375.55,67.61 377.41,69.02
             378.61,69.94 378.57,70.77 379.00,72.00
             360.94,72.00 372.07,71.94 361.00,75.00 Z
           M 387.00,68.00
           C 387.00,68.00 396.00,68.00 396.00,68.00
             393.50,71.73 391.15,70.98 387.00,71.00
             387.00,71.00 387.00,68.00 387.00,68.00 Z
           M 534.00,83.00
           C 534.09,73.30 535.07,68.28 546.00,68.00
             545.90,76.42 543.04,81.95 534.00,83.00 Z
           M 513.00,73.00
           C 513.00,73.00 505.85,70.38 505.85,70.38
             505.85,70.38 494.00,75.00 494.00,75.00
             501.33,75.00 506.13,76.37 513.00,73.00 Z
           M 368.00,73.00
           C 368.00,73.00 376.00,74.00 376.00,74.00
             376.00,74.00 376.00,77.00 376.00,77.00
             376.00,77.00 368.00,77.00 368.00,77.00
             368.00,77.00 368.00,73.00 368.00,73.00 Z
           M 221.00,76.00
           C 221.00,76.00 215.00,86.00 215.00,86.00
             215.00,86.00 224.00,85.00 224.00,85.00
             224.00,85.00 221.00,76.00 221.00,76.00 Z
           M 596.00,75.00
           C 596.00,75.00 599.02,80.00 599.02,80.00
             599.49,81.08 599.71,81.82 599.84,83.00
             601.03,93.98 586.32,86.19 592.17,77.31
             593.30,75.60 594.27,75.57 596.00,75.00 Z
           M 548.00,91.00
           C 548.50,85.01 549.63,78.09 556.00,76.00
             556.90,83.35 556.85,89.55 548.00,91.00 Z
           M 573.30,77.17
           C 573.48,77.15 574.35,76.52 575.72,77.17
             579.09,78.76 581.33,90.76 577.72,92.93
             575.15,94.47 573.20,92.08 572.23,89.95
             570.43,86.01 570.16,80.27 573.30,77.17 Z
           M 369.00,93.00
           C 359.94,90.77 354.08,91.01 345.00,91.00
             345.00,91.00 330.00,90.00 330.00,90.00
             330.00,90.00 314.00,90.00 314.00,90.00
             307.73,89.92 293.50,88.61 288.00,86.10
             285.97,85.17 279.87,81.66 282.13,78.60
             283.13,77.30 284.82,77.99 286.02,78.60
             291.35,81.12 289.27,82.43 299.00,84.08
             315.89,86.95 335.72,85.97 353.00,86.00
             358.41,86.01 374.32,86.09 374.05,94.00
             373.93,97.66 368.13,103.93 371.18,109.98
             375.41,118.40 389.73,118.99 398.00,119.04
             398.00,119.04 410.00,119.04 410.00,119.04
             410.00,119.04 422.00,120.00 422.00,120.00
             422.00,120.00 455.00,121.84 455.00,121.84
             467.27,123.15 484.28,125.68 495.00,131.88
             507.00,138.82 502.55,147.51 513.01,153.77
             518.61,157.13 529.45,157.51 536.00,158.17
             536.00,158.17 566.00,162.80 566.00,162.80
             569.98,163.64 580.77,166.12 582.98,169.41
             583.83,170.67 583.77,171.63 584.00,173.00
             577.75,172.35 572.02,169.41 566.00,167.74
             566.00,167.74 549.00,164.43 549.00,164.43
             538.81,162.95 518.19,163.06 510.00,158.59
             497.53,151.77 502.79,139.73 487.00,133.71
             460.08,123.43 423.61,124.04 395.00,124.00
             384.67,123.98 366.82,121.95 365.19,109.00
             364.46,103.22 366.83,98.16 369.00,93.00 Z
           M 381.00,86.00
           C 381.00,86.00 383.00,86.00 383.00,86.00
             384.14,90.00 383.68,94.51 386.43,97.89
             392.40,105.23 405.49,104.51 414.00,105.09
             414.00,105.09 426.00,106.00 426.00,106.00
             425.24,107.34 425.20,108.04 423.71,108.98
             421.23,110.54 410.42,110.04 407.00,110.00
             393.40,109.84 372.67,103.98 381.00,86.00 Z
           M 460.00,108.00
           C 460.00,108.00 484.00,108.00 484.00,108.00
             499.14,108.02 532.57,112.93 546.00,119.32
             559.63,125.80 554.92,131.61 563.21,139.79
             568.54,145.05 577.88,145.70 585.00,147.00
             584.45,148.58 584.45,149.57 582.69,150.40
             579.03,152.12 565.35,148.55 562.00,146.30
             551.65,139.34 554.60,128.92 543.00,123.33
             530.74,117.41 503.98,114.04 490.00,112.96
             490.00,112.96 481.00,112.96 481.00,112.96
             481.00,112.96 462.31,111.40 462.31,111.40
             460.53,110.54 460.56,109.61 460.00,108.00 Z
           M 17.00,119.00
           C 17.00,119.00 316.00,119.00 316.00,119.00
             316.00,119.00 316.00,123.00 316.00,123.00
             316.00,123.00 111.00,123.00 111.00,123.00
             111.00,123.00 49.00,123.00 49.00,123.00
             49.00,123.00 17.00,122.00 17.00,122.00
             17.00,122.00 17.00,119.00 17.00,119.00 Z
           M 246.63,135.05
           C 250.52,134.06 251.03,136.57 250.68,140.00
             249.77,148.99 248.23,148.40 248.00,161.00
             247.96,163.13 246.69,170.88 243.02,166.38
             241.61,164.66 242.00,158.35 242.00,156.00
             242.01,149.89 242.45,139.69 246.63,135.05 Z
           M 313.16,135.17
           C 316.76,134.77 317.07,136.67 316.66,140.00
             316.07,144.82 313.06,151.03 313.51,160.00
             313.63,162.37 314.10,169.39 309.39,167.38
             306.54,166.16 306.96,160.56 307.01,158.00
             307.15,151.87 308.47,139.12 313.16,135.17 Z
           M 203.00,162.00
           C 202.93,164.07 201.73,171.92 198.02,167.38
             196.68,165.74 196.97,161.06 197.17,159.00
             197.17,159.00 200.15,139.06 200.15,139.06
             202.11,134.49 205.35,135.40 205.99,138.15
             206.76,139.78 206.03,143.25 205.99,145.00
             205.99,145.00 205.00,152.00 205.00,152.00
             206.97,150.43 210.54,147.39 212.98,146.87
             215.12,146.41 217.41,147.46 216.66,149.97
             216.09,151.89 210.70,156.38 209.00,158.00
             209.00,158.00 218.00,163.00 218.00,163.00
             218.54,156.54 220.35,150.90 226.09,147.15
             229.78,144.73 235.46,144.49 237.35,149.30
             238.57,152.16 236.66,155.84 237.35,159.91
             237.61,162.06 238.93,164.07 238.29,165.77
             237.58,167.65 233.58,169.89 232.00,163.00
             226.25,167.05 223.18,168.73 218.00,163.00
             217.00,175.02 207.63,165.30 203.00,162.00 Z
           M 341.00,136.00
           C 341.00,136.00 349.00,136.00 349.00,136.00
             349.00,136.00 346.00,140.00 346.00,140.00
             346.00,140.00 349.00,147.00 349.00,147.00
             349.00,147.00 353.00,144.00 353.00,144.00
             353.00,144.00 350.00,140.00 350.00,140.00
             350.00,140.00 363.00,144.74 363.00,144.74
             363.00,144.74 376.00,143.00 376.00,143.00
             374.27,148.22 368.31,153.68 363.00,155.00
             363.00,155.00 364.00,150.00 364.00,150.00
             364.00,150.00 359.00,149.00 359.00,149.00
             359.00,149.00 359.00,157.00 359.00,157.00
             359.00,157.00 348.00,158.00 348.00,158.00
             348.00,158.00 348.00,155.00 348.00,155.00
             344.76,155.88 335.82,158.74 334.02,161.41
             333.17,162.67 333.23,163.63 333.00,165.00
             328.78,164.03 326.24,161.52 330.31,157.85
             333.24,155.22 341.06,153.49 342.89,149.79
             344.45,146.61 341.39,143.03 341.00,136.00 Z
           M 386.00,136.00
           C 394.83,139.56 384.65,147.35 381.00,151.00
             381.00,151.00 389.00,153.67 389.00,153.67
             389.00,153.67 394.00,155.35 394.00,155.35
             395.72,155.99 400.46,157.74 398.84,160.30
             397.42,162.79 394.35,161.06 392.72,160.30
             386.96,156.94 378.13,156.29 377.45,150.96
             376.83,146.20 382.08,144.78 386.00,136.00 Z
           M 346.00,139.00
           C 346.00,139.00 345.00,139.00 345.00,139.00
             345.00,139.00 346.00,140.00 346.00,140.00
             346.00,140.00 346.00,139.00 346.00,139.00 Z
           M 49.00,158.00
           C 48.50,159.74 48.03,161.36 47.17,162.98
             39.96,176.49 34.92,157.08 35.03,151.00
             35.17,143.65 41.21,141.45 41.97,150.00
             42.27,153.36 42.17,153.58 43.00,157.00
             44.46,154.47 48.65,145.20 52.50,147.17
             54.20,148.04 55.96,154.80 57.00,157.00
             57.38,153.39 58.44,149.22 60.96,146.38
             62.34,144.92 65.35,143.55 66.19,146.38
             66.68,147.92 65.56,150.51 65.00,152.00
             63.53,155.87 60.68,168.19 55.09,166.34
             52.03,165.34 50.41,160.69 49.00,158.00 Z
           M 83.00,158.00
           C 81.50,160.63 78.99,166.47 75.95,167.26
             73.44,167.90 72.19,165.86 71.25,163.94
             69.48,160.37 67.56,152.99 68.15,149.02
             68.88,144.12 74.22,141.60 74.97,150.00
             75.27,153.36 75.17,153.58 76.00,157.00
             77.46,154.47 81.65,145.20 85.50,147.17
             87.20,148.04 88.96,154.80 90.00,157.00
             90.38,153.39 91.44,149.22 93.96,146.43
             96.13,144.05 99.09,144.08 99.36,147.15
             99.52,148.93 94.82,160.81 93.75,162.94
             92.95,164.56 91.97,166.37 89.88,166.37
             85.88,166.37 84.08,161.02 83.00,158.00 Z
           M 116.00,158.00
           C 116.00,158.00 112.38,163.94 112.38,163.94
             109.13,168.64 106.11,167.97 103.57,162.98
             101.78,159.48 100.49,152.00 101.13,148.11
             101.85,143.80 106.70,142.26 107.83,151.00
             108.24,154.18 108.06,154.69 109.00,158.00
             110.19,155.25 114.18,144.28 118.53,147.07
             120.74,148.49 121.35,154.43 122.00,157.00
             122.00,157.00 124.62,151.00 124.62,151.00
             125.52,148.97 128.31,143.34 131.44,145.17
             133.33,146.32 132.08,149.46 131.44,151.00
             129.66,155.86 125.05,173.46 118.36,162.94
             118.36,162.94 116.00,158.00 116.00,158.00 Z
           M 179.00,158.00
           C 178.50,159.74 178.03,161.36 177.17,162.98
             169.87,176.65 164.97,157.13 165.01,151.00
             165.07,142.39 170.75,142.42 171.27,150.00
             171.54,154.02 171.62,154.21 173.00,158.00
             173.84,155.06 177.94,144.73 182.40,147.17
             183.65,147.85 185.17,154.99 186.00,157.00
             186.69,154.07 189.93,142.71 194.66,145.17
             196.94,146.35 195.89,149.22 195.20,151.00
             195.20,151.00 192.69,157.00 192.69,157.00
             191.09,161.41 188.15,172.13 181.99,163.85
             181.99,163.85 179.00,158.00 179.00,158.00 Z
           M 281.00,178.00
           C 281.00,178.00 284.02,149.01 284.02,149.01
             285.24,142.49 288.97,143.52 291.00,149.01
             292.86,147.63 294.69,146.09 297.00,145.55
             307.24,143.16 305.21,155.86 301.36,160.96
             297.58,165.97 293.90,166.85 288.00,167.00
             288.00,167.00 287.00,178.00 287.00,178.00
             287.00,178.00 281.00,178.00 281.00,178.00 Z
           M 354.00,145.00
           C 354.00,145.00 353.00,145.00 353.00,145.00
             353.00,145.00 354.00,146.00 354.00,146.00
             354.00,146.00 354.00,145.00 354.00,145.00 Z
           M 152.00,145.66
           C 166.74,143.42 163.70,164.02 152.00,167.34
             145.68,169.13 141.93,163.84 142.56,158.00
             143.22,151.82 146.41,147.99 152.00,145.66 Z
           M 264.00,163.00
           C 262.36,164.29 261.03,165.53 259.00,166.26
             249.76,169.59 248.73,157.76 255.39,150.10
             258.75,146.23 266.62,142.39 269.40,149.11
             270.45,151.64 269.68,156.17 269.97,159.00
             270.18,160.92 271.45,164.03 270.72,165.68
             268.65,170.36 264.95,165.56 264.00,163.00 Z
           M 356.00,153.00
           C 356.00,153.00 349.00,148.00 349.00,148.00
             349.00,148.00 349.00,154.00 349.00,154.00
             349.00,154.00 356.00,153.00 356.00,153.00 Z
           M 155.00,151.00
           C 149.00,152.90 149.13,156.37 149.00,162.00
             154.78,158.79 154.92,157.33 155.00,151.00 Z
           M 232.00,151.00
           C 232.00,151.00 231.00,151.00 231.00,151.00
             231.00,151.00 232.00,152.00 232.00,152.00
             232.00,152.00 232.00,151.00 232.00,151.00 Z
           M 264.00,151.00
           C 264.00,151.00 263.00,151.00 263.00,151.00
             263.00,151.00 264.00,152.00 264.00,152.00
             264.00,152.00 264.00,151.00 264.00,151.00 Z
           M 298.00,151.00
           C 298.00,151.00 290.00,160.00 290.00,160.00
             295.35,158.41 296.86,156.37 298.00,151.00 Z
           M 205.00,152.00
           C 205.00,152.00 204.00,152.00 204.00,152.00
             204.00,152.00 205.00,153.00 205.00,153.00
             205.00,153.00 205.00,152.00 205.00,152.00 Z
           M 231.00,152.00
           C 231.00,152.00 229.00,152.00 229.00,152.00
             229.00,152.00 225.00,160.00 225.00,160.00
             228.71,157.18 229.48,156.43 231.00,152.00 Z
           M 263.00,152.00
           C 263.00,152.00 257.00,160.00 257.00,160.00
             261.32,157.83 262.00,156.68 263.00,152.00 Z
           M 363.00,158.00
           C 368.23,154.91 373.93,150.78 378.00,158.00
             378.00,158.00 377.00,159.00 377.00,159.00
             377.00,159.00 368.00,158.00 368.00,158.00
             368.00,158.00 373.00,169.00 373.00,169.00
             373.00,169.00 369.00,170.00 369.00,170.00
             369.00,170.00 363.00,158.00 363.00,158.00 Z
           M 134.00,166.00
           C 134.21,160.04 134.80,158.69 141.00,160.00
             139.61,164.57 138.67,165.23 134.00,166.00 Z
           M 274.60,160.04
           C 280.24,158.10 280.35,163.36 277.70,164.92
             275.27,166.36 271.72,164.25 274.60,160.04 Z" />
</svg>
