<svg xmlns="http://www.w3.org/2000/svg" viewBox="0 0 595.43 595.38" width="100%" height="100%" preserveAspectRatio="xMidYMid">
  <defs>
    <style>
      .cls-1{opacity:0.45;}.cls-2{opacity:0.19;}.cls-3{fill:#848383;fill-rule:evenodd;}
    </style>
  </defs>
  <title>
    TEKSTURA BALDA
  </title>
  <g id="Warstwa_2" data-name="Warstwa 2">
    <g id="Warstwa_1-2" data-name="Warstwa 1" class="cls-1">
      <g id="Warstwa_1-2-2" data-name="Warstwa 1-2">
        <g id="Layer_1" data-name="Layer 1" class="cls-2">
          <path class="cls-3" d="M595.29,30.61c-1.39-2.19-2.82-4.38-4.14-6.61a2.06,2.06,0,0,0-1.86-1.1q-17-.41-34-.89a7.55,7.55,0,0,0-.83.13,8.6,8.6,0,0,0,.52,1.3c5.77,9.42,11.58,18.83,17.34,28.25a2.51,2.51,0,0,0,2.38,1.39c6.86.12,13.74.33,20.67.49v1.7c-.83,0-1.68-.25-2.5-.27-6.31-.21-12.59-.39-18.89-.52a2.5,2.5,0,0,1-2.42-1.28q-9.82-16-19.68-31.81c0-.18-.17-.39-.31-.74a6.23,6.23,0,0,1,1.14-.23c12.4.33,24.61.68,36.91,1A2.68,2.68,0,0,1,592.14,23c1,1.61,2.07,3.14,3.08,4.71Z"/>
          <path class="cls-3" d="M595.29,310.82c-.91,0-1.82.25-2.73.29-5.87.17-11.74.36-17.63.48a2.82,2.82,0,0,0-2.73,1.47c-5.67,9.32-11.41,18.6-17.12,27.88-.26.45-.49,1-.88,1.72h2.06c10.77-.29,21.52-.62,32.29-.87a3,3,0,0,0,2.87-1.66c1.2-2.17,2.56-4.23,3.84-6.34v3c-1,1.66-2.06,3.29-3.12,5a2.57,2.57,0,0,1-2.54,1.42c-11.06.27-22.09.58-33.07.87h-4.84c.17-.44.37-.88.58-1.3,6.37-10.34,12.78-20.67,19.1-31.13a3,3,0,0,1,2.71-1.59c7.09-.12,14.16-.33,21.25-.52Z"/>
          <path class="cls-3" d="M595.29,79.93c-.91,0-1.82.27-2.73.29-5.87.18-11.74.37-17.63.47a2.88,2.88,0,0,0-2.73,1.49c-5.67,9.32-11.41,18.6-17.12,27.88-.26.46-.49,1-.88,1.72h2.06c10.77-.31,21.52-.62,32.29-.87a2.91,2.91,0,0,0,2.87-1.67c1.2-2.07,2.56-4.24,3.84-6.35v3c-1,1.67-2.06,3.31-3.12,5a2.62,2.62,0,0,1-2.54,1.43c-10.62.24-21.25.55-31.87.82h-6.1a13.47,13.47,0,0,1,.68-1.44l18.9-30.78a3.18,3.18,0,0,1,3-1.76c7-.12,14-.35,21-.51Z"/>
          <path class="cls-3" d="M595.29,492.38c-1.39-2.21-2.82-4.38-4.14-6.61a2.06,2.06,0,0,0-1.86-1.1l-34-.88a3.69,3.69,0,0,0-.81.12,6.59,6.59,0,0,0,.5,1.3c5.77,9.43,11.58,18.83,17.34,28.26a2.52,2.52,0,0,0,2.38,1.38c6.86.13,13.74.31,20.67.5V517c-.83-.1-1.68-.27-2.5-.29-6.31-.18-12.59-.37-18.89-.49a2.5,2.5,0,0,1-2.42-1.28Q561.83,499,552,483.14q-.18-.37-.33-.78a12.23,12.23,0,0,1,1.6-.17c12.09.31,24.18.67,36.27.95a3,3,0,0,1,2.85,1.72c.89,1.57,2,3,3,4.55Z"/>
          <path class="cls-3" d="M595.29,541.7c-.91.1-1.82.27-2.73.29-5.87.19-11.74.37-17.63.48a2.79,2.79,0,0,0-2.73,1.46c-5.67,9.32-11.41,18.61-17.1,27.89-.28.47-.51,1-.88,1.71h2.5c10.54-.29,21.08-.62,31.64-.85a3.3,3.3,0,0,0,3.21-1.86c1.13-2.06,2.45-4.13,3.72-6.2v3c-1.06,1.67-2.07,3.31-3.13,5a2.56,2.56,0,0,1-2.54,1.41c-10.62.25-21.25.58-31.87.84h-6.08a11.48,11.48,0,0,1,.56-1.24C558.6,563.3,565,553,571.33,542.49a2.9,2.9,0,0,1,2.71-1.57c7.09-.15,14.16-.36,21.25-.54Z"/>
          <path class="cls-3" d="M595.29,261.49c-1.39-2.19-2.82-4.38-4.14-6.6a2,2,0,0,0-1.86-1.09l-34-.91a4.58,4.58,0,0,0-.81.14,8.63,8.63,0,0,0,.5,1.31c5.77,9.4,11.58,18.8,17.34,28.25A2.52,2.52,0,0,0,574.7,284l20.67.5v1.72c-.91,0-1.82-.27-2.73-.31q-9.32-.27-18.6-.48a2.55,2.55,0,0,1-2.42-1.28q-9.74-15.93-19.53-31.83c0-.19-.17-.39-.33-.75a7.53,7.53,0,0,1,1.15-.22c12.4.33,24.62.68,36.92,1a2.71,2.71,0,0,1,2.52,1.53c.95,1.61,2.07,3.14,3.08,4.71Z"/>
          <path class="cls-3" d="M595.29,377.15c-1.29-2.06-2.65-4.13-3.85-6.34a2.94,2.94,0,0,0-2.87-1.68c-6.45-.1-12.88-.29-19.33-.47l-13.37-.37h-1.65c.43.8.74,1.42,1.09,2.06q8.4,13.65,16.76,27.33a3,3,0,0,0,2.86,1.67c5.45,0,10.91.25,16.35.41,1.34,0,2.66.21,4,.34v1.26c-7.09-.17-14.16-.38-21.25-.52a2.7,2.7,0,0,1-2.61-1.39C565,388.87,558.49,378.33,552,367.77c-.14-.23-.24-.48-.47-.89a8.58,8.58,0,0,1,1.34-.14c12.24.33,24.5.7,36.73,1a2.82,2.82,0,0,1,2.69,1.61c.93,1.65,2.07,3.22,3,4.84Z"/>
          <path class="cls-3" d="M595.29,426.47l-20.4.5a2.69,2.69,0,0,0-2.61,1.38q-8.62,14.17-17.34,28.26c-.21.35-.35.72-.64,1.28.62,0,1,.16,1.4.16q16.68-.46,33.36-.89a2.34,2.34,0,0,0,2.2-1.3c1.28-2.17,2.68-4.28,4-6.43v3a48.18,48.18,0,0,0-2.84,4.38,3.33,3.33,0,0,1-3.39,1.9c-6.2.11-12.4.31-18.45.48l-16.77.45h-2.3c.41-.78.68-1.34,1-1.86,6.2-10.17,12.55-20.34,18.75-30.55a3,3,0,0,1,2.87-1.67c6.2,0,12.4-.29,18.6-.48a19.14,19.14,0,0,0,2.5-.29Z"/>
          <path class="cls-3" d="M595.29,146.28c-1.29-2.07-2.65-4.14-3.85-6.35a2.91,2.91,0,0,0-2.87-1.67c-6.51,0-13-.31-19.53-.48l-13.17-.39h-1.63a18,18,0,0,0,1,1.82c5.62,9.17,11.28,18.33,16.86,27.53a3,3,0,0,0,2.86,1.67c5.45,0,10.91.25,16.35.42,1.34,0,2.66.2,4,.31v1.28c-7.09-.19-14.16-.37-21.25-.52a2.78,2.78,0,0,1-2.61-1.38c-6.44-10.59-13-21.13-19.44-31.69a8.53,8.53,0,0,1-.45-.91,9.86,9.86,0,0,1,1.53-.12c12.11.33,24.2.7,36.31,1a3,3,0,0,1,3,1.8c.87,1.59,1.92,3.1,2.9,4.65Z"/>
          <path class="cls-3" d="M595.29,195.59l-20.4.5a2.69,2.69,0,0,0-2.61,1.38c-5.75,9.45-11.55,18.83-17.34,28.26-.21.35-.35.72-.64,1.28.62,0,1,.17,1.4.17l33.36-.91a2.36,2.36,0,0,0,2.2-1.28c1.28-2.07,2.68-4.3,4-6.43v3a50.1,50.1,0,0,0-2.84,4.36,3.32,3.32,0,0,1-3.39,1.93c-6.2,0-12.4.31-18.45.47l-16.77.46h-2.3c.41-.79.68-1.35,1-1.86,6.2-10.19,12.55-20.36,18.75-30.57a3,3,0,0,1,2.87-1.66c6.2,0,12.4-.29,18.6-.47.83,0,1.68-.21,2.5-.29Z"/>
          <path class="cls-3" d="M419.25,0l-4.88,9.3,17.21,31.81L448.8,9.3c-1.67-3.18-3.28-6.2-4.88-9.3h1.7l4.86,9.3L431.87,43.8c-1.22-1.2-17.13-30.18-19.05-34.6L417.53,0Z"/>
          <path class="cls-3" d="M18.72,0c-1.62,3.06-3.23,6.2-4.88,9.3L31,41.11,48.27,9.3,43.42,0h1.71L50,9.3,31.39,43.8C30.06,42.6,14.15,13.64,12.23,9.2,13.82,6.2,15.41,3.06,17,0Z"/>
          <path class="cls-3" d="M219,0c-1.61,3.06-3.22,6.2-4.88,9.3l17.22,31.81L248.54,9.3,243.64,0h1.71l4.86,9.3-18.6,34.5c-1.22-1.2-17.14-30.18-19.06-34.6,1.59-3.06,3.19-6.2,4.8-9.2Z"/>
          <path class="cls-3" d="M0,169.22H8.28a9.25,9.25,0,0,0-.44-1.14q-3.25-5.49-6.65-11a6.65,6.65,0,0,0-1.18-1v-3a5.26,5.26,0,0,1,1,1Q5.95,162,10.8,170a1.54,1.54,0,0,0,.23.58,37.55,37.55,0,0,1-11,0Z"/>
          <path class="cls-3" d="M0,400.12H8.28A9,9,0,0,0,7.84,399q-3.34-5.53-6.73-11A7.41,7.41,0,0,0,0,386.93v-3a5.26,5.26,0,0,1,1,1q4.92,7.94,9.78,15.89a5.48,5.48,0,0,1,.23.56,38.25,38.25,0,0,1-11,0Z"/>
          <path class="cls-3" d="M0,324a4.28,4.28,0,0,0,1.05-.89c2.38-3.82,4.74-7.67,7.07-11.49a5.66,5.66,0,0,0,.27-.79H0v-1.28L11.25,309c-.37.78-.53,1.24-.76,1.63-3.08,5-6.2,10-9.24,15A9.47,9.47,0,0,1,0,327Z"/>
          <path class="cls-3" d="M0,554.89c.35-.31.83-.54,1.05-.91q3.58-5.73,7.07-11.49a5.66,5.66,0,0,0,.27-.79H0v-1.28l11.22-.54a11.27,11.27,0,0,1-.64,1.47L1.15,556.67A8.54,8.54,0,0,1,0,557.86Z"/>
          <path class="cls-3" d="M0,93.12a4.15,4.15,0,0,0,1.05-.91q3.57-5.71,7.07-11.5a3.6,3.6,0,0,0,.27-.78H0V78.67l11.29-.56c-.5.93-.73,1.49-1.06,2.07q-4.4,7.23-8.87,14.46A13.35,13.35,0,0,1,0,96.19Z"/>
          <path class="cls-3" d="M0,515.35l8.41.51a5.44,5.44,0,0,0-.33-1.13Q4.58,509,1,503.21a6.9,6.9,0,0,0-1-.95V499.7c.29.19.68.29.83.54,3.45,5.56,6.88,11.12,10.43,16.88a23.13,23.13,0,0,1-5.76,0H0Z"/>
          <path class="cls-3" d="M0,208.76a7.87,7.87,0,0,0,1-1q3.6-5.76,7.08-11.57a8.06,8.06,0,0,0,.42-.95,53.64,53.64,0,0,0-8.5.35V193.9h11.1c-.23.43-.37.89-.62,1.26-3,4.92-6,9.86-9.07,14.76A11,11,0,0,1,0,211.32Z"/>
          <path class="cls-3" d="M0,53.57l8.41.52A5.26,5.26,0,0,0,8.09,53Q4.6,47.2,1,41.44a7.87,7.87,0,0,0-1-1V37.85c.29.16.68.26.83.51,3.45,5.56,6.88,11.25,10.54,17.08-4,0-7.69-.21-11.37-.17Z"/>
          <path class="cls-3" d="M0,439.66a7.17,7.17,0,0,0,1-1.06q3.59-5.72,7.07-11.51a5.39,5.39,0,0,0,.39-.93,49.93,49.93,0,0,0-8.47.31v-1.7H11.11c-.19.4-.31.77-.5,1.1Q6,433.32,1.42,440.79A9.4,9.4,0,0,1,0,442.2Z"/>
          <path class="cls-3" d="M0,284.45l8.41.54a5.71,5.71,0,0,0-.33-1.14Q4.58,278,1,272.32a6.75,6.75,0,0,0-1-1V268.7a4.57,4.57,0,0,1,1.07.89q4.92,7.95,9.84,16a2.79,2.79,0,0,1,.19.7c-3.74,0-7.42-.25-11.1-.16Z"/>
          <path class="cls-3" d="M331.44,101.86c-.47-.83-.82-1.35-1.11-1.9-5.71-10.52-11.37-21-17.1-31.57a2.65,2.65,0,0,1,0-2.91Q322.09,49.29,330.84,33c.17-.29.37-.58.66-1.06.38.56.71,1,.95,1.43l17.31,31.91a2.7,2.7,0,0,1,.14,2.94Q341,84.42,332.27,100.7A7.9,7.9,0,0,0,331.44,101.86Zm0-66.91c-.37.58-.64.89-.82,1.26q-8,14.68-15.92,29.33a2.54,2.54,0,0,0,0,2.73q7.94,14.48,15.81,29.14a12.68,12.68,0,0,0,.85,1.22c.25-.37.43-.57.58-.82Q340,83,348,68.11a2.45,2.45,0,0,0-.15-2.73q-5.44-10-10.83-20c-1.69-3.37-3.53-6.72-5.54-10.44Z"/>
          <path class="cls-3" d="M531.75,31.89c.45.79.78,1.33,1.09,1.88q8.46,15.69,17,31.36a3.13,3.13,0,0,1,0,3.47c-5.73,10.4-11.35,20.92-17,31.4-.31.55-.64,1.09-1.07,1.82a16.52,16.52,0,0,1-1-1.47L513.47,68.43a2.53,2.53,0,0,1-.19-2.74q8.93-16.38,17.8-32.85A9,9,0,0,1,531.75,31.89Zm0,66.89,1.11-1.9C538,87.47,543,78,548.16,68.66a3.37,3.37,0,0,0,0-3.68C543,55.6,538,46.18,532.84,36.77c-.29-.54-.64-1.07-1.05-1.78-.43.71-.79,1.22-1.08,1.78-5.12,9.47-10.21,18.95-15.39,28.4a3.09,3.09,0,0,0,0,3.47c5.14,9.39,10.21,18.81,15.29,28.22.29.55.6,1.09,1.12,1.92Z"/>
          <path class="cls-3" d="M131.22,493.73c.39.62.7,1.07,1,1.57,5.73,10.58,11.43,21.16,17.2,31.73a2.89,2.89,0,0,1,0,3.12q-8.74,16-17.41,32.1c-.18.37-.43.72-.76,1.26-.32-.39-.61-.79-.89-1.2L112.84,530a2.31,2.31,0,0,1-.14-2.52q9-16.53,17.92-33.07A5.51,5.51,0,0,1,131.22,493.73Zm0,66.76a17.21,17.21,0,0,0,1-1.74c5.13-9.46,10.34-19,15.42-28.4a3.16,3.16,0,0,0,0-3.49c-5.17-9.42-10.33-18.91-15.4-28.38-.29-.54-.64-1-1.05-1.69-.43.72-.77,1.26-1.08,1.82C125,508,120,517.44,114.8,526.82a3.4,3.4,0,0,0,0,3.68c5.17,9.36,10.21,18.79,15.31,28.19a13.75,13.75,0,0,0,1,1.8Z"/>
          <path class="cls-3" d="M531.73,493.64c.43.73.74,1.18,1,1.68q8.58,15.87,17.2,31.75a2.62,2.62,0,0,1,.14,2.91c-5.91,10.81-11.74,21.64-17.61,32.47-.16.31-.37.58-.68,1.08-.36-.46-.69-.94-1-1.43l-17.3-31.93a2.69,2.69,0,0,1-.11-2.92c5.92-10.79,11.74-21.64,17.61-32.47C531.21,494.47,531.38,494.18,531.73,493.64Zm0,3.08c-.46.79-.81,1.33-1.1,1.86-5.1,9.43-10.17,18.83-15.31,28.22a3.33,3.33,0,0,0,0,3.68c5.14,9.38,10.21,18.81,15.31,28.21.29.54.64,1.08,1.08,1.8a17.21,17.21,0,0,0,1-1.74c5.13-9.46,10.23-19,15.4-28.38a3.16,3.16,0,0,0,0-3.49c-5.21-9.51-10.34-19.06-15.5-28.58A13.78,13.78,0,0,0,531.73,496.72Z"/>
          <path class="cls-3" d="M131.16,101.86l-1.22-2.07c-5.6-10.33-11.16-20.67-16.83-31a3.37,3.37,0,0,1,0-3.68c5.67-10.34,11.27-20.67,16.91-31.17.33-.62.68-1.2,1.14-2.07.39.6.72,1,1,1.51q8.66,16,17.3,31.93a2.63,2.63,0,0,1,0,2.92Q140.66,84.36,132,100.51A6.54,6.54,0,0,1,131.16,101.86Zm0-3.14c.43-.69.78-1.18,1.07-1.72,5.13-9.47,10.34-19,15.4-28.4a3.2,3.2,0,0,0,0-3.49c-5.21-9.49-10.33-19-15.5-28.57-.27-.47-.6-.91-1-1.51-.44.71-.77,1.24-1.08,1.8-5,9.41-10.12,18.83-15.26,28.17a3.27,3.27,0,0,0,0,3.67c5.14,9.39,10.21,18.81,15.31,28.22C130.39,97.48,130.74,98,131.16,98.72Z"/>
          <path class="cls-3" d="M531.73,262.75c.47.8.8,1.34,1.09,1.9,5.67,10.44,11.31,20.92,17,31.35a3.15,3.15,0,0,1,0,3.48q-8.55,15.66-17,31.35c-.29.56-.64,1.1-1.07,1.84-.39-.6-.73-1-1-1.47l-17.3-31.91a2.71,2.71,0,0,1-.11-2.93q8.86-16.19,17.63-32.48A9.28,9.28,0,0,0,531.73,262.75Zm0,3.1c-.48.78-.81,1.32-1.1,1.86-5.1,9.4-10.17,18.83-15.31,28.21a3.33,3.33,0,0,0,0,3.68c5.12,9.32,10.14,18.6,15.21,28,.33.62.7,1.22,1.16,2.07.43-.71.78-1.22,1.07-1.76,5.13-9.47,10.23-19,15.4-28.4a3.17,3.17,0,0,0,0-3.47q-7.78-14.18-15.4-28.4C532.49,267.11,532.18,266.63,531.73,265.85Z"/>
          <path class="cls-3" d="M331.44,493.6c.46.79.83,1.39,1.16,2.07q8.46,15.69,17,31.36a2.82,2.82,0,0,1,.17,3.1q-8.81,16.11-17.51,32.28c-.21.37-.46.7-.83,1.26-.43-.76-.8-1.34-1.14-1.94-5.62-10.34-11.22-20.79-16.9-31.15a3.37,3.37,0,0,1,0-3.68c5.68-10.33,11.28-20.67,16.9-31.17Zm0,3.12c-.45.79-.76,1.27-1,1.76-5.13,9.47-10.23,19-15.4,28.4a3.16,3.16,0,0,0,0,3.49c5.17,9.43,10.33,18.92,15.4,28.4.29.52.64,1,1.05,1.72.44-.72.79-1.26,1.08-1.8,5.1-9.4,10.15-18.83,15.31-28.21a3.37,3.37,0,0,0,0-3.68c-5.14-9.39-10.21-18.81-15.31-28.22-.29-.45-.64-1.07-1.1-1.86Z"/>
          <path class="cls-3" d="M431.58,390.34c-.51-.85-.88-1.43-1.21-2.07q-8.39-15.5-16.81-31a3.4,3.4,0,0,1,0-3.7c5.64-10.34,11.2-20.67,16.81-31,.33-.59.7-1.17,1.17-2.06a13.25,13.25,0,0,1,.89,1.32l17.3,31.93a2.69,2.69,0,0,1,.15,2.94q-8.86,16.23-17.63,32.49A3.25,3.25,0,0,1,431.58,390.34Zm0-3.12c.44-.68.73-1.08,1-1.49,5.18-9.59,10.33-19.2,15.6-28.77a2.89,2.89,0,0,0,0-3.12q-7.77-14.26-15.5-28.57a16.36,16.36,0,0,0-1-1.46c-.35.53-.6.86-.79,1.21-5.23,9.66-10.44,19.33-15.71,28.94a2.85,2.85,0,0,0,0,3.12q7.74,14.16,15.4,28.38a13.29,13.29,0,0,0,1,1.76Z"/>
          <path class="cls-3" d="M331.44,262.77c.44.7.75,1.16,1,1.65q8.61,15.87,17.18,31.75a2.64,2.64,0,0,1,.19,2.91c-6,10.86-11.83,21.77-17.74,32.66a7.08,7.08,0,0,1-.58.85c-.33-.46-.64-.79-.86-1.18l-17.51-32.28a2.46,2.46,0,0,1,0-2.73q8.82-16.23,17.61-32.47C330.9,263.62,331.09,263.33,331.44,262.77Zm0,66.88c.48-.78.81-1.32,1.12-1.88,5.08-9.4,10.15-18.83,15.29-28.19a3.29,3.29,0,0,0,0-3.68c-5.14-9.38-10.21-18.81-15.29-28.21l-1.08-1.8c-.41.68-.76,1.2-1.05,1.74C325.3,277.09,320.2,286.58,315,296a3.22,3.22,0,0,0,0,3.5c5.17,9.44,10.33,18.93,15.4,28.4.31.49.58,1,1,1.75Z"/>
          <path class="cls-3" d="M31,89.68a16.12,16.12,0,0,1,1,1.72c5.7,10.52,11.37,21.06,17.11,31.56a3,3,0,0,1,0,3.31c-5.7,10.33-11.35,20.9-17,31.35-.29.56-.64,1.06-1.09,1.8-.44-.7-.79-1.2-1.08-1.73-5.66-10.46-11.37-20.94-17-31.38A3,3,0,0,1,13,123c5.64-10.56,11.41-21.16,17.13-31.75A16,16,0,0,0,31,89.68Zm0,66.62a11.61,11.61,0,0,0,.67-1q8-14.81,16-29.52a2.34,2.34,0,0,0,0-2.54c-5.33-9.77-10.6-19.55-15.89-29.33A9.61,9.61,0,0,0,31,93c-.39.64-.7,1.12-1,1.61-5.2,9.39-10.18,18.78-15.32,28.17a3.31,3.31,0,0,0,0,3.67c5.1,9.33,10.12,18.61,15.19,28,.33.54.68,1.06,1.13,1.82Z"/>
          <path class="cls-3" d="M231.32,89.7c.52.85.89,1.43,1.2,2.07,5.6,10.34,11.16,20.67,16.8,31a3.27,3.27,0,0,1,0,3.67c-5.64,10.34-11.2,20.67-16.8,31-.33.6-.7,1.2-1.18,2.07a14.67,14.67,0,0,1-.89-1.33q-8.65-16-17.32-31.95a2.73,2.73,0,0,1-.12-2.92q8.87-16.2,17.63-32.49A9.83,9.83,0,0,1,231.32,89.7Zm0,66.58c.33-.45.48-.62.58-.78Q240,140.6,248,125.79a2.34,2.34,0,0,0,0-2.54q-7.94-14.56-15.81-29.14a7.42,7.42,0,0,0-.89-1.12c-.27.41-.45.64-.58.87-5.29,9.8-10.56,19.57-15.91,29.33a2.86,2.86,0,0,0,.2,3.12q7.65,14.07,15.28,28.21a9.86,9.86,0,0,0,1,1.76Z"/>
          <path class="cls-3" d="M431.54,159.44c-.43-.74-.72-1.2-1-1.69l-17.11-31.56a2.87,2.87,0,0,1,0-3.13q8.67-15.93,17.32-31.93c.2-.39.49-.78.87-1.36.45.7.8,1.22,1.09,1.75q8.51,15.69,17,31.38a2.68,2.68,0,0,1,.27,2.93c-6,10.88-11.82,21.77-17.73,32.68C432,158.74,432,159,431.54,159.44Zm0-66.55c-.41.64-.72,1.07-1,1.55Q422.83,108.78,415,123a3,3,0,0,0,.1,3.33c5.13,9.38,10.19,18.79,15.3,28.19.29.54.64,1,1.07,1.76a15.42,15.42,0,0,0,1-1.55q7.72-14.31,15.54-28.65a3,3,0,0,0-.1-3.3c-5.13-9.39-10.19-18.81-15.3-28.22-.29-.45-.68-1-1.1-1.67Z"/>
          <path class="cls-3" d="M311.56,459.62h-2.34c-11.74-.33-23.5-.66-35.14-.93a3.44,3.44,0,0,1-3.3-1.9c-6.2-10.11-12.4-20.15-18.6-30.24-.34-.54-.65-1.07-1.06-1.82a7.06,7.06,0,0,1,1.45-.22l36.73,1a2.33,2.33,0,0,1,2.27,1.16q9.8,16,19.66,32A8.22,8.22,0,0,1,311.56,459.62ZM253.81,426.1c.27.56.37.87.54,1.15Q263.19,441.73,272,456a2.05,2.05,0,0,0,2.06,1.11l33.08.89a14.35,14.35,0,0,0,1.61-.12c-.27-.58-.44-1-.66-1.43-5.75-9.34-11.54-18.6-17.22-28.05a2.84,2.84,0,0,0-2.77-1.46l-32.06-.87Z"/>
          <path class="cls-3" d="M311.7,228.75h-2.17q-17.82-.5-35.67-.95a3.09,3.09,0,0,1-2.94-1.57q-9.48-15.61-19.1-31.13c-.2-.33-.37-.73-.66-1.28.58,0,1-.15,1.35-.15,12.25.33,24.49.7,36.75,1a2.61,2.61,0,0,1,2.52,1.45q9.59,15.69,19.22,31.31A13.54,13.54,0,0,1,311.7,228.75ZM308.87,227l-.76-1.45c-5.73-9.36-11.5-18.6-17.2-28a2.68,2.68,0,0,0-2.58-1.43l-32.7-.87h-1.78a8.34,8.34,0,0,0,.41,1q8.91,14.49,17.78,28.94a2.19,2.19,0,0,0,2.07,1.08l33.07.89a15.83,15.83,0,0,0,1.69-.15Z"/>
          <path class="cls-3" d="M131.16,262.77c.39.64.72,1.09,1,1.57q8.64,16,17.3,31.91a2.66,2.66,0,0,1,0,2.94c-5.83,10.66-11.6,21.39-17.41,32.1-.22.41-.51.8-.9,1.42-.46-.76-.81-1.34-1.14-2q-8.37-15.57-16.87-31a3.35,3.35,0,0,1,0-3.67c5.69-10.34,11.29-20.67,16.93-31.17A16.1,16.1,0,0,1,131.16,262.77Zm0,66.78c.27-.41.49-.7.66-1q8-14.76,16-29.52a2.56,2.56,0,0,0-.11-2.75q-7.94-14.46-15.81-29.14c-.21-.37-.52-.7-.85-1.18-.29.48-.49.77-.66,1.08-5.29,9.77-10.56,19.55-15.91,29.31a2.69,2.69,0,0,0,.1,2.93q7.82,14.34,15.59,28.77c.31.58.64.91,1,1.49Z"/>
          <path class="cls-3" d="M512,459.6h-3.5c-11.32-.31-22.63-.66-34-.89a3.89,3.89,0,0,1-3.69-2.17c-6-10-12.2-19.9-18.32-29.86-.35-.58-.66-1.18-1.11-2.07.7,0,1.15-.12,1.61-.1l36.31,1a2.86,2.86,0,0,1,2.75,1.47q9.49,15.58,19.08,31.12C511.39,458.53,511.57,458.86,512,459.6Zm-58-33.46,18.93,30.8c5.19.68,34.31,1.28,36.17.72-.31-.56-.6-1.12-.91-1.65-5.56-9-11.16-18.07-16.64-27.16a3.52,3.52,0,0,0-3.39-1.91c-10-.2-20-.53-29.92-.8Z"/>
          <path class="cls-3" d="M111.42,459.58h-4.74c-10.91-.31-21.8-.66-32.69-.87a3.89,3.89,0,0,1-3.7-2.17c-6.06-10-12.22-19.92-18.32-29.86a20.59,20.59,0,0,1-1.11-2.07c.7,0,1.15-.12,1.63-.1,12.17.33,24.33.7,36.5,1A2.66,2.66,0,0,1,91.51,427c6.2,10.33,12.67,20.67,19,31C110.8,458.4,111,458.86,111.42,459.58Zm-58-33.44,19,30.82c6.45.76,34.42,1.28,36.15.66-.27-.5-.51-1-.8-1.45C102.17,447.06,96.54,438,91,428.83a3.47,3.47,0,0,0-3.39-1.89c-10-.2-20-.53-29.92-.78-1.36,0-2.62,0-4.29,0Z"/>
          <path class="cls-3" d="M31,320.56l1.14,1.92c5.62,10.34,11.22,20.82,16.91,31.19a3.22,3.22,0,0,1,0,3.5c-5.73,10.33-11.37,20.91-17,31.37-.29.54-.64,1-1.08,1.76-.45-.73-.8-1.22-1.09-1.76C24.33,378.08,18.64,367.6,13,357.17a3.05,3.05,0,0,1,0-3.31c5.79-10.56,11.49-21.15,17.24-31.75A17.35,17.35,0,0,1,31,320.56Zm0,3.14c-.43.68-.72,1.08-1,1.49-5.18,9.59-10.33,19.2-15.6,28.77a2.89,2.89,0,0,0,0,3.12q7.78,14.26,15.5,28.57c.25.47.58.89,1,1.51.39-.62.66-1,.89-1.41,5.16-9.59,10.33-19.2,15.6-28.75a2.85,2.85,0,0,0,0-3.12c-5.13-9.39-10.19-18.81-15.3-28.22A10.66,10.66,0,0,0,31,323.7Z"/>
          <path class="cls-3" d="M231.34,320.64a23.49,23.49,0,0,1,1.18,2.07c5.6,10.33,11.16,20.67,16.8,31a3.33,3.33,0,0,1,0,3.68c-5.66,10.34-11.22,20.67-16.82,31-.33.6-.68,1.17-1.18,2.06-.39-.62-.72-1-1-1.48q-8.62-15.89-17.22-31.75a2.69,2.69,0,0,1-.14-2.94q8.81-16.12,17.5-32.3A8.36,8.36,0,0,1,231.34,320.64Zm0,3.14c-.35.52-.62.85-.81,1.2q-7.87,14.58-15.81,29.13a2.67,2.67,0,0,0,.15,2.93q7.74,14.26,15.48,28.59c.27.45.58.89,1,1.53.28-.39.54-.79.79-1.2,5.27-9.72,10.5-19.43,15.81-29.13a2.69,2.69,0,0,0-.13-2.93q-7.77-14.28-15.5-28.59c-.27-.47-.6-.8-1-1.53Z"/>
          <path class="cls-3" d="M151,482.21h3.43c11.27.31,22.51.67,33.75.89a4.14,4.14,0,0,1,3.91,2.19c6,10,12.19,19.93,18.29,29.87.37.58.66,1.2,1.12,2.07h-1.66l-36.21-1A2.64,2.64,0,0,1,171,515c-6.45-10.58-13-21.12-19.43-31.68A11.61,11.61,0,0,1,151,482.21Zm2.79,1.7c.37.7.62,1.26.93,1.78C160.35,494.86,166,504,171.6,513.2a3,3,0,0,0,2.87,1.67c10.68.23,21.37.56,32.06.85h2.29a8.46,8.46,0,0,0-.54-1.14q-8.84-14.46-17.65-28.77a2.06,2.06,0,0,0-2.06-1.14l-33.32-.88a8.78,8.78,0,0,0-1.45.12Z"/>
          <path class="cls-3" d="M50.75,55.39l6.33-10.33Q63.86,34,70.62,23a2.9,2.9,0,0,1,2.68-1.63l36.73-1a8.83,8.83,0,0,1,1.26,0,14.67,14.67,0,0,1-.74,1.55q-9.49,15.49-19,31a2.88,2.88,0,0,1-2.72,1.53c-12.09.29-24.21.66-36.3,1A17.64,17.64,0,0,1,50.75,55.39ZM108.63,22.1H107c-11,.28-22.09.62-33.07.86a2.51,2.51,0,0,0-2.31,1.45Q63,38.47,54.39,52.46a13.7,13.7,0,0,0-.74,1.59H55c11.12-.31,22.22-.62,33.34-.87a2.73,2.73,0,0,0,2.48-1.59q8.45-13.87,17-27.7c.25-.53.47-1,.89-1.79Z"/>
          <path class="cls-3" d="M150.9,20.44h2.33c11.76.31,23.5.66,35.14.93a3.58,3.58,0,0,1,3.41,1.9c6.2,10.17,12.4,20.28,18.6,30.43.27.45.52.95.91,1.63a9.81,9.81,0,0,1-1.53.17c-12.11-.33-24.2-.71-36.31-1a3,3,0,0,1-2.9-1.61c-6.2-10.33-12.56-20.5-18.87-30.75A5.84,5.84,0,0,0,150.9,20.44Zm2.83,1.72c.31.6.49,1.05.74,1.44C160.22,33,166,42.21,171.69,51.65a2.7,2.7,0,0,0,2.56,1.43q16.55.41,32.91.89h1.61a9.11,9.11,0,0,0-.43-1c-5.92-9.67-11.87-19.3-17.76-29a2.17,2.17,0,0,0-2.07-1.1c-11-.27-22.07-.6-33.07-.89a15.45,15.45,0,0,0-1.67.13Z"/>
          <path class="cls-3" d="M411.74,55.44H410.4c-12.24-.36-24.49-.73-36.73-1A2.6,2.6,0,0,1,371.13,53Q361.5,37.22,351.8,21.6a6.18,6.18,0,0,1-.41-.91,10.69,10.69,0,0,1,1.38-.21l36.53,1a2.8,2.8,0,0,1,2.62,1.37c6.43,10.58,12.94,21.12,19.43,31.66C411.33,54.65,411.49,54.92,411.74,55.44ZM409.26,54l-19-30.86c-6.78-.77-34.42-1.28-36.11-.66a4.17,4.17,0,0,0,.35.74c5.85,9.53,11.72,19,17.53,28.61a2.68,2.68,0,0,0,2.64,1.3L407,54Z"/>
          <path class="cls-3" d="M111.62,482.19l-3.32,5.46Q100.08,501,91.76,514.42a3.4,3.4,0,0,1-3.18,1.86c-12,.27-24.06.64-36.09,1H51a7.26,7.26,0,0,1,.4-1.22l19.32-31.5a3,3,0,0,1,2.81-1.41q12.84-.25,25.69-.64l9.76-.31ZM53.54,515.62a7.22,7.22,0,0,0,.93,0c11.33-.29,22.64-.62,34-.89a2.38,2.38,0,0,0,2.07-1.37q8.65-14.13,17.32-28.23a7.57,7.57,0,0,0,.58-1.45h-2.07c-10.77.29-21.51.6-32.28.85a2.86,2.86,0,0,0-2.67,1.59Q63,499.91,54.51,513.63A14.63,14.63,0,0,1,53.54,515.62Z"/>
          <path class="cls-3" d="M351.16,228.64l7.73-12.6Q365,206.17,371,196.32a2.68,2.68,0,0,1,2.42-1.66c12.4-.27,24.81-.64,37.21-1h1a7.16,7.16,0,0,1-.56,1.34q-9.54,15.57-19.1,31.13a2.75,2.75,0,0,1-2.5,1.57c-12.4.29-24.64.64-37,1A9,9,0,0,1,351.16,228.64ZM409,195.3h-.95q-17,.48-34,.89A2.4,2.4,0,0,0,372,197.6c-5.77,9.4-11.58,18.81-17.34,28.21a8.52,8.52,0,0,0-.56,1.45H356c10.83-.31,21.66-.62,32.49-.87a2.89,2.89,0,0,0,2.67-1.61q8.47-13.84,17-27.7c.27-.56.49-1.05.89-1.78Z"/>
          <path class="cls-3" d="M451.43,517.17c.31-.62.49-1.06.74-1.45q9.49-15.51,19-31a2.92,2.92,0,0,1,2.68-1.64q18.36-.43,36.73-1h1.22a11.14,11.14,0,0,1-.6,1.37q-9.57,15.56-19.1,31.12a2.84,2.84,0,0,1-2.72,1.51q-18.18.46-36.32,1A4.47,4.47,0,0,1,451.43,517.17Zm2.54-1.55c.66,0,.93.12,1.22.12,11.24-.31,22.49-.64,33.75-.89a2.53,2.53,0,0,0,2.28-1.55l17.11-27.86a15.42,15.42,0,0,0,.83-1.74l-36.17,1Z"/>
          <path class="cls-3" d="M451.43,193.8c.62,0,1-.13,1.42-.13q18.36.54,36.73,1A2.52,2.52,0,0,1,492,196q9.62,15.75,19.33,31.48c.16.29.31.62.58,1.13-.69,0-1.2.15-1.72.13-12-.31-24.08-.66-36.11-1a3.06,3.06,0,0,1-2.89-1.62q-9.4-15.43-18.87-30.77A11,11,0,0,1,451.43,193.8ZM509.07,227a12.2,12.2,0,0,0-.66-1.42c-5.74-9.35-11.51-18.61-17.22-28.05a2.83,2.83,0,0,0-2.76-1.47l-32.06-.87h-2.28c.25.54.36.87.52,1.14q8.82,14.46,17.67,28.77a2.08,2.08,0,0,0,2.07,1.14l33.34.89A9.2,9.2,0,0,0,509.07,227Z"/>
          <path class="cls-3" d="M511.93,251.38c-.44.79-.73,1.34-1,1.86l-18.6,30.4a3.25,3.25,0,0,1-3,1.76c-12,.27-24.06.64-36.09,1h-1.73a13.91,13.91,0,0,1,.68-1.4l19-31a2.87,2.87,0,0,1,2.64-1.67c12.4-.29,24.64-.64,37-1Zm-39,2.44c-6.2,10.33-12.58,20.5-19,31h1.4c11.19-.29,22.37-.62,33.55-.89a2.49,2.49,0,0,0,2.29-1.48l17.24-28c.23-.4.38-.85.71-1.59Z"/>
          <path class="cls-3" d="M411.74,286.27c-.7,0-1.18.12-1.63.12l-36.3-1a2.64,2.64,0,0,1-2.62-1.3c-6.45-10.58-13-21.13-19.43-31.67a8.25,8.25,0,0,1-.45-.95,11.9,11.9,0,0,1,1.69-.12c12,.31,24.06.66,36.11,1A3,3,0,0,1,392,254q9.45,15.51,19,31A6.29,6.29,0,0,1,411.74,286.27ZM409,284.8a4.7,4.7,0,0,0-.29-.82q-8.93-14.48-17.85-29.15a2.2,2.2,0,0,0-2.07-1l-33.07-.89a12.34,12.34,0,0,0-1.61.14c.45.83.76,1.43,1.11,2.07,5.52,9,11.08,17.94,16.54,27a3.52,3.52,0,0,0,3.37,2c10.12.2,20.23.53,30.36.8A28.28,28.28,0,0,1,409,284.8Z"/>
          <path class="cls-3" d="M211.52,286.39l-15-.35c-7.64-.2-15.29-.47-22.94-.66a2.87,2.87,0,0,1-2.75-1.47q-9.56-15.69-19.2-31.31a9.12,9.12,0,0,1-.58-1.12c.56,0,1-.18,1.45-.18l36.52,1a2.71,2.71,0,0,1,2.58,1.4l19.25,31.57C211.11,285.44,211.21,285.75,211.52,286.39Zm-2.75-1.55a9.4,9.4,0,0,0-.39-1q-8.91-14.46-17.78-28.94a2.06,2.06,0,0,0-2.07-1.09l-33.07-.89a14.35,14.35,0,0,0-1.61.12c.29.6.48,1,.72,1.45,5.73,9.34,11.52,18.6,17.2,28.05a2.92,2.92,0,0,0,2.79,1.45l32.06.84Z"/>
          <path class="cls-3" d="M351.39,482.19h2.06c11.89.31,23.77.67,35.66.93a3.43,3.43,0,0,1,3.2,1.86c6.2,10.34,12.4,20.4,18.77,30.59.27.42.5.85.85,1.47a12.14,12.14,0,0,1-1.47.23l-36.73-1a2.35,2.35,0,0,1-2.27-1.16q-9.73-15.94-19.53-31.85A7.15,7.15,0,0,1,351.39,482.19Zm57.87,33.49a7.76,7.76,0,0,0-.47-1q-8.84-14.46-17.68-28.77a2.35,2.35,0,0,0-2.23-1.2l-32.9-.88a15.09,15.09,0,0,0-1.78.16c.47.83.78,1.45,1.14,2.07,5.51,9,11.07,18,16.53,26.87a3.5,3.5,0,0,0,3.39,1.92c10.05.21,20.09.54,30.14.81Z"/>
          <path class="cls-3" d="M111.62,251.32l-7.71,12.52c-4.13,6.64-8.16,13.25-12.21,19.91A2.84,2.84,0,0,1,89,285.38c-12.23.29-24.49.66-36.73,1h-1.2a8.39,8.39,0,0,1,.58-1.38l19.1-31.13a2.89,2.89,0,0,1,2.71-1.55c5,0,9.92-.27,14.86-.39l20.81-.56A20.49,20.49,0,0,1,111.62,251.32ZM53.54,284.91l11-.38L88.1,284a2.82,2.82,0,0,0,2.61-1.39c5.72-9.45,11.53-18.83,17.3-28.23a9.53,9.53,0,0,0,.58-1.45h-1.91c-10.83.29-21.66.62-32.49.85a2.92,2.92,0,0,0-2.66,1.61c-5.61,9.2-11.25,18.33-16.87,27.51a19.24,19.24,0,0,0-1.2,2Z"/>
          <path class="cls-3" d="M211.6,193.77,203,207.87c-3.74,6.08-7.52,12.15-11.22,18.27a2.92,2.92,0,0,1-2.67,1.66c-12.23.29-24.49.64-36.73.95h-1.28c.29-.58.48-1.08.75-1.53,6.32-10.34,12.69-20.67,19-31a2.74,2.74,0,0,1,2.5-1.55q18.36-.43,36.73-1C210.42,193.67,210.84,193.73,211.6,193.77Zm-21.68,32.46c6.34-10.34,12.65-20.49,19-31h-1.17q-16.92.48-33.78.89a2.53,2.53,0,0,0-2.27,1.53q-8.56,14-17.12,27.86a18.75,18.75,0,0,0-.82,1.76Z"/>
          <path class="cls-3" d="M211.6,424.67c-3,4.86-5.74,9.39-8.53,13.89-3.79,6.2-7.59,12.3-11.33,18.48a2.88,2.88,0,0,1-2.67,1.63q-18.37.43-36.73,1h-1.28c.29-.6.48-1.09.75-1.55,6.32-10.33,12.69-20.67,19-31a2.85,2.85,0,0,1,2.71-1.53c12.09-.29,24.2-.66,36.29-1A13.41,13.41,0,0,1,211.6,424.67ZM208.91,426c-3.86.12-7.33.26-10.78.35-7.88.2-15.73.41-23.59.58a2.89,2.89,0,0,0-2.81,1.38c-5.72,9.45-11.53,18.83-17.3,28.26a10.22,10.22,0,0,0-.56,1.42h1.9c10.83-.29,21.67-.62,32.5-.85a2.89,2.89,0,0,0,2.66-1.63q8.43-13.86,17-27.7c.27-.45.52-1,1-1.81Z"/>
          <path class="cls-3" d="M251,517.17l4.75-7.75c5.05-8.27,10.11-16.4,15.11-24.62a3,3,0,0,1,2.67-1.66c12.4-.28,24.64-.64,36.93-1h1.08c-.27.58-.46,1.08-.73,1.53-6.32,10.34-12.69,20.67-19,31a2.85,2.85,0,0,1-2.71,1.53q-18.12.45-36.29,1A10.3,10.3,0,0,1,251,517.17Zm2.68-1.55q.6,0,1.2.12c11.25-.31,22.49-.64,33.76-.89a2.59,2.59,0,0,0,2.29-1.53q8.54-14,17.12-27.86c.26-.46.45-.95.82-1.76l-36.19,1Z"/>
          <path class="cls-3" d="M411.85,424.69l-1.93,3.16Q401,442.33,392,457a2.86,2.86,0,0,1-2.64,1.67c-12.4.29-24.62.64-36.94,1h-1.05a9.5,9.5,0,0,1,.56-1.32L371.17,427a2.4,2.4,0,0,1,2.07-1.39q18.6-.45,37.37-1A4,4,0,0,1,411.85,424.69Zm-2.63,1.49c-.74,0-1.07-.1-1.4-.1-11.19.31-22.37.64-33.55.89a2.58,2.58,0,0,0-2.32,1.5c-5.7,9.37-11.47,18.61-17.21,28a16.07,16.07,0,0,0-.71,1.59l36.17-1c6.29-10.25,12.55-20.42,19.06-30.94Z"/>
          <path class="cls-3" d="M131.2,147.33a23,23,0,0,1,1.13,2.07c5.65,10.33,11.25,20.79,16.93,31.17a3.33,3.33,0,0,1,0,3.68c-5.68,10.33-11.28,20.67-16.9,31.14-.34.62-.69,1.22-1.16,2.07-.48-.8-.83-1.38-1.16-2.07q-8.49-15.75-17-31.43a3,3,0,0,1,0-3.31c5.77-10.54,11.47-21.15,17.2-31.73C130.45,148.49,130.78,148,131.2,147.33Zm0,3.18c-.31.48-.56.81-.77,1.16Q122.5,166.33,114.52,181a2.54,2.54,0,0,0,0,2.75q7.94,14.48,15.81,29.14c.21.38.52.73.85,1.2.29-.47.49-.76.66-1.05,5.31-9.78,10.58-19.58,15.91-29.33a2.67,2.67,0,0,0,0-2.92c-5.23-9.59-10.33-19.2-15.58-28.79-.29-.47-.62-.93-1-1.49Z"/>
          <path class="cls-3" d="M251,55.39c2.38-3.9,4.55-7.46,6.74-11,4.38-7.13,8.76-14.22,13.1-21.37a2.92,2.92,0,0,1,2.67-1.64c12.4-.29,24.64-.64,37-1h1.06a15.27,15.27,0,0,1-.73,1.53l-19,31a2.67,2.67,0,0,1-2.5,1.55c-12.24.29-24.49.67-36.73,1A13.57,13.57,0,0,1,251,55.39Zm21.66-32.45L253.64,54h1.84q16.54-.47,32.91-.89a2.68,2.68,0,0,0,2.54-1.47c5.7-9.36,11.47-18.6,17.22-28,.27-.52.52-1.06.74-1.61Z"/>
          <path class="cls-3" d="M451.3,55.37l5.19-8.43c4.88-8,9.8-15.92,14.66-23.89a2.87,2.87,0,0,1,2.66-1.66c12.4-.29,24.62-.64,36.94-1a9.55,9.55,0,0,1,1.07,0c-.27.58-.45,1.08-.72,1.53l-19,31a2.66,2.66,0,0,1-2.48,1.55c-12.4.29-24.61.67-36.93,1A13,13,0,0,1,451.3,55.37Zm57.88-33.21c-.71,0-1.16-.15-1.64-.15-11,.29-22.07.62-33.07.89a2.32,2.32,0,0,0-2.19,1.28l-17.55,28.4A9.71,9.71,0,0,0,454.2,54h1.46c11-.31,22-.62,32.93-.87a3,3,0,0,0,2.67-1.61q8.44-13.89,17-27.7c.22-.45.53-.95.89-1.63Z"/>
          <path class="cls-3" d="M150.9,135.82l39.8,1.11,20.84,33.9h-2.07l-36.09-1a2.74,2.74,0,0,1-2.62-1.34q-9.7-16-19.55-31.87C151.09,136.39,151,136.1,150.9,135.82Zm2.83,1.8c.16.37.29.68.45,1Q163,153,171.79,167.22a2.49,2.49,0,0,0,2.42,1.26l32.72.89a12.61,12.61,0,0,0,1.84-.1c-.39-.72-.66-1.3-1-1.82-5.56-9-11.18-18.06-16.66-27.16a3.75,3.75,0,0,0-3.56-2.07c-8.55-.14-17.13-.41-25.69-.59h-8.13Z"/>
          <path class="cls-3" d="M111.46,135.94c-.44.75-.7,1.22-1,1.68-6.2,10.19-12.55,20.38-18.77,30.59a3.05,3.05,0,0,1-2.8,1.79q-18.17.41-36.32.94H50.92c.37-.73.62-1.29.93-1.8l18.79-30.66a2.63,2.63,0,0,1,2.44-1.61c12.4-.27,24.8-.66,37.2-1Zm-57.88,33.4h2.07c10.83-.29,21.66-.62,32.49-.84A3.07,3.07,0,0,0,91,166.78q8.28-13.71,16.77-27.34c.35-.58.66-1.2,1.11-2.07h-2.06c-10.83.29-21.66.6-32.5.85a3,3,0,0,0-2.85,1.71c-5.62,9.26-11.32,18.48-17,27.7-.25.45-.47.89-1,1.71Z"/>
          <path class="cls-3" d="M512,113.31c-4.92,0-9.45-.19-14-.31-8.07-.23-16.13-.5-24.21-.68a2.7,2.7,0,0,1-2.54-1.43q-9.51-15.6-19.12-31.13c-.23-.39-.39-.82-.72-1.51h2.31l35.47.93a3.09,3.09,0,0,1,2.92,1.6q9.48,15.61,19.09,31.12C511.43,112.25,511.62,112.63,512,113.31Zm-2.79-1.53a7.52,7.52,0,0,0-.46-1Q499.94,96.31,491.11,82a2.37,2.37,0,0,0-2.23-1.22c-11.12-.27-22.24-.6-33.36-.89q-.7,0-1.41.15c.36.62.58,1,.83,1.45q8.56,14,17.09,27.88A3,3,0,0,0,475,111c10.77.25,21.52.56,32.28.87h2Z"/>
          <path class="cls-3" d="M111.38,344.06a8.31,8.31,0,0,1-1,.15c-12.4-.36-24.92-.73-37.37-1-1.38,0-1.84-.8-2.4-1.69L56.11,318,52,311.28c-.37-.58-.68-1.2-1.13-2.07.82,0,1.42-.12,2.06-.1,12,.31,23.92.66,35.88.95a2.86,2.86,0,0,1,2.75,1.49q9.62,15.76,19.33,31.5A10.78,10.78,0,0,0,111.38,344.06Zm-2.75-1.47c-.21-.45-.31-.78-.48-1.07Q99.33,327,90.5,312.73a2.19,2.19,0,0,0-2.07-1.12l-33.36-.91a11.94,11.94,0,0,0-1.46.21c.41.76.72,1.3,1,1.84Q62.73,325.86,70.8,339c2,3.14.91,2.7,5,2.81q14.48.44,28.94.8C105.92,342.63,107.16,342.59,108.63,342.59Z"/>
          <path class="cls-3" d="M311.7,344.23l-39.85-1.12c-6.9-11.26-13.78-22.45-20.87-34h2.68l35.24.93a2.87,2.87,0,0,1,2.84,1.36c6.42,10.59,12.94,21.13,19.43,31.69C311.31,343.36,311.39,343.61,311.7,344.23ZM253.83,311c.25.47.43.83.64,1.18,5.75,9.36,11.51,18.6,17.22,28.07a3,3,0,0,0,2.73,1.57l32.69.87a14.07,14.07,0,0,0,1.72-.13c-.25-.52-.39-.85-.56-1.14Q299.52,327.2,290.83,313a2.65,2.65,0,0,0-2.59-1.36c-7.07-.19-14.16-.46-21.22-.6-4.24-.1-8.64,0-13.11,0Z"/>
          <path class="cls-3" d="M351.16,344.08l9.18-14.94c3.59-5.85,7.21-11.7,10.79-17.57a2.58,2.58,0,0,1,2.31-1.49c12.4-.29,24.91-.64,37.37-.95a7.53,7.53,0,0,1,.83.1,13.65,13.65,0,0,1-.68,1.51q-9.51,15.48-19,31a2.66,2.66,0,0,1-2.5,1.5c-12.24.29-24.47.67-36.73,1C352.32,344.21,351.9,344.14,351.16,344.08Zm2.77-1.42H356c10.77-.29,21.53-.62,32.28-.87a3.07,3.07,0,0,0,2.88-1.66c5.6-9.19,11.26-18.35,16.88-27.53.33-.51.58-1.07,1-1.8a11.3,11.3,0,0,0-1.84,0c-10.91.29-21.8.62-32.72.87a2.69,2.69,0,0,0-2.52,1.47q-8.5,14-17.11,27.88a11.3,11.3,0,0,0-.93,1.64Z"/>
          <path class="cls-3" d="M511.91,344.08c-.62,0-1,.13-1.41.13l-36.73-1a2.55,2.55,0,0,1-2.42-1.28c-6.45-10.58-13-21.12-19.43-31.68-.16-.31-.3-.62-.43-.93a10.51,10.51,0,0,1,1.47-.17l36.52,1a2.59,2.59,0,0,1,2.44,1.28q9.74,15.94,19.55,31.85C511.63,343.51,511.78,343.79,511.91,344.08ZM454,310.72c.29.6.37.87.52,1.1q8.81,14.28,17.55,28.6a2.7,2.7,0,0,0,2.62,1.35l32.72.89a16,16,0,0,0,1.7-.15c-.27-.52-.42-.85-.6-1.14-5.81-9.46-11.66-18.93-17.43-28.44a2.67,2.67,0,0,0-2.6-1.34L456,310.72h-2Z"/>
          <path class="cls-3" d="M150.9,575l.91-1.61q9.42-15.28,18.85-30.57a3.19,3.19,0,0,1,3-1.84c11.89-.25,23.77-.6,35.68-.93h2.06c-.33.7-.51,1.22-.78,1.67C204.41,552,198,562.16,191.74,572.44a3,3,0,0,1-2.87,1.65q-18.13.43-36.3,1C152.14,575.08,151.68,575,150.9,575Zm57.87-33.28a10.82,10.82,0,0,0-1.8,0c-11,.29-22,.62-32.92.87a2.67,2.67,0,0,0-2.51,1.51q-8.5,14-17.11,27.88c-.27.45-.48,1-.81,1.61H155c11.06-.31,22.1-.64,33.07-.89a2.88,2.88,0,0,0,2.65-1.69q8-13.15,16.12-26.25Z"/>
          <path class="cls-3" d="M311.64,575c-.62,0-1,.12-1.43.1-12.23-.33-24.47-.7-36.72-1a2.47,2.47,0,0,1-2.4-1.28q-9.66-15.8-19.35-31.5c-.16-.29-.29-.6-.54-1.12a10.61,10.61,0,0,1,1.49-.16q18.27.47,36.52,1a2.6,2.6,0,0,1,2.44,1.28c6.49,10.64,13.05,21.25,19.56,31.85A5.81,5.81,0,0,1,311.64,575Zm-57.87-33.26c.29.54.47.91.68,1.26,5.77,9.41,11.57,18.81,17.32,28.24a2.69,2.69,0,0,0,2.58,1.44q16.54.41,33.07.89a5.53,5.53,0,0,0,1.22-.1,2.42,2.42,0,0,0-.18-.75q-8.74-14.62-17.74-29.1a2.15,2.15,0,0,0-2.06-1l-33.07-.89a12.65,12.65,0,0,0-1.74.06Z"/>
          <path class="cls-3" d="M311.68,251.38c-.49.89-.82,1.49-1.2,2.07-6.2,10-12.4,20-18.41,30.05a3.52,3.52,0,0,1-3.39,1.88c-11.89.27-23.77.64-35.66,1h-1.86a19.56,19.56,0,0,1,1-1.8q9.41-15.27,18.77-30.59a2.88,2.88,0,0,1,2.67-1.63q18.38-.44,36.73-1A6.77,6.77,0,0,1,311.68,251.38Zm-2.85,1.67a9.3,9.3,0,0,0-1.18-.16q-16.86.48-33.75.89a2,2,0,0,0-2,1.3l-17.45,28.4a8.37,8.37,0,0,0-.54,1.36h1.49c11-.29,21.93-.62,32.91-.86a2.82,2.82,0,0,0,2.66-1.64q8.47-13.86,17-27.67c.27-.44.48-1,.81-1.62Z"/>
          <path class="cls-3" d="M451.43,540h2.31l35.47.93a2.9,2.9,0,0,1,2.81,1.4c6.43,10.58,12.94,21.13,19.43,31.67a9.7,9.7,0,0,1,.41.93c-.6,0-1.05.12-1.53.12-12.09-.33-24.18-.7-36.29-1a2.82,2.82,0,0,1-2.77-1.41q-9.51-15.6-19.1-31.13A14.06,14.06,0,0,1,451.43,540Zm2.68,1.59c.15.37.32.74.5,1.09,5.85,9.53,11.74,19,17.55,28.61a2.73,2.73,0,0,0,2.6,1.36c10.92.27,21.81.58,32.72.87a9.88,9.88,0,0,0,1.72-.12c-.27-.54-.42-.85-.58-1.14-5.83-9.49-11.66-18.93-17.45-28.44a2.7,2.7,0,0,0-2.58-1.36c-10.77-.27-21.54-.58-32.28-.87Z"/>
          <path class="cls-3" d="M251.2,78.3h4.94c10.81.28,21.64.62,32.48.84a3.76,3.76,0,0,1,3.51,2.07q9.3,15.26,18.6,30.4c.25.42.5.85.83,1.47a8.89,8.89,0,0,1-1.45.21l-36.73-1a2.35,2.35,0,0,1-2.27-1.14Q261.38,95.2,251.56,79.3C251.49,79.08,251.41,78.81,251.2,78.3Zm2.63,1.55a11.37,11.37,0,0,0,.54,1.11q8.78,14.28,17.54,28.59a2.56,2.56,0,0,0,2.42,1.34c11,.27,22.1.6,33.07.89a7.68,7.68,0,0,0,1.43-.19c-.21-.45-.31-.7-.45-1-5.85-9.53-11.74-19-17.55-28.6a2.69,2.69,0,0,0-2.61-1.33c-10.77-.27-21.53-.58-32.28-.86h-2.11Z"/>
          <path class="cls-3" d="M150.9,113.33c.47-.83.72-1.32,1-1.78q9.3-15.19,18.6-30.42a3.55,3.55,0,0,1,3.37-2.07c11.68-.25,23.36-.6,35-.91h2.57c-.44.81-.69,1.36-1,1.88q-9.3,15.19-18.6,30.41a3.2,3.2,0,0,1-3,1.79c-12.12.27-24.21.64-36.32,1Zm2.72-1.55h1.45c11-.29,22.08-.62,33.07-.87a2.94,2.94,0,0,0,2.69-1.63q8.41-13.77,16.89-27.51c.33-.52.6-1.08,1-1.84a11.93,11.93,0,0,0-2.07,0c-10.83.29-21.66.6-32.49.85a2.85,2.85,0,0,0-2.67,1.61c-5.6,9.2-11.26,18.35-16.88,27.53C154.37,110.35,154.1,110.91,153.62,111.78Z"/>
          <path class="cls-3" d="M111.46,113.31c-5,0-9.59-.19-14.18-.31-8-.23-16-.5-24-.68a2.7,2.7,0,0,1-2.56-1.43C64.39,100.56,58,90.22,51.62,79.76c-.25-.39-.39-.84-.72-1.51h2.31l35.45.93a3.07,3.07,0,0,1,2.91,1.6l19.1,31.14C110.9,112.25,111.07,112.63,111.46,113.31ZM53.58,79.85,54.1,81q8.81,14.28,17.57,28.59a2.55,2.55,0,0,0,2.42,1.34c11,.27,22.07.6,33.07.89a7.68,7.68,0,0,0,1.43-.19c-.21-.43-.31-.7-.46-1-5.85-9.53-11.74-19-17.55-28.6A2.69,2.69,0,0,0,88,80.71c-10.77-.27-21.54-.58-32.29-.86H53.58Z"/>
          <path class="cls-3" d="M50.82,401.73l1.24-2.07c6.2-10,12.4-20,18.45-30a3.14,3.14,0,0,1,3-1.82c12-.27,24.06-.64,36.09-.95h1.84c-.33.58-.52.93-.73,1.26l-19.14,31.1a2.81,2.81,0,0,1-2.66,1.61c-12.11.29-24.23.64-36.32.95C52.12,401.83,51.68,401.77,50.82,401.73Zm2.81-1.61c.7,0,1.17.12,1.65.12,11-.31,21.93-.64,32.91-.89a2.66,2.66,0,0,0,2.52-1.49q8.51-14,17.11-27.88c.27-.45.5-1,.83-1.63h-1.43c-11,.31-22.07.64-33.07.89a2.87,2.87,0,0,0-2.64,1.67c-5.61,9.2-11.27,18.35-16.89,27.51a13.7,13.7,0,0,0-1,1.7Z"/>
          <path class="cls-3" d="M512,366.86c-4,6.51-7.81,12.71-11.62,18.93-2.7,4.4-5.45,8.77-8.1,13.21a3.32,3.32,0,0,1-3.18,1.88c-6.8.1-13.6.33-20.4.52l-14.86.39h-2.42c.37-.74.6-1.28.91-1.8,6.2-10.33,12.61-20.5,18.87-30.75a2.68,2.68,0,0,1,2.52-1.51c12.24-.29,24.47-.66,36.73-1A13.31,13.31,0,0,1,512,366.86Zm-2.73,1.4h-1.45q-16.53.47-33.07.89a2.9,2.9,0,0,0-2.68,1.62q-8.5,14-17.1,27.88c-.25.39-.47.83-.82,1.49h2.06c10.75-.29,21.52-.62,32.29-.85a3.15,3.15,0,0,0,3-1.8q8.28-13.61,16.68-27.16c.28-.49.57-1.11,1.09-2.07Z"/>
          <path class="cls-3" d="M131.22,448.17a16.33,16.33,0,0,1-1-1.59l-17.3-31.91a2.67,2.67,0,0,1,0-2.92c5.83-10.7,11.59-21.41,17.4-32.12.23-.41.52-.8.91-1.4.45.76.81,1.36,1.14,2,5.62,10.34,11.22,20.81,16.9,31.17a3.33,3.33,0,0,1,0,3.68c-5.68,10.33-11.28,20.67-16.92,31.17C132,446.83,131.65,447.41,131.22,448.17Zm0-3.12c.33-.47.49-.68.64-.93q8-14.87,16.1-29.7a2.49,2.49,0,0,0-.16-2.73c-5.21-9.59-10.34-19.18-15.59-28.77-.27-.5-.58-.95-1-1.59-.44.74-.81,1.34-1.14,2-5.12,9.43-10.19,18.71-15.27,28a3.48,3.48,0,0,0,0,3.86c5.12,9.33,10.15,18.61,15.21,28Z"/>
          <path class="cls-3" d="M331.44,448.23c-.45-.82-.82-1.4-1.16-2.06-5.62-10.34-11.22-20.8-16.9-31.17a3.33,3.33,0,0,1,0-3.68c5.68-10.34,11.28-20.77,16.93-31.15.33-.62.68-1.22,1.15-2.07.5.83.85,1.43,1.18,2.07,5.62,10.33,11.22,20.79,16.91,31.17a3.37,3.37,0,0,1,0,3.68c-5.69,10.33-11.29,20.67-16.91,31.17C332.29,446.81,331.92,447.41,331.44,448.23Zm0-66.92c-.33.53-.54.8-.7,1.11l-16,29.52a2.49,2.49,0,0,0,.15,2.73q7.88,14.46,15.68,28.93c.23.44.52.83.89,1.41a18.71,18.71,0,0,0,1-1.74c5.14-9.46,10.23-18.95,15.41-28.38a3.16,3.16,0,0,0,0-3.49c-5.12-9.38-10.19-18.79-15.29-28.19-.33-.54-.66-1.08-1.14-1.9Z"/>
          <path class="cls-3" d="M111.44,228.75H109.1q-17.68-.5-35.45-.95a3.1,3.1,0,0,1-3-1.51c-6.35-10.48-12.8-20.88-19.2-31.32-.19-.29-.31-.62-.58-1.13a16.44,16.44,0,0,1,1.71-.15c12,.33,24.06.68,36.09,1a3.08,3.08,0,0,1,2.92,1.59c6.2,10.34,12.4,20.41,18.74,30.6A13.15,13.15,0,0,1,111.44,228.75Zm-58-33.49,19,30.8c5.52.7,34.35,1.28,36.15.7-.31-.56-.58-1.11-.91-1.63C102,216.08,96.45,207,91.06,198a3.53,3.53,0,0,0-3.39-1.92c-10-.21-20-.52-29.93-.79-1.39,0-2.65,0-4.34,0Z"/>
          <path class="cls-3" d="M411.7,540.09c-.33.66-.54,1.18-.81,1.63L392,572.48a2.92,2.92,0,0,1-2.68,1.61c-12.24.29-24.48.66-36.73,1h-1.26a9.79,9.79,0,0,1,.62-1.36q9.54-15.57,19.1-31.13a2.72,2.72,0,0,1,2.48-1.59q18.34-.43,36.72-1A13.9,13.9,0,0,1,411.7,540.09Zm-57.87,33.44h2.06c10.77-.29,21.54-.6,32.29-.85A3,3,0,0,0,391,571c5.6-9.2,11.27-18.35,16.89-27.53.33-.52.58-1.08,1-1.8a11.3,11.3,0,0,0-1.84,0c-10.91.29-21.81.62-32.72.87a2.65,2.65,0,0,0-2.48,1.46q-8.52,14-17.11,27.9c-.15.37-.38.87-.77,1.61Z"/>
          <path class="cls-3" d="M451.45,170.85c.39-.74.64-1.3.95-1.82q9.41-15.28,18.77-30.59a2.69,2.69,0,0,1,2.46-1.59c12.4-.27,24.8-.64,37.2-1h1a13.2,13.2,0,0,1-.62,1.32L492.12,168.3a2.78,2.78,0,0,1-2.51,1.59q-18.35.44-36.72,1A11.53,11.53,0,0,1,451.45,170.85Zm2.64-1.61c.62,0,.89.12,1.18.12,11.25-.31,22.51-.64,33.75-.91a2.32,2.32,0,0,0,2.07-1.38c5.77-9.43,11.56-18.81,17.34-28.23a12.43,12.43,0,0,0,.6-1.41h-2.62c-10.34.27-20.8.6-31.21.81a3.58,3.58,0,0,0-3.37,2.06c-5.5,9.1-11.1,18.11-16.66,27.16a7.69,7.69,0,0,0-1.08,1.78Z"/>
          <path class="cls-3" d="M50.69,540h2.48l35.47.93a2.87,2.87,0,0,1,2.83,1.38c6.43,10.58,12.94,21.1,19.43,31.67.12.22.23.49.5,1-13.4-.25-26.58-.68-39.81-1.07Zm57.88,33.52a8.92,8.92,0,0,0-.44-1q-8.75-14.41-17.59-28.88a2.37,2.37,0,0,0-2.23-1.2l-33.07-.89a14.38,14.38,0,0,0-1.61.15l.82,1.45c5.71,9.28,11.43,18.6,17.1,27.88a3.07,3.07,0,0,0,2.91,1.61c10.56.25,21.1.56,31.65.83a16.56,16.56,0,0,0,2.54.1Z"/>
          <path class="cls-3" d="M531.69,448.15c-.46-.76-.79-1.3-1.1-1.86-5.64-10.46-11.28-20.94-17-31.35a3.18,3.18,0,0,1,0-3.5q8.6-15.75,17.09-31.54c.27-.49.58-.95,1-1.61.39.58.74,1,1,1.45L550,411.67a2.51,2.51,0,0,1,.2,2.73q-9,16.41-17.81,32.84C532.18,447.49,532,447.7,531.69,448.15Zm0-66.74c-.27.35-.46.56-.6.79-5.4,10-10.77,19.94-16.21,29.9a2.38,2.38,0,0,0,.21,2.55q7.92,14.46,15.81,29.14c.21.37.52.7.83,1.16a10.11,10.11,0,0,0,.58-.87q8-14.76,16-29.52a2.49,2.49,0,0,0,0-2.72c-5.27-9.66-10.47-19.31-15.7-28.94a9.78,9.78,0,0,0-.89-1.49Z"/>
          <path class="cls-3" d="M251.08,401.73c.58-1,1-1.66,1.34-2.3,6.2-10,12.26-19.88,18.34-29.86a3.32,3.32,0,0,1,3.18-1.84c11.95-.27,23.91-.64,35.88-1h1.88c-.35.62-.58,1-.82,1.42q-9.51,15.47-19,31a2.87,2.87,0,0,1-2.67,1.63q-18.13.44-36.29,1A16.15,16.15,0,0,1,251.08,401.73Zm2.62-1.51h2.07c10.83-.29,21.66-.62,32.49-.85a3,3,0,0,0,2.86-1.71q8.26-13.7,16.76-27.33c.35-.58.64-1.2,1.07-2.07h-1.48c-11,.31-22.08.65-33.08.89a2.86,2.86,0,0,0-2.64,1.7q-8,13.14-16.12,26.25Z"/>
          <path class="cls-3" d="M351.22,113.23c.33-.6.52-1,.73-1.31,6.36-10.33,12.77-20.67,19.06-31.12a3,3,0,0,1,2.69-1.62q18.17-.44,36.32-1h1.65a17.48,17.48,0,0,1-.81,1.62Q401.47,95.24,392,110.62a2.58,2.58,0,0,1-2.44,1.61c-12.4.29-24.8.67-37.2,1A3.18,3.18,0,0,1,351.22,113.23Zm2.67-1.45h1.47c11-.29,22.07-.62,33.07-.87a2.87,2.87,0,0,0,2.66-1.63q8.46-13.89,17-27.7L409,80c-.76,0-1.3-.13-1.84-.13-10.91.29-21.8.62-32.72.87a2.86,2.86,0,0,0-2.64,1.64q-8.43,13.8-16.89,27.53c-.27.51-.54,1.07-1,1.92Z"/>
          <path class="cls-3" d="M351.39,136h1.22q18.6.54,37.2,1a2.18,2.18,0,0,1,2.07,1.13l19.45,31.75a6.64,6.64,0,0,1,.41,1,8.8,8.8,0,0,1-1.92,0l-35.9-.93a2.72,2.72,0,0,1-2.63-1.32q-9.8-16-19.65-32A3,3,0,0,1,351.39,136Zm57.73,33.26c-.37-.7-.62-1.26-.95-1.78-5.6-9.11-11.23-18.19-16.77-27.34a3.37,3.37,0,0,0-3.22-1.84c-10.6-.25-21.23-.56-31.85-.85h-2.21a9.25,9.25,0,0,0,.37,1q8.91,14.48,17.77,28.94a2.19,2.19,0,0,0,2.07,1.09l33.36.91a9.81,9.81,0,0,0,1.32-.12Z"/>
          <path class="cls-3" d="M150.9,366.76c5.1.1,9.86.18,14.59.31,7.77.22,15.56.49,23.35.66a3.07,3.07,0,0,1,2.9,1.59c6.2,10.23,12.4,20.42,18.75,30.61.31.52.55,1.07,1,1.88h-2.34l-35.51-.95a2.9,2.9,0,0,1-2.81-1.38c-6.43-10.61-12.94-21.15-19.43-31.69A5.76,5.76,0,0,0,150.9,366.76Zm2.74,1.55c.34.66.5,1,.71,1.38,5.79,9.43,11.59,18.81,17.32,28.26a2.71,2.71,0,0,0,2.58,1.4l32.7.87a16.09,16.09,0,0,0,1.84-.12c-.39-.71-.64-1.18-.93-1.66-5.64-9.15-11.31-18.31-16.89-27.51a3.39,3.39,0,0,0-3.24-1.8c-10.48-.22-21-.53-31.42-.82Z"/>
          <path class="cls-3" d="M251.12,170.85c.5-.87.79-1.49,1.16-2.06,6.2-10.09,12.4-20.14,18.6-30.24a3.24,3.24,0,0,1,3.06-1.7c11.95-.27,23.91-.64,35.88-1h1.92c-.35.66-.53,1.07-.78,1.47q-9.49,15.5-19,31a2.9,2.9,0,0,1-2.62,1.7q-18.37.43-36.75.95C252.18,171,251.82,170.89,251.12,170.85ZM309,137.47h-1.37q-16.67.48-33.34.89a2.74,2.74,0,0,0-2.5,1.55Q263.21,154,254.57,168a12.22,12.22,0,0,0-.64,1.43h2.32c10.54-.29,21.1-.62,31.64-.83a3.52,3.52,0,0,0,3.37-1.92c5.46-9,11-18,16.54-26.87.37-.79.68-1.31,1.2-2.32Z"/>
          <path class="cls-3" d="M211.62,309.21l-20.85,33.9L151,344.21c.35-.71.54-1.2.83-1.66,6.2-10.33,12.6-20.48,18.87-30.75a3.05,3.05,0,0,1,2.93-1.76c12-.27,24.06-.62,36.09-.93C210.15,309.11,210.69,309.17,211.62,309.21Zm-2.79,1.59a9.87,9.87,0,0,0-1.22-.1c-11.24.29-22.51.64-33.77.89-1.24,0-1.7.74-2.23,1.59l-17,27.7c-.31.49-.54,1.05-.87,1.71h1.09c11.19-.31,22.39-.64,33.57-.89a2.73,2.73,0,0,0,2.48-1.59q8.53-14,17.11-27.88a8.66,8.66,0,0,0,.79-1.43Z"/>
          <path class="cls-3" d="M331.42,217.28c-.45-.77-.78-1.31-1.09-1.86q-8.47-15.69-17-31.36a3.2,3.2,0,0,1,0-3.49c5.74-10.5,11.41-21,17.11-31.54a16.92,16.92,0,0,1,1-1.64c.39.6.72,1,1,1.47l17.3,31.93a2.53,2.53,0,0,1,.21,2.73q-9,16.39-17.82,32.85A7.69,7.69,0,0,0,331.42,217.28Zm0-3.15a9.77,9.77,0,0,0,.68-1q8-14.76,16-29.52a2.49,2.49,0,0,0-.1-2.72q-7.87-14.47-15.69-28.94a13,13,0,0,0-1-1.39l-1,1.66c-5.13,9.46-10.23,18.95-15.4,28.4a3.13,3.13,0,0,0,0,3.47c5.17,9.45,10.33,18.93,15.4,28.4a16.74,16.74,0,0,1,1.05,1.67Z"/>
          <path class="cls-3" d="M531.69,217.28c-.46-.77-.79-1.31-1.08-1.86q-8.49-15.69-17-31.36a3.2,3.2,0,0,1,0-3.49c5.75-10.48,11.41-21,17.11-31.54.27-.5.58-1,1-1.64.35.47.68,1,1,1.47,5.74,10.62,11.51,21.29,17.28,31.91a2.51,2.51,0,0,1,.2,2.73q-9,16.4-17.81,32.87A7.23,7.23,0,0,0,531.69,217.28Zm0-66.85c-.33.52-.56.79-.73,1.1L515,181a2.49,2.49,0,0,0,.11,2.73q7.93,14.47,15.81,29.14a11,11,0,0,0,.85,1.18c.37-.62.64-1,.87-1.47,5.16-9.52,10.33-19.07,15.5-28.56a3.16,3.16,0,0,0,0-3.49c-5.17-9.45-10.34-18.94-15.4-28.4a16.67,16.67,0,0,0-1-1.74Z"/>
          <path class="cls-3" d="M411.74,401.73H406c-10.55-.27-21.09-.6-31.65-.85a3.67,3.67,0,0,1-3.53-2.07c-6.08-10-12.28-20.05-18.42-30.05-.37-.58-.7-1.18-1.16-1.94.56,0,.89-.15,1.22-.15q18.6.52,37.21,1a2.34,2.34,0,0,1,2.19,1.28q9.69,15.85,19.45,31.66A3.16,3.16,0,0,0,411.74,401.73Zm-57.87-33.42c.31.66.47,1,.68,1.38,5.79,9.41,11.6,18.81,17.32,28.24a2.71,2.71,0,0,0,2.56,1.42c10.92.27,21.81.58,32.72.87a16.09,16.09,0,0,0,1.84-.12c-.43-.75-.72-1.31-1-1.82-5.56-9.06-11.18-18.07-16.66-27.16a3.68,3.68,0,0,0-3.58-2.07c-10.1-.23-20.23-.54-30.36-.81-1,.05-2,.07-3.41.07Z"/>
          <path class="cls-3" d="M231.38,274.9c-.54-.87-.89-1.38-1.18-1.92q-8.49-15.69-17-31.38a2.86,2.86,0,0,1-.12-3.1c5.81-10.62,11.55-21.29,17.32-31.93.23-.41.52-.81,1-1.57l18.89,35Zm-17.3-35.14c1.88,4.39,16.25,30.53,17.47,31.69l17.07-31.54-17.3-32Z"/>
          <path class="cls-3" d="M412.61,240l18.81-34.8a11.45,11.45,0,0,1,1,1.19l17.49,32.33a2.09,2.09,0,0,1,.14,2.34q-9,16.53-17.94,33.07a4.71,4.71,0,0,1-.62.72Zm19,32c5.92-10.94,11.62-21.48,17.26-31.87-3.68-7.67-16.14-30.29-17.48-31.65L414.28,240Z"/>
          <path class="cls-3" d="M31,205c6.43,11.9,12.65,23.39,19,35.13L31.3,274.73C30,273.43,14.38,245,12.12,239.91Zm17.3,35.13-17.3-32L13.78,239.89C15.53,244,30,270.37,31.24,271.59,37,261.09,42.61,250.66,48.36,240Z"/>
          <path class="cls-3" d="M431.67,436c6.43,11.86,12.65,23.39,18.89,34.93l-18.85,34.85c-.38-.49-.73-1-1.06-1.51q-8.64-16-17.3-31.94a2.49,2.49,0,0,1,0-2.72q8.81-16.12,17.51-32.31A7.87,7.87,0,0,1,431.67,436Zm0,66.9L448.91,471c-2.86-6.2-16.29-30.59-17.51-31.6l-17,31.52Z"/>
          <path class="cls-3" d="M231.51,436.12c6.36,11.74,12.58,23.25,18.85,34.83C244.16,482.5,238,494,231.53,505.74a10.23,10.23,0,0,1-1-1.18q-8.75-16.17-17.51-32.33a2.05,2.05,0,0,1-.12-2.33q9-16.54,17.92-33.08A5.7,5.7,0,0,1,231.51,436.12Zm-17.37,34.71c2.22,5,16.25,30.52,17.47,31.66L248.68,471l-17.3-32Z"/>
          <path class="cls-3" d="M31,505.8l-19-34.89,18.83-34.79a7.51,7.51,0,0,1,.87,1l17.59,32.5a2,2,0,0,1,.12,2.35q-8.92,16.39-17.82,32.87A7,7,0,0,1,31,505.8Zm0-2.92c5.94-11,11.62-21.49,17.3-32-5.76-10.63-11.43-21.1-17.3-32-5.93,10.92-11.59,21.42-17.3,32Z"/>
          <path class="cls-3" d="M31,551.5c.48.8.81,1.34,1.12,1.9,5.62,10.33,11.22,20.81,16.91,31.19a3.09,3.09,0,0,1,0,3.49c-1.26,2.07-2.36,4.14-3.47,6.35-.44.78-.93,1.24-2.07.6,1.2-2.26,2.31-4.53,3.64-6.7a3.4,3.4,0,0,0,0-3.86c-5.13-9.31-10.15-18.61-15.22-28-.29-.54-.64-1.06-1.07-1.8a15,15,0,0,0-1,1.51c-5.15,9.51-10.34,19.06-15.51,28.54a2.94,2.94,0,0,0,0,3.33c1.06,1.74,2.07,3.58,3,5.4.27.53.52,1.09.78,1.67a1.19,1.19,0,0,1-1.67-.23h0a1.7,1.7,0,0,1-.19-.35c-1.3-2.44-2.58-4.88-4-7.27-.6-1,0-1.76.41-2.55l11.41-21.1c1.9-3.49,3.78-7,5.68-10.46A5.5,5.5,0,0,0,31,551.5Z"/>
          <path class="cls-3" d="M231.36,554.54c-.54.86-.87,1.36-1.18,1.92-5,9.34-10.06,18.6-15.19,28a3.34,3.34,0,0,0,0,3.86c1.3,2.17,2.42,4.44,3.64,6.7-.91.53-1.47.35-1.88-.42-1.35-2.5-2.69-5-4.14-7.46-.47-.84,0-1.49.31-2.17l5.15-9.53,11.84-21.84c.34-.62.69-1.22,1.16-2.07a8.23,8.23,0,0,1,.91,1.2c5.81,10.7,11.58,21.41,17.43,32.1a2.65,2.65,0,0,1,0,2.93c-1.24,2.07-2.4,4.34-3.56,6.53-.41.77-.87,1.31-2.07.73.95-1.8,1.93-3.58,2.86-5.38,2.19-4.13,2.23-2.52,0-6.61-4.68-8.74-9.43-17.45-14.14-26.17A14.26,14.26,0,0,0,231.36,554.54Z"/>
          <path class="cls-3" d="M431.61,551.42c.49.84.78,1.32,1,1.81,5.66,10.48,11.29,20.94,17,31.38a3,3,0,0,1,0,3.49c-1.22,2.07-2.25,4.14-3.35,6.2-.39.73-.78,1.39-1.94.89a9.19,9.19,0,0,1,.45-1.24c1.12-2.06,2.26-4.26,3.43-6.36a2.05,2.05,0,0,0,.15-2.17q-8.14-15-16.41-30.1l-.42-.78c-.47.74-.8,1.17-1,1.65-5.17,9.51-10.33,19.06-15.5,28.54a2.94,2.94,0,0,0,0,3.33c1.32,2.25,2.5,4.57,3.8,7-.85.49-1.42.45-1.84-.33-1.4-2.55-2.81-5.09-4.13-7.67a2.09,2.09,0,0,1,.12-1.57,26.41,26.41,0,0,1,1.39-2.63l15.85-29.33A20.22,20.22,0,0,0,431.61,551.42Z"/>
        </g>
      </g>
    </g>
  </g>
</svg>
