<svg width="48" height="48" viewBox="0 0 48 48" fill="none" xmlns="http://www.w3.org/2000/svg">
<g clip-path="url(#clip0_127_334)">
<path d="M45.5601 17.6518C45.6874 17.3588 45.7563 17.0432 45.7631 16.7232C45.7699 16.4031 45.7143 16.0848 45.5995 15.7865C45.4847 15.4883 45.3131 15.2158 45.0943 14.9848C44.8755 14.7538 44.614 14.5688 44.3246 14.4403L12.8328 0.393699C10.4362 -0.675173 7.48577 0.518157 6.46214 2.93654L1.13924 15.5141C0.638478 16.7038 0.624025 18.0463 1.09906 19.2468C1.57409 20.4473 2.49981 21.4078 3.67304 21.9176L18.2159 28.2332L15.2293 35.7983H4.8171V28.4772H0V48H4.8171V40.679H15.2293C17.2115 40.679 18.9673 39.4734 19.6995 37.609L22.6428 30.1562L35.1793 35.5982C35.7631 35.852 36.4223 35.8618 37.0133 35.6255C37.6042 35.3892 38.0791 34.9259 38.3345 34.3365L39.086 32.6038L43.1829 34.2633L48 22.0615L44.3005 20.5656L45.5601 17.6518ZM34.8806 30.1611L5.57098 17.4346L10.8891 4.86198L40.1818 17.9276L34.8806 30.1611Z" fill="white"/>
</g>
<defs>
<clipPath id="clip0_127_334">
<rect width="48" height="48" fill="white"/>
</clipPath>
</defs>
</svg>
