<svg width="48" height="48" viewBox="0 0 48 48" fill="none" xmlns="http://www.w3.org/2000/svg">
<g clip-path="url(#clip0_127_336)">
<path d="M9.44522 11.415C8.22942 11.415 7.29419 12.3507 7.29419 13.5671V17.8712C7.29419 19.0876 8.22942 20.0232 9.44522 20.0232H14.776C15.9918 20.0232 16.9271 19.0876 16.9271 17.8712V13.5671C16.9271 12.3507 15.9918 11.415 14.776 11.415H9.44522ZM13.2797 16.2805H11.1286V15.1577H13.2797V16.2805Z" fill="white" stroke="white" stroke-width="0.00064"/>
<path d="M47.2292 37.7076C47.1357 37.7076 47.1357 37.614 47.1357 37.614C44.7041 36.3041 42.4596 34.807 40.402 32.8421C38.5316 30.9708 37.1287 28.9123 35.9129 26.5731C33.2008 21.8012 29.2728 18.0585 24.316 15.7193C24.316 15.0643 24.316 14.4094 24.316 13.6608C24.316 12.1637 24.316 10.6667 24.316 9.16959V9.07602C24.316 9.07602 24.316 9.07602 24.316 8.98246C24.316 8.42105 23.9419 7.95322 23.5679 7.67251C23.4743 7.57895 23.4743 7.57895 23.3808 7.48538C19.9205 5.05263 16.4601 2.61988 13.0933 0.280702C12.6256 -0.0935672 11.6904 -0.0935672 11.2228 0.280702C7.76243 2.99415 4.39559 5.61404 0.935232 8.23392L0.841709 8.32749C0.374093 8.60819 0 9.07602 0 9.82456C0 20.3041 0 30.7836 0 41.2632C0 42.7602 0 44.2573 0 45.7544C0 48.1871 3.74093 48.1871 3.74093 45.7544C3.74093 44.6316 3.74093 43.4152 3.74093 42.2924H20.5751C20.5751 43.4152 20.5751 44.6316 20.5751 45.7544C20.5751 48.1871 24.316 48.1871 24.316 45.7544C24.316 40.1404 24.316 34.6199 24.316 29.0058C24.4096 29.0994 24.5031 29.193 24.5966 29.3801C24.7837 29.6608 24.7837 29.6608 25.1578 30.1287C25.4383 30.5029 25.7189 30.9708 25.9995 31.4386C27.4958 33.7778 28.9922 36.2105 30.6756 38.4561C32.5461 40.8889 34.5101 43.3216 37.0352 45.0994C39.7474 47.0643 42.8336 47.9064 46.107 48C46.9487 48 47.4163 47.6257 47.6969 47.0643C47.8839 46.7836 47.9774 46.5029 47.9774 46.1287C47.9774 44.1637 47.9774 42.1988 47.9774 40.2339C47.9774 39.9532 47.9774 39.6725 47.9774 39.3918C48.0709 38.7368 47.8839 38.1754 47.2292 37.7076ZM3.74093 26.6667H20.5751C20.5751 27.9766 20.5751 29.3801 20.5751 30.6901H3.74093C3.74093 29.3801 3.74093 28.0702 3.74093 26.6667ZM20.5751 10.1988C20.5751 14.4094 20.5751 18.7135 20.5751 22.924H3.74093C3.74093 20.0234 3.74093 17.1228 3.74093 14.3158C3.74093 13.0994 3.74093 11.9766 3.74093 10.7602C6.54663 8.60819 9.35232 6.45614 12.158 4.39766C14.9637 6.26901 17.7694 8.23392 20.5751 10.1988ZM3.74093 34.4327H20.5751C20.5751 35.7427 20.5751 37.1462 20.5751 38.4561H3.74093C3.74093 37.1462 3.74093 35.8363 3.74093 34.4327ZM33.0137 35.1813C31.5173 33.1228 30.208 30.9708 28.8052 28.9123C27.4958 26.9474 25.9995 25.4503 24.2225 23.9532C24.2225 22.6433 24.2225 21.3333 24.2225 20.117C25.6254 20.8655 26.9347 21.8012 28.057 22.8304C30.3015 24.8889 31.7044 27.2281 33.2007 29.848C35.8194 34.4327 39.6539 37.8947 44.143 40.5146C44.143 41.731 44.143 42.8538 44.143 44.0702C41.9919 43.6959 40.1215 42.9474 38.4381 41.5439C36.3805 39.6725 34.6036 37.4269 33.0137 35.1813Z" fill="white" stroke="white" stroke-width="0.00064"/>
</g>
<defs>
<clipPath id="clip0_127_336">
<rect width="48" height="48" fill="white"/>
</clipPath>
</defs>
</svg>
