<svg width="48" height="48" viewBox="0 0 48 48" fill="none" xmlns="http://www.w3.org/2000/svg">
<path d="M45.9773 34.41L41.8502 30.2827C41.4889 29.9475 41.2414 29.5078 41.1421 29.025C41.0428 28.5422 41.0968 28.0405 41.2966 27.5899C42.1742 25.7051 42.6376 23.6541 42.6555 21.5751C42.6672 21.4916 42.6672 21.4069 42.6555 21.3234C42.6642 18.312 41.7315 15.3731 39.988 12.9178C36.6185 8.20855 32.153 4.39068 26.9774 1.79417C23.6944 0.186943 19.9927 -0.359159 16.3854 0.231556C12.7782 0.822271 9.44398 2.52054 6.84501 5.09099L5.15892 6.77715C2.56155 9.38609 0.846753 12.7432 0.255454 16.377C-0.335845 20.0107 0.226068 23.7383 1.86225 27.0362L2.1139 27.4641C0.77091 28.8574 0.0141948 30.7132 0 32.6484C0.00999186 33.9838 0.373978 35.2926 1.05483 36.4414C1.73569 37.5902 2.70905 38.5378 3.87564 39.1877C5.04222 39.8375 6.36029 40.1663 7.69539 40.1405C9.0305 40.1146 10.3349 39.7352 11.4755 39.0407C11.9284 39.393 12.3311 39.7705 12.7841 40.0977C13.7366 40.76 14.7679 41.3011 15.8543 41.7084H16.0807C16.5337 41.8845 17.0119 42.0355 17.5152 42.1865H17.8927C18.6758 42.3877 19.4763 42.5141 20.2834 42.564H21.8436C22.3721 42.564 22.8754 42.564 23.4039 42.413H23.8317C25.069 42.2006 26.2714 41.8195 27.4052 41.2805C27.857 41.0986 28.352 41.0516 28.8299 41.1455C29.3079 41.2393 29.7484 41.4698 30.0979 41.809L33.7721 45.4833C35.3662 47.0832 37.5282 47.9878 39.7866 48C41.681 47.9797 43.4904 47.2107 44.8197 45.8608L45.776 44.9045C47.1641 43.523 47.961 41.6561 47.9986 39.698C48.0362 37.7399 47.3114 35.8438 45.9773 34.41ZM7.47415 35.2154C6.97642 35.2154 6.48987 35.0678 6.07603 34.7912C5.66219 34.5147 5.33963 34.1217 5.14916 33.6618C4.95869 33.2019 4.90885 32.6959 5.00596 32.2077C5.10306 31.7196 5.34274 31.2711 5.69468 30.9192C6.04663 30.5672 6.49503 30.3275 6.9832 30.2304C7.47136 30.1333 7.97735 30.1832 8.43719 30.3736C8.89703 30.5641 9.29006 30.8867 9.56658 31.3005C9.84311 31.7144 9.9907 32.201 9.9907 32.6987C9.9907 33.3662 9.72556 34.0063 9.25362 34.4783C8.78167 34.9502 8.14158 35.2154 7.47415 35.2154ZM15.2755 35.5677L14.6211 35.0644C14.8832 34.303 15.0192 33.5039 15.0238 32.6987C15.0238 30.6963 14.2284 28.776 12.8126 27.3601C11.3967 25.9442 9.47644 25.1488 7.47415 25.1488H6.51786L6.29137 24.7461C5.12087 22.3919 4.71716 19.7301 5.13692 17.1347C5.55669 14.5393 6.77885 12.1405 8.63176 10.2753L10.3179 8.58915C12.2069 6.77853 14.6134 5.60189 17.2024 5.22299C19.7915 4.84409 22.4342 5.28179 24.7628 6.47515C28.9902 8.58969 32.6622 11.667 35.4833 15.4596L15.2755 35.5677ZM42.4039 41.5322L41.4727 42.4885C40.4158 43.5455 38.78 43.3442 37.4211 41.9852L33.7469 38.336C32.6649 37.261 31.2827 36.539 29.7823 36.2649C28.282 35.9909 26.7338 36.1777 25.3416 36.8009C24.5483 37.1897 23.6993 37.4529 22.8251 37.581C22.3442 37.6729 21.8551 37.715 21.3655 37.7069H20.2582L37.5469 20.4174C37.7231 22.1417 37.4273 23.8815 36.6913 25.4507C36.0682 26.8429 35.8813 28.3912 36.1554 29.8916C36.4294 31.3921 37.1514 32.7743 38.2264 33.8564L42.3535 38.0089C42.8214 38.4727 43.0887 39.1015 43.0982 39.7603C43.1076 40.419 42.8583 41.0552 42.4039 41.5322Z" fill="white"/>
</svg>
