<svg width="48" height="48" viewBox="0 0 48 48" fill="none" xmlns="http://www.w3.org/2000/svg">
<path d="M48 24.575C48 22.9542 47.84 21.281 47.5732 19.7124H24.4736V28.9671H37.7039C37.1704 31.9474 35.4099 34.5618 32.7959 36.2349L40.6914 42.2479C45.3326 38.0127 48 31.8429 48 24.575Z" fill="#4280EF"/>
<path d="M24.4732 47.9998C31.0883 47.9998 36.6365 45.8561 40.6909 42.196L32.7955 36.2353C30.6082 37.6994 27.7808 38.536 24.4732 38.536C18.0715 38.536 12.6833 34.3007 10.7095 28.6538L2.60059 34.7713C6.76172 42.8757 15.1907 47.9998 24.4732 47.9998Z" fill="#34A353"/>
<path d="M10.7096 28.6017C9.69597 25.6214 9.69597 22.3796 10.7096 19.3993L2.60071 13.2295C-0.866902 20.0267 -0.866902 28.0266 2.60071 34.7715L10.7096 28.6017Z" fill="#F6B704"/>
<path d="M24.4732 9.51705C27.9408 9.46476 31.3551 10.7719 33.8624 13.1248L40.851 6.223C36.4231 2.14466 30.5548 -0.0513739 24.4732 0.00091255C15.1907 0.00091255 6.76172 5.12499 2.60059 13.2294L10.7095 19.3992C12.6833 13.7 18.0715 9.51705 24.4732 9.51705Z" fill="#E54335"/>
</svg>
