<svg width="48" height="48" viewBox="0 0 48 48" fill="none" xmlns="http://www.w3.org/2000/svg">
<g clip-path="url(#clip0_53_12)">
<path d="M24 0C17.6348 0 11.5303 2.52856 7.02944 7.02944C2.52856 11.5303 0 17.6348 0 24C0 30.3652 2.52856 36.4697 7.02944 40.9706C11.5303 45.4714 17.6348 48 24 48C30.3652 48 36.4697 45.4714 40.9706 40.9706C45.4714 36.4697 48 30.3652 48 24C48 17.6348 45.4714 11.5303 40.9706 7.02944C36.4697 2.52856 30.3652 0 24 0Z" fill="#039BE5"/>
<path d="M26.7618 29.9664H32.9654L33.9394 23.5157H26.7605V19.9901C26.7605 17.3104 27.6159 14.9341 30.0649 14.9341H34V9.30478C33.3086 9.20921 31.8463 9 29.0833 9C23.3137 9 19.9311 12.1188 19.9311 19.2243V23.5157H14V29.9664H19.9311V47.6965C21.1057 47.8773 22.2955 48 23.5168 48C24.6207 48 25.6982 47.8967 26.7618 47.7495V29.9664Z" fill="white"/>
</g>
<defs>
<clipPath id="clip0_53_12">
<rect width="48" height="48" fill="white"/>
</clipPath>
</defs>
</svg>
