<svg width="48" height="48" viewBox="0 0 48 48" fill="none" xmlns="http://www.w3.org/2000/svg">
<g clip-path="url(#clip0_56_100)">
<path d="M24 0C30.3652 0 36.4697 2.52856 40.9706 7.02944C45.4714 11.5303 48 17.6348 48 24C48 30.3652 45.4714 36.4697 40.9706 40.9706C36.4697 45.4714 30.3652 48 24 48C17.6348 48 11.5303 45.4714 7.02944 40.9706C2.52856 36.4697 0 30.3652 0 24C0 17.6348 2.52856 11.5303 7.02944 7.02944C11.5303 2.52856 17.6348 0 24 0ZM27.186 12.936C27.186 12.1404 26.8699 11.3773 26.3073 10.8147C25.7447 10.2521 24.9816 9.936 24.186 9.936C23.3904 9.936 22.6273 10.2521 22.0647 10.8147C21.5021 11.3773 21.186 12.1404 21.186 12.936V21.186H12.936C12.1404 21.186 11.3773 21.5021 10.8147 22.0647C10.2521 22.6273 9.936 23.3904 9.936 24.186C9.936 24.9816 10.2521 25.7447 10.8147 26.3073C11.3773 26.8699 12.1404 27.186 12.936 27.186H21.186V35.436C21.186 36.2317 21.5021 36.9947 22.0647 37.5573C22.6273 38.1199 23.3904 38.436 24.186 38.436C24.9816 38.436 25.7447 38.1199 26.3073 37.5573C26.8699 36.9947 27.186 36.2317 27.186 35.436V27.186H35.436C36.2317 27.186 36.9947 26.8699 37.5573 26.3073C38.1199 25.7447 38.436 24.9816 38.436 24.186C38.436 23.3904 38.1199 22.6273 37.5573 22.0647C36.9947 21.5021 36.2317 21.186 35.436 21.186H27.186V12.936Z" fill="white"/>
</g>
<defs>
<clipPath id="clip0_56_100">
<rect width="48" height="48" fill="white"/>
</clipPath>
</defs>
</svg>
