<svg width="50" height="50" viewBox="0 0 50 50" fill="none" xmlns="http://www.w3.org/2000/svg"><path d="M22.186 22.686H22.686V22.186V13.936C22.686 13.273 22.9494 12.6371 23.4182 12.1682C23.8871 11.6994 24.523 11.436 25.186 11.436C25.849 11.436 26.4849 11.6994 26.9538 12.1682C27.4226 12.6371 27.686 13.273 27.686 13.936V22.186V22.686H28.186H36.436C37.099 22.686 37.7349 22.9494 38.2038 23.4182C38.6726 23.8871 38.936 24.523 38.936 25.186C38.936 25.849 38.6726 26.4849 38.2038 26.9538C37.7349 27.4226 37.099 27.686 36.436 27.686H28.186H27.686V28.186V36.436C27.686 37.099 27.4226 37.7349 26.9538 38.2038C26.4849 38.6726 25.849 38.936 25.186 38.936C24.523 38.936 23.8871 38.6726 23.4182 38.2038C22.9494 37.7349 22.686 37.099 22.686 36.436V28.186V27.686H22.186H13.936C13.273 27.686 12.6371 27.4226 12.1682 26.9538C11.6994 26.4849 11.436 25.849 11.436 25.186C11.436 24.523 11.6994 23.8871 12.1682 23.4182C12.6371 22.9494 13.273 22.686 13.936 22.686H22.186ZM42.3241 7.67588C37.7295 3.08124 31.4978 0.5 25 0.5C18.5022 0.5 12.2705 3.08124 7.67588 7.67588C3.08124 12.2705 0.5 18.5022 0.5 25C0.5 31.4978 3.08124 37.7295 7.67588 42.3241C12.2705 46.9188 18.5022 49.5 25 49.5C31.4978 49.5 37.7295 46.9188 42.3241 42.3241C46.9188 37.7295 49.5 31.4978 49.5 25C49.5 18.5022 46.9188 12.2705 42.3241 7.67588Z" fill="white" stroke="black"/></svg>